<mxfile host="app.diagrams.net" modified="2020-09-02T07:32:46.335Z" agent="5.0 (Macintosh; Intel Mac OS X 10_14_6) AppleWebKit/537.36 (KHTML, like Gecko) Chrome/84.0.4147.135 Safari/537.36" etag="Qa6qB5iPmhMSHnGWiyKA" version="13.6.6" type="github" pages="3">
  <diagram id="e7W88Nainjo_8dd-rPL6" name="中台架构">
    <mxGraphModel dx="1378" dy="2457" grid="1" gridSize="10" guides="1" tooltips="1" connect="1" arrows="1" fold="1" page="1" pageScale="1" pageWidth="1169" pageHeight="1654" math="0" shadow="0">
      <root>
        <mxCell id="ibMRgNt4sKEfAej5PDVp-0" />
        <mxCell id="ibMRgNt4sKEfAej5PDVp-1" parent="ibMRgNt4sKEfAej5PDVp-0" />
        <mxCell id="ibMRgNt4sKEfAej5PDVp-3" value="" style="rounded=0;whiteSpace=wrap;html=1;strokeColor=#7EA6E0;strokeWidth=1;dashed=1;" vertex="1" parent="ibMRgNt4sKEfAej5PDVp-1">
          <mxGeometry x="325" y="520" width="520" height="200" as="geometry" />
        </mxCell>
        <mxCell id="ibMRgNt4sKEfAej5PDVp-2" value="" style="shape=image;verticalLabelPosition=bottom;labelBackgroundColor=#ffffff;verticalAlign=top;aspect=fixed;imageAspect=0;image=data:image/png,iVBORw0KGgoAAAANSUhEUgAAAggAAAELCAYAAAC8gH5QAAAgAElEQVR4XuydB3hUVdrHf1OSmUwy6b0T0hN670WqiBW7a+9tXXddV921rH7uuva1YFu7KIoNqaIghE4ogSQkISG9t8lkJsn07zk3JICua4IDEr13HzZC7j33vP+3nP8973vOUbhcLhfyJSMgIyAjICMgIyAjICNwDAIKmSDI9uAuBKxWK7t27XJXc3I7pxiB4OBgUlJSTvFb5dfJCMgInK4IyAThdNXMAOxXe3s7Tz311ADsudxlgcCQIUNYtGiRDIaMgIyAjICEgEwQZENwGwIyQXAblL9IQzJB+EVgl18qI3DaIiAThNNWNQOvYzJBGHg6O7bHMkEY2PqTey8j4G4EZILgbkR/w+39GgiCUqnE6XRKWnR5eOBhs2H/gU5VeHoqsFp/+JuBrH6ZIAxk7cl9lxFwPwIyQXA/pr/ZFgc2QVDinzGTy6b6sfrdzyg1q4hZcAuz1dl8sWo7LbbuxT4uhY7U+ZdwVlQ9H723imqLCo3WA6X0SyfWLguOAWoBMkEYoIqTuy0jcJIQkAnCSQL2t9jswCUISnQBIUQmDGfenJG07FnPnlotU8+ejqJgI+u+20NZsxGVLpiUzBQCwxIZn+pL8b79lDXAyLOm49/RhofOi9o1r/N2dtOAVL9MEAak2uROywicNARkgnDSoP3tNTxgCYLCg/ixc7lg8iDqa5txHNkaRKFQ4B0cRteBdSzdmAu6CMbNO5NRfkYK6pQMHuRP0e4SoqePomXXNsJSksld9h5b6y0DUvkyQRiQapM7LSNw0hCQCcJJg/a31/BAJwiLMuy88d63mI9RXdLsyxjZuZuPN+ZidSoJzJjK7ybo+DpHy8RBRpZn1bPg6gV05eXh7dHCe59vxeocmHuPyQTht+ezssQyAv8LAZkgyPbhNgQGLEHAg7jRZ3D2pEEYGtuOqyHQ+Qdiyl3PZ5vz8Yoay5lnjSVU7cRqV6BSK7A3G7HGR9JVUIhe7+S75Wspau1iIFIEmSC4zRXkhmQEfhUIyAThV6HG00OIgUoQFCpPIgalEJeQQHwgGExqgj1M5BTX4KkPRGeqYFtuKQrfaMZPmUCsn+YI4FZqi9uInT6U4s/ew5pxJlN9i3nzvU00dy+EGFCXTBAGlLrkzsoInHQEZIJw0iH+7bxgoBIET304sxfOwtGpISPawKZNjYycFMe29z6gPmYaZ4/z5+ulK6hQ+HHGOeczyFpLWbuT6MGRlG85ROz8MRR98DwlEfO5aaYX7z21lFL7wJtDkAnCb8dXZUllBPqCgEwQ+oKSfE+fEBioBMEnYjQXLUyhoF7LtCQzn779HR4hOup9hzM9xIwqLJHA8jW8vr2Nmeecg0/+er6rtTNu7mysOaXEnDkOa24uurhE9LVZvPbpbswDjx/IWy33ycrlm2QEfjsIyATht6Prky7pQCUIvoMnMG0w5LaHcuGMFNqqazA7lHiHR9N1cD3bqpwkeDSy8aCRcWeeS5qPlTYr+AVpKdhYTPyZY2netIYGm5Oy3DzqOgZgfkE+i+Gk+4f8AhmBgYaATBAGmsZO4/4OVIKgVGvQeiiwoiEsJBCd1hO1SonL1kFjfR2tHQ5ULgc2VPj6B6DBhtUJnhpPLJ0KIgeH01acS237QN0iqduo5BTDaexcctdkBH4BBGSC8AuA/mt95UAlCL9WffRXLpkg9Bcx+X4ZgV83AjJB+HXr95RKJxOEUwq3218mEwS3Qyo3KCMwoBGQCcKAVt/p1XmZIJxe+uhvb2SC0F/E5PtlBH7dCMgE4det31MuXc9JiKf8xafghY8++ihz585l7Nixp+Btp/4VYmtp8Ue+ZARkBGQEBAIyQZDtQEagjwg88sgjzJs3j3HjxvXxCfk2GQEZARmBgYuATBAGru7knp9iBGSCcIoBl18nIyAj8IsiIBOEXxR++eUDCQGZIAwkbcl9lRGQEfi5CMgE4eciKD//m0FAJgi/GVXLgsoIyAjINQiyDcgI9B0BmSD0HSv5ThkBGYGBj4A8gzDwdShLcIoQkAnCKQJafo2MgIzAaYGATBBOQA2lpaXk5eWhVCpP4OmB/UhNTQ12u31gC3ECvRcyNzY24uvri7e39wm0MHAfUalUBAUFodVqB64QJ9BzsWQ3Ojpa2oJaYCBfMgK/NQRkgnACGt+2bRviz5gxY07g6YH9SFZWFvHx8QQHBw9sQfrZ+6amJgQ5EoPFb22vgAMHDpCQkPCb03l1dTUajYYFCxbg6enZT4uRb5cRGPgIyAThBHQoyEFhYSFXX331CTw9sB95+umnmT9/Punp6QNbkH72Pj8/n61bt3L99df388mBf/ubb77JlClTSEpKGvjC9EOCgoICDh48KBOEfmAm3/rrQmDAEQSXqKwEen+6XNIX3dG/g9gMzuXq/tlz9fy+L+r7/r3ff1cPQbjqqqu63/2DPhzp05E+/HRfvy/D8c/3yvA9mf6XLD8uwxF8enDs6ftPyXDk3T0EIS09vVsPPTIeef5oX90vw4/h0It/b196bODHbOPH8O7+9x/K4JIGih6C0CvzEQzdYmM/asf/u68/sK2f0uP39f4Df/qh37z15ptMnjyZ5OTk/+k+P+ZzP+4f/ZStt+/H6/cnbe57euqr3xxLEDw8PH7UNo6PP9/z/e/5x1F/OTEZ+hLHfuyeH+in1/ePj5k/1NeP+VOPrP2LXz8Wm04oNp+mftMXWX48np0g3v2w877277QhCG1tbQiH/F+71DmcTmrqG4kIDaahqQVfH2+aWwwEBQVgMnXg5+tDs6ENH50XHZ1d+Ol9pJ+enh7dPz3U0mDu4aHG4XDidApTBafLicbTE5vNjlqtoqOrC51Wi8Vqld7RZjThpdViaG8nOMCfzVu2UFNdxaw58/Dz1dNiaCMiNET6GejvS01dA8FBARjaTESFh1LX2IS/r57qugYiw0Joa28nLDiI2oYm/PXdfQ4NDpL+3U+vp6lFyOaDuaMTf38/TGYzWo0Gk8ks9cPusEt/t9hsKFDgdDpQKJSoVSqkrY4VYLXZ0AqZ7A50XhpM5k5JRpO5A39/fXfbvnoam1rx1XfLGBoSJMng7+sj9S00KIg2YzuR4SES7kLWl198gdmz5xAeGUVIcKD07wF+eppbuzFolZ7XU9vYTJC/L+3mDoID/TEY2yVM29rN+Hh7YbXa0HlpJb2o1WpsdhueHh69jMPhcOBwduvK6RD68aCzqwsRqM2dXRJu4lkfb53UZ6Eno7mDkMAAWloN+Op9qG9sJixE4GqSbKaqtkHqq9BHdEQYLQYjocGBVNXUExTgJ8kQHRFKY4tBuq+qtpHQ4ADa2000NdazZcsWrrzyKuk5fz8fOjst6H10GE1mCesui1WSyXrEjoSMSqUCpUIp6UTUrIh/EzZmsdrQe+skmYQuRR+FDEK2QH/RF4P0+6YWQ68M4SFBVNbUEeDnS2NzK9GRYVKfQwL9qaiuIyQoQOpbTGQ49U3C5nypqq0jPDQEo9FEeGgQ9T1+02ogKLDbb4T+DUYjOi8vOgWmPt50WSx4qj3otHSx/PPPGDJsBGlpqbicTuwOpzRYClvTajwlWxN6Mpm7JN/rslok+5V07qWltc0o6UXYguhrjy0JvQl/EDIIvxH+ERoUKN0v9FPT0ESAr17ypwjJb0ySvuoamiTfFs+HBAdh7PWb1l4M/f30mM0dUmqgo6MTjcZT8nlhR9YjNTQuZ/fA5qFWYXc4UCiVWCxWvDQaSYcN9TUUFhQwdfoMOi1WgiRf7EC0LeKP8FXJl0OCJBkkv6lvkvrY7TehVAv/EP5Q30hURBgGgUVQIDUNjVI7ra1thIcG02owSv5V19gsYSH6Hhjgj7HdhFarkWzMR9dtW15aDV1dVlQqpeTfnmqVNKKI2CZ04nC48PTsjnFCP8LXRQyU/MZXxJUuyW5F7BQx02jqIDQwgKZWg4Rrj98Y2k2SfoR/BPjrqWtoJiYirDteBQVSVdvtN0IPIs4JvxG+L/QrbLHdZD5ik21467wwGEz4+XnT2WXBR6eTsBT9slhsaL269aNUKLDbxbHpLlQqdfdPpfAXC2q1uFf4nLfk+yIWthmN+Pp26zoo0F/yF+E3Dc0tUjzq8f2K6lrJbxqaW4mR/MYg2eSxfhMbFS7Zlr+fL9W19ZJeBe4iVjc2t0h+IfQVGCjsoFOyNclvtF6Sn/h4e0v20+3fVqnf4nujp1ZNyCVszOGwS7FQxAuhJ5OpEx8fHV1dFkkfwhYEXs0GI2HBgRhNJoIDAyQ/EH37gd/UNkh9bWxpJT46sq9jf5/uO20Igvgqv+eee9i8efOPdlwYf1Nrm2SU0qAtBj5Th2QwAlydTisZnRgIRSD2EsHaKhSmlhQmFCdYdM9A6hR/kb6CXXiohUM5JGWK4C0CiTS4ajW9JEM4mniXGCgqK8pZeM65UgAUgS/Qr3sw7B6wjN2BqqNT6qsIeELh4t/FfebO7sG5ta07gIo+95AZIYMICl5eXpKxicFUOJTonxS0PT1xOhxSQO52JEFwugOdSqmUZBGX+F0PERJOKJ4VbUjO6d3dtk7n1f0urRiou/skZPD28qLVaJQCoJBBBCwhgxhAXvj388yZO5eY2Hgp2AiZhGzdgbM7sAkZDG3tEhbivQILkwjSIlh3igHRUwrIAmOBtei3+Lvon9R/BRJ5E3Kpj8gkdCh0qVKresmFeFa0Jd4tZBDvEvrp+bsI3v5Chs5OKThIffXSSgNXUIA/pg4xOPocGYzFc2YC/f0lh5T01SqCtiACXVRXVUh6v+rqazB3dEi/F+8XwbqjSwymammglAYie7cdSYOO+J9S/H93oLDZ7ZK84qcYiATJE8SoO+BpJDsVAa7d1HFkYDBJehG/FwO+CGzi3UJvQoZ2s1nCVwR3MSgL2XsImRRkWtukAUp63k/fO2iL9nv9RthgxxG/sXXLJJEclUqS6ZOlHzFq9BhSUlKODELC3rrtTshtczhQq5RSwBP6EERb+J6wHYmUdnTi59M9MAgy0m0zPX7jJ8nQQ/SEH4jg2+037dJ94n6hP4n0+/pIttXrN77dRFEEXBHMBRkWA46QvfOIzUuBWBBNYU8qleTnPX4vBBF9F4OT0JPou9CH0F1VZQUFBw9yxqzZ0t/FACBsTMLfaJLsXAy23X5j7vabtu6BvsdvevxDEANB/CQsjhkEegiH+CmeF7bZ4zfSQNghPnDUdHRaJGxF36VBVSKfSok8C6LQM20q/Ed8SAl/EWROihs9MdBi7bZboSet+GgwS7h1WCz4+fhIMnQPuu2STMJvesiqNMC3HeM3PsJv2iSiIfoeGOAn2WRPnPPTH9G3aLejQyLQAhOhTxGbBSkW+lGrRByzSzKJfksEQfKbowOr5Dc2m1Qo2m1bwk9saKSPhc7ewVbgJWxA2K/oi4hHIq4J22lqacVbp5MIg/APQV4kv2np/pjo9Rthc97dfiP8Rfi+0GfPeCPiW7d+rNJ7emxc+InwZ+HXPX4ufh4rh5BLfCw4nN2xz2ZzoFYrJbIn9CHaEDbQ44vip/AH6UNE732EOGil2CDwFjJIftPa1m1Tbe3Sh5A7r9OGIHz33XfceOONFBUV/ah8YtATrFV8OQlH/6UuuQZBrkH4pWzvl3ivXIMgFyn+EnYnv7PvCAjieLiimqRBsX1/qA93DiiCIECob2whLCTwF112JBMEmSD0wbd+NbfIBEEmCL8aY/6VCiJmXyqr64iP+ZWmGPoygyAIgshLRoYGH0cQDpVW9E4bngr9V1RW0tTYyMiRI0/F63rfIXKaYlqs5xLTkSJndiovkQJKTkkhNCTklL1WTPkmxEX3vk9MFZdV1kgph1N1NTQ0UF5RwZjRo0/VK6X3iFyuSCX0XGIKW+SIT+WVvXt399LWoKBT9loxPTs4LqZ7+hykqeWa+gYpTXGqrtqaGmqqKhk+avQp/SD5vs5PlbzyewYuAiJFVl5dS0JslFuFGFgzCE6nVJwlikt6AodA49PV3+Lj5SXlzU7FJfJ84s+p2ihJDIgi9zwkNYm46IheEUvKqigoKZUGkGMWbJxUCHryhKdqLwAxIIrc3VmzpvbKJYji2o3bpJysyNmdiutU61zIVNvQSFJCHBnJg3tFLDpcTlFpOcH+/qdsPwZR+yP0fap0LupgRB78rNnTpFytuEQ+dvvu/VKO/FSlF4XcIo+vUotiuVNzlVXVMCQtifSkhJP0QgdGYyc6vTfqIyt2nFYrLk9PjiZtXXS2t9GJF4F6DThsGAztKP0C8FV/L9K4bHR2KfHyUkm1N04FePy39K/Lid2lQK08VZHqJMF3mjYrFfDXNUgFyu68BhxBEMUjooBJFHr1XCu+2cTY4ZlS9fCv8RKBKjsnX5Lv2Cmk4tJKqaJ17IjMX6PYkkxixcH+/CLmTJvYK6MgDJt37WNoaqJURPVrvbZm50hFfZkpib0iFpaUSYVQgjScqgH7VOMriuHWZW3j7DkzjhIEcwfZ+/MZNyJTIgm/1kvYdYCvLxkpJ4cgOFrzeeT6G1gSfjtf3DYMpUpD2wd3cNX2oSz96h+M0CjA1s6yR6/ltc4p3DE8kLbGEt587WO8fncHl8bo8YkfzuyRCTgdXRSuWMy1bzbw1tKHMH7+FPdt8ObLl2/HW+WBl84LlQIcFgNb33qc294q4uYXXmJ+kAV9eDTB3vLmU+6yYzFGiBVKv+kiRfHlWNvQTERo0HFTfjJBkAmCuxztdGpHJggyQXCrPTrt7Hr/79z5zHI8wuMI1CpweUcS17COT8yT+Ovtc4mMH8NI606efeElstoCCLfWU9VkoLqqEY/IaEJ9/Bhz2X3837A67n83C0tLORt2lZM0fSLKgq3kO+KYOzIW/8Qp3HzHdaR5VPPla8/x7Cd7SbvkLu5ZFM8bv/8TZcOu5/n7LyLkt7dbvVtV2tOYmEGoqKpl0G86xeBw0tjUIq2/PzbFIBMEmSCcFK/7hRuVCYJMENxqgk47m/9zD3947musIm2iUBKZnkjrpm3UhUSham8l9aqn+LN6KX96Zwu1ylQuWRBCUU4FB3KK8cpIRtFq4+p/vMVdqa0sfu1tcuq7a0IUKjWDhk8jLdxFyZYt2IddwNWjXDx091/4YlcpoUOnMXNcCnqVg8O7NrBmdx1Dbl3Mp39fQIicdvjZapZTDEfW9pdX1Uh5eLHOV04xyCkGOcXws2PLadeAnGI4eSkGS8G33Hjtn8lpb6TDJwLPxiaqFEN58u1rWfZ/n/PgS88wIczOR4/dxBumWMJXL2Vtk5mODgsqLw2OLgv+s+8m6+2/sP2Wsfw+q4vQADUt1c0kn30JEeFhRHz1IsV3rGP55TbuvezPbKg346nxlPZlEZsfiRoSZVcTuZUa7v9sLbeN9D3tbHCgdUjMrheUlB1Xr+QOGQZUDYLIs7SIDUf8fI8rEJRnEOQZBHc4w+nWhjyDIM8guNMmXQ4r6564npte2oiXrot6sxof/0Gk+7fQmDQH3zYXT7/0OPrNT3P7P99mj3M0f5zvZP2OOgrzDqNNS0JjdrHo/n9z7zlpfPy7Ufy9LIaJaVp2Lt+IbtIZ4BPP9H1vc+iOb/nspqGo6lbzhzvfpFrRvWlQ9+XCoQxl2m13csOkZLRy3eLPVrPYWK6xpUXa9dGd14AiCKI4TWzHKrb1PLaSWSYIMkFwp1OcLm3JBEEmCG61RZeD7A+f4MrnlhNZW0FjYhJ+cWdwf1IOlzy7neSFd/Dh8/fgt/d9/vbiWxwYdAOP21/gz/si0LbmUekZSnRoPNf/+VGumBLFB5cO5/4DetKiPSnalUvQ5Nko9N0EofiOb1gmCELlK4yb9CKT73+Ss9N0Ejlo2rOW+xfv5cGc1VzuJbMDd+hYLHMsrawmMT7GHc31tjGgCIJYaiZtq+qlPa6CWyYIMkFwq1ecJo3JBEEmCO41RQe7Pv8/rv3DW1hsZgw2J10BE3nzmRE8ctmLxNz+FK//9UoilUaWPnojb6nmMvObv7FUNQb/zlKMg0YxIjKKsy6/iYWjw1ly+Sj+1ZjOrOEavn13Jd4zz8XXP4KMTa9y+M5vuwlC1atMmP4fLv3Pcq4b44s4Vq/mu/e58M/LuWfXCi6TCYJbVCzGRrFFudj62p3XiREEcSiI2P9f2mtaHKqjRPUjhSY9J4P9VKf7slGS2GpZrBOOl2sQJDjlZY7yMsef8quB+Hu5BuFk1SC4aK0pIDe/nPyPnuAfGxrISE+gsaqO4KHDsB0+RMrNT/FY+l4uu/pFSI+laq+FlHQ7e3aV4Z0+hCRvD3yGncMTd1/AupunsyLzFi7y2s1f/rWaixcvY0z5+zzwf+8z7rktvH5pEsry15k0/iHM8SkE6bqXLNhNzRQ2RvJc/koukfMLbnFRMbteUFxGZsrRPVPc0fAJEQRD/hc8v6KFy66/gpi6pfzzKydX3HQFif7Hn4/QUvQti9/LZuzV1zM7IQDXcXmo47vfF4Ig1SCIA4/85RoEmSDI+yDI+yC4IwSeXm2c7H0QemoAjHlZbGnQkBzpQ1WLg5QhiXQczsccnEyKbyNbs0oJiAuizeRPepyLw4WlNLaZsTtcaCJTmToikcY931Hjl4B/YxEHjCpGjh9FR84WcoxqRk+cQVqoBsxlZG05BD6+aI5ssuS0WTB2eJA+czzRv9yROqeX4n9mb8TYKDYRFKc6uvPqB0FwYaorI7+sFmNDLv968lNm3XIbvsvvY3HnLP72h0UEacKYMeHImfGNW7lx7iWsCz2PpX8/g3ceeIHEh97m95Oj+G9LX/tCEMQGMQUl5aQmxEkVsT2XnGKQUwzudIrTpS05xSCnGE4XW+xzP6TTWOW6gj7j5aYbxYmYe/MKGTMsw00tdjfTD4Lg4OBXb3DHg89xuK1nP3Q1+tBQ9Co77QYjjsQr2LvkZvaufodHHnyaPd5j+duDf2RyuIG3/3QXS81DePT5p7hmUsIPtgbuC0Fwdw2COBi515RdNuorqukKiiHOp4fWunBJB/b2XC46jK2YXF6EenRQY1IRHOyPZw/jcTnoMHViO3LksnjKU+eFXZx77u2No62JTm0ggd4e/doa+aTvpNjRzL4KCympkfRsXPz91JDL1kVDiwmfkEBszY24vAPw13kekcOFrbODDpvzCFAuFJ46POwdODx0eDvaaejyJChAbO/aP/t1906Kx+u8k/KCKjzjE4noyYWKbbTFtsK9KrdjaG7FpgvE19aKweVFsJ+3tEOcdLlsmIxdOHofUOCpUWOxONDrvehobQFvf/Sa/m/X616C8D1bNtawr15FelIYPfvZfV/nzs52qlutBIXoMbe2oQsIxNvjmA15LR20WbqP5hWXUu2B0mHFofHGmy4MZid+fnrU/dwMR04xnKwUQ/98T7574CDQXYPQfYS7O69+EASwm4tZfNefeb+gFR+1C1OnnoW3nom23khVQT6KC//BYylV3HvD1Xx8wEhw3GAifD27VxzY2igrqaYzYQEffvUyk3yOHyn6QhBEDUJFTR2xkeGo1UcD1QnNILgc1B0+SH5VGwq1GiVW6g5X0hUaR7yPCpfTIZ3XHZY5kaGhR4K7y07x7ixynYM4J/Aw7+V6Me+s8YT2jHqOdgr3H6KspgabdyDK9g5CJkzEszAbRXQMLduz0Uw6k/HR3r8oQbC3N5GTdwiDDdTiMBxTI7vLusjIiEGLE4fDDupgho9PI/BIcLe3VLJ8w0EyF0yj+dsVOJKnMjEp5MhskJPG4nxyK2pos2nxVXZiCB3FaI9SSh3BDDLsZ7dmBPPHxPZ7SZNbCYK9g0P5Byk3iHPoVShcHZTmlqNJSiFS7CrndGB3KEgYPo6EnnSZ3cj2dZtoSprOKMM2tlljmT8+Ba+eQc/Wwr6dhVQb2/Dw0dPVYCJh/FAaD5WTNDyKgo25RE+eQWpQ/7cHdidBsDZVsCWvApdK3V0vZKhid62KIakReAqd2+14BcUyNCMO7yOuaanI4T8bm5m3cAh5m7JJmzyNxMCjRVC26oNsKqzF7FDj72nB5BFDko+RPHsEE3UV7G4NYdqYJHT9ZIUyQRj4BOE4Iv4zRyynw4Hyv53v8DPb/XmPH5XQ5XDgQMTSXy5fIvZBKCqtIC1x0M8T63tP94sgYD/M4wvP4+WOoVyYZGHNmkJmX5PM7m0d+NjNBN//Ge+foacxdxMfrtuDxdkNYs+Mk9PWiS18Mr+/eib6731V9IUgCJZksdqk/dmPzb+eEEHAhd3STuGuXeyuNqDAianViMPHDz8PBS6VnqGTR5MaHIBWLWYOOlH5aKjO2UqeI46zQspZsk/L3AXDoMWCb4gvKmsnBnMHh7asw5I0AcXBHDpHjCWypRqzoYHsFj2zxqYxKCYIseV5Xy93zyCIgbCr6TBrNuynXXTC1kFdm4OQYL10YIsqNIWzxiXho9OgsnfS0qHC39nIFxsKGL5gCk3rV+JImsq4CBXNTh9CvJwYjR20FW9ntyWODFU531rSmBPWRn27gaK8VhInjSAzPgY/z34I7u6zGFxOrF2t5GzYzMF2OwrsGOrbUAcHISaNnOpAJswaR7yPF54qF+0tZjR+sG9dFk0p0xhh2MEuSwxzxkRjbnXgF+wDne00G83k7t1HWGoK5d9uw3fGJLSNzShM5RzojGb6uFRiQ7qx7c/lToLgstvoqD/I6qxDdAgVWNqpMykJDfJG6XKhiR3JgpEx6LQeKG1mjFZPvA2FvLKhiYVnZ3Igaw+ZE6cQ7dFFu8oXf61LmjWsKS+k1OLHSN961h3SMTrZixqTg86SItRp45mYEoVPP2dPZIJw+hIEa10xS9blMOfcs/ExFfHph1/hOeUSLh8Tf9S09z3Fozsm8adJ9dz0mZbFD86j97vW3sGOzZvwHTye1HANa95+gYaYMzl/Tgb63kJ3A8se+weKhX/gvPR2nrnjNcY//k8mBwoPcmFsKKe82oCz934XVmzCsC4AACAASURBVFUAQzPj0PyUgzmb2PzFWko79QyfM5j81z8it1O06sO4G//IwhgVpj1reLkhlZsyLSx9713KzUrEqzqd/px189VMD/Vg9bKP8R+3iAmJATTv38xbeWZuv2gOWmlq0Un9Fy/yRfz13DRcByWfcd+aWB69bTTHzSM6m/jkwSewXvIAl2Uec+Ceq4vqQ4dp6rQdJ43LqUQfFcOgUP8fpOnF2NhlseKl/UkEfgqh435/QgThmQo9o0PtHDjQzgU3p7BzSxe+dBL2wKe8NysAw9oXGHXZYygGJ9Lz8e2wtlJojuPtD9/k3OE/PLO6LwRBHPlaeLicFHfVILg62b/uG/br0xgbbKd0fyHmhHQyvawUFlYRM3UKwwN0OFrKWLZiDzELFhBeuZN8eywLQiv4aJ+GWVODWbtkE1FnXcIoVSXbDhRRUVaHV2QEtvoGHIMyGappJ+9wEyFJ8UQERJCaGt37ldYXbbmbIEjvNBTxxod5ZM4aRmB7NWsPmJkyKRllQxnbjKFcNy8TNQ5qdn7NB+Uh3HBGBBuyChg2fwrNG1bhSJxEcss2lpQGceHsRIr25VFVUUa7NoxARzNljigmpHtTV1SGMTCWtLAABienEHKkkrkvcot73DqDIBp0Gdn84Rc0J08iza+D3Kw8tGPHkqhoYce+FiZePIfBarDX5PDyskJmXjmXzh3baEqZwgjDTrIt0cxM7GTppwcZed55RLceYGNBFc1NJvxC/DCU1aLPHMEgRRM7i9pJHjqYmKg4kqOD8OgfN8KdBEHCu3E3761tImN8Ej7Nh/i62INp4+Kwl+eSxTBuOyMelcvG4XVLyVKPZlGynbc3NnH2wkwObN5L5oQJsG8VWWRw9uRICtbvpKi5GYvKh2C1iUqTjrSUGGwVeRSpYhmeEEFmagIBXt0nMvb1OlUE4dh0+fH/7TruA+TY1Iv4b/HFI6ny++movgr4P+472UWKPUeke3qeyEFJLgo2f8S2Wh0xkalkxitZ9cWntNXUYzzzbzw4KRCFpZ73b7wN2wNvkPbtC/zHbw5/myxOoFXiFRxGiGcnqz/7CGX4BNKSIila9SYlbQp2+s9i8dXDpXRty571rDtURVlpMyH2Yr5VzOCmeZmMHJmKj8JFQ/FOtu0px9pb6+DCoU9i4bwRR4nIj2LcQVleIdvWbKRrfizFr5Rx2R8vwPDxa3wx60GeHKEBSx0r//kYB6LPJdDHwGTLFp43X8R8rwI0k89guDmbJ55ZjmdsPDqVAm1wGEHhsUwelkpAUAh6RQcFi//Ou0lXMqzkC/bl7yGrPJgJo1JYcP11LEiws31rKWaHFVdHEV8uL2PUBXOI9fJE4xfLyOEhHN60hdzqBrKzsggdP4t4byUuPIkdPobRSZHHEw1pl2E7+/KKGD0s3Q1WeLSJEyII/26OZ26slc1bqlhwQzr7dnShsxoJOUIQ2te9yNDffcKfczdwS3D3d1Nb5aecc9E73LX4Vc4dfvTI4p6u9IUgiIHS0G7CX+/jnp0U7SZyd+4iv9mGRmWntbYJW2AIIRoldocnyRPHMTRIB04z+9auIls/jqneZRSKGQSJIHgyNsnFyhwHl1w4iZCuFvJLCtm7s5SgzCS6iivQT55IbHsN2bnVRA9PJz44nOgQn/9aqPljmj0ZBMHWeIgVmwrByxOFxUhxvZX42GDUTjtW/SDOmpqGTpzE1lLAO0v3MnzORMoOFDP8zCMEYdBwnDmbqUmay3nDfKgpKiVv704MwelEdlWQ7zeaMyM6KThwkObQVMbGhhAZFXJ0ar6PZux2gmBtYdu3W6lyeOKpsFJfVo9HdDQBahdWh46RsyeTKPIHDgNZSz6mdchsQusKaE2deoQgRDJMUcyKukguPWsEfu217Cos5FBxG1FJYdTsPkzs3KmEGsr4Zk8LI6YOJSE0jFA/r36llQQ87iUILixVOazcWY1C64Gio4niFhWDogNQOmw4gzNYMD5eSgE56rL5cGMLE4aHsya75ShBGJNG0dr1eE44hymD9TQX55F9sBiTNow4jybyjeFMGBpM84Ht7FemMGNYLLHhwWhPuxSDC1NzNXmHDcQOzSDI3srBgjI8YtNJ9XNQXFCE2X8QI2L9sRkb2V9YgTZ+COm+VgoLDtHiHce4Qd7UHCqizB7I2Myon/5y7aO9n2yCsGfPHr766ismTpzI5MmT8erPcemOShbf9RBVgfE4VRpCA3WUFhWTNmYU/vFTuHhCMAc+f4nrnqvkH68uYseyLzhQrOXCK2bg7VITNnwcI0OcrPzwDaqtfjRVtmE3FuOZPAa10cb0K69ndLiCgn/ewmPOISRX51MaGsUIvZZGVwA33nUt0R0V5BTUY/9BIaQLj4B4MgaH/GDwPP4z3My2L79kV14tIYsm4LUpn8MtDXh7hxF59u9Y4G8ge892co0RzE9Q8fHqr1A25vCt/QzG+nUx7PILSDiwhvd3NzM4Mx5jQSntng6igxUs3+HN3XcvIkHVSNbip1iduIiZnrVUF2zkq4JQxqT7Mu3iO7lgmJKcbbtZuWojuslnMdHfwtZv1lIXMYGLZownPSVK8kOLsYCn/rqYyNnziMCMbvB0pqQH/9c4Iq3wazUSHOTfR0vr2239JgiPLbyAD9L+yktp2fzxsdVMf+9DZuW+z7OvrSHiqW94b5Y/beteZORlTxM6dQLxR4iqvbOGzYd1LH5XzCCcGEEQqxiKDpeTPMhNqxgsbeTmF9Pc6UCJjbrSKixhscTpoK2xGY+MycxNFIC7MOdv5LUdVkZlamlTHCEIe+yEenfSFDaOi4YGgdVMafYG1jVHMG9MNCqbE42Xk/qKKnIKaglLH0xMaAyJkf79mm52P0FwYa4uYWdpk3TolaKjkexSC0MyotHYTBTXqZl7wVQiBbdzmtn+8RLqQkdgM7Yx6ghBsPiGUVDYypSL5pHiZae1bD9fflfH8NmjCVU6cWg02BqqKcw/RHNQAiOiQolLiJKm8vtzuZ0gmOvZtq8Uq0KJkk7KDlTgmZJMpKedxopGgqafxbRwMRHoxLjzSz6tDyBS2Ykz4whBMHuhqizHMXohCxJ10NlG7uavOeiZxoSUYBRWFwq1jdaqUjbubyVjXBoJUdFEB3r3ixSeDILQVrKfPbWd3To3VpFdo2ZYajgeXa0UNPpx3qLxBIvUn9PI15+uRh8Zxe4yO+ccmUFIifTk6xw7Z10ykxgNmOoOsX5rIZFDRxHprcDhUGLrMlCTt5sDikFMSo8lMS4CnUf/qhRP/gyCk7qibD7fUMbYyxaR2lnKVyuyUE84j3OibXy7chU1MdO4dlIc5uoCPlm1Fa+Ji1gU08HaVV9T6D+R22aGsHvd12wxx3HjhWPx7efs0I/5wMkmCO3t7Wzbto2lS5dSW1vL73//e2bPno1SqaB291peev9LGjt6io2P9tIzZQ5P3DqH2j1b+XhbBeddsgBqSlm7cTORyQm0lncxcdF0SrdtYcun20i5cCihIRF8+9Jqhp4/Dd+AOGZOHIFrz/vc+8Y6dMGpjDr3QvRFK3HpAvlut5K7/34lcVoXhf+6i8UxZzHy8A7yogczzV9LXqWRS265mmhjIVm7K7G15vDqeg/OHm+hvjWUYUOi0ISmMX5IFP9zvspRygsPf8KE669g0IH3uXNNGxrDYfzDA2nwOZ83H5iEsXYdd/29jaf+lM5HK1bi5aOnw+WLuaaBoVdewcyALt575hmKw4ej27oT33PGMcnVzssNZ/LeXalSurrqxT/ysGIevxvugaNkLc9nxTI5uoLQ6bdy1bRgPn/qYb47rGHsffexSF3Nq2+/R32tFzMevY9Zft3GZC5/i+eW+nH5FeNRr3uIF9R/4R+XD/6vcUSMjTl5hYz+5VYxiHmMcl68/nZWZvyBm1Qf8sinVh76YjGaV67l3pVO/rj0Ha6K86Jt+1Ku//sSvJMSCDgSG5w2I8Wtvtz70P1MTQ75gX/0ZQZBVDSIqRRxUNOx/ngiNQiiKj9352YKmiwoJTbqwNDQgt0/iGBPMLW0YPb0ZVDKKGaNisHDeIiPlmWjjgpDEzRYmkF4b0MTLj89E+dMI0mnxtHRwIav1pLfpSciwBNbl5KUGZNJcjaxfmsxg6eOI17riZdO269qfvcSBBet1cVs21tEp/MIitZ2DjfaiYkKkFYeVNZ1EDYomlFjppAcrKZp51esq/LEggdTz5pCy4blFLepMIcM4aoZiagcnZRsXsfnBe1EhwegtlvwSJzIzEEqCrbvpCZqFDPjfNB66fDsLf/vG01wJ0GwGxvYtmsvdWZBCMVlo6GyEc/ISPylGaRGbEGRjBg2mjFJIahacvj421IULg98xk6XZhCyig00OgI5Z9E0olQubMZyvvp4LQ26cIJ9VHR1eDBy9kSiOsr4eH0d084eT6SXBp3W85cjCC47NQU5bC2qOzp13tXC4VYVsRF+qKxGSuusDMpMZ8roEYT5KDj43SpKu5QUNulYdHYmuVnbcJnaaYqfweXjIlA5bbTkruejbQ34hQaixYYqNI0pQyNp2bWWLNVIzhsZho/OCw9RCNuP6+QTBMH5nVjtTjyl5dIu7DYHKhFXFC5EMbRCpUIlxQUXIrWp8vCQ9Oe02XGq1ZL/Ou127EoVnm48jfBkEwSbzUZLSwvr16/ntdde47zzzuPWW2+VYqrDapXk0RxTAC6pzeWgy+JAo7Hz9YsPsLk9kTFJHnz39U5Km40MjgvDPuQqHrtqND7KBp699h9Mf+0ZRpDPn278gFnXL8BPF0RGeiKdyx5iTdpfmXngeZ5OvYMrLSvY/OE3HDzvcRbPCcZhs1DwxoM8UaRAV11CTUAIqXo9XoNGcf0Ni4jx7P7CsO99jyu+yeShOYcoqE7mnDOH982/7IW88tdX2N2kYt6QLjYE38gk82Zi0734z7IQXnnuLDy7NnHNbVU8fGciGze8x/JcHxL8G2mzpXPO7bPo/PAF3tneSGRKCIe2lJI2ZzYJpkOUnf8k/57sRcnW5fz7kedovOAJrgrYx5aN37C6wJ9J00Zz7XXXMTRah7G+ls6Kjfzxcw9uPsPI7vo4rrtkJj7HuErLJ7/n0bJpnD06AMuKf7Fx3if8Y7bPj3qSsNNjl//3w+V+9Nb+zSD0NiOcyI5CIU7nAmtXJy6VBs0xS6D627m+EAThuOVVtUdOc/y5qxicGBuqOVTZgMUpSilt1BRX0BUZT4IOGiurcCSNZ3ZyCN5iStZlo729i9qSvb0phiW7XIycMoSkYH/UCgd1BTnsrK3H0OjHGfMTKflmNx0JYXgZ2iguayAgLpqwgAgyMxPw68e0q3sJAtitJqpKyqhut0hES2FuZPvhLoYPiUHb1cq+Uiezzp9EnBjQ1QpcXSZMbS2s23ZISjG0bFhJe0gmqYnxRPh60NVQwtq9lbiaG4iePo+g8q2s74wgTdNOTXkFBn0kiSH+JKVnEuXbv+V+7iQILoeN5upyimoN3XlkVyclOaVo0tOJ9rRSebAMnykLmBGtQ+upRuGyYDa1c2DLrt4Uw/Y2PzLTEhkc6iv9/vD2LezusKJ2RTB5bCDbl25HM3IQGkMj+w61MSg1jsjoeIYkRKDp3zjpxhSDC2ungcMHS2m2i4W7oGirZEe1mhHpEXia69hRpuP8C8cTKcirUoGtqwNrfTFvbW7pnkHIyiY+OZWgyFjCvJU42yv5avUBHN4K4tPHkGzZz8f5HqRGeWAoK6DYFUlaXBiZmalE6PtXOHVKCEJ/A9Qpuv9kEwSRYnj99deJjo5mwYIFDB069Lh07f8U09XK1i+/ptahwhGQxsIJoax6899sOOTNnNtu4awkP5Su7xGEa99g1IUz0Cl8SJ0yHt8vHuBlx3yGla5k09n/4KamN7nrPxW89P69BBqdGKoLKahqwYmL2uxdFETGMyMyVKphCEgezZTUcLC2kfXOm+wcfS0LlGs5KAjC/BQOZRcQMmIEgT8VYlztrFzyGfowb0qr2ynK2Ye/tweHon/HyzcNQ93+DZdeupox81MIc1Wyq2sU00Pz2HLAhxk3XcAE3X6evO8zLBnR1G6s44q7z2bFi+8Q/+jL3JPhS11pKTWfLmbF1L8wqX4L4doSHvnIgwsuGMqk8eOICTpSsmlvZtV9t/BMiRdX3fcEl40JP2Zm2YXp8F5yajulj9c9Tz+K6/GV3Jn632tHxCoGUZ+XnpTgVks9QYLg1j5IjfWFIHRXalrQajRuWMUA9k4Ttc0GXCLvahWDxUFMg4cxOkhFc1U1XeEZjIvWUldeTEldOwoVtNSW0+gMINXHQE6NmsTUKLxcTjx8I0mJD0TVXsjHXxbiF+tHW6WZ5IvOY5KqkVUbCkidO5XBvZsm9B1DdxMEYXBtjY20WJwoHXachkpW5HRwxhmZ+FrayCvrYsT04QSZm9lfVIrZrkBpMZJ3uJHo1EGYSgpwBg0iJkCLU6EiKjaeAB8be79YSZVfNF7tdbQlLeCa0V7kfZdFRdwkFiSc2PpcdxIEgbjF2EK1oUPax8DlMLJ3wwF0EyeT4WOn5lAF6oyJjAywUFJwiGqTDbXCStWhMjpDBxHRVUW1zY/BMYEoneAXEUd8oBa7IZfl62vwC9NSd8jMpGsuINNSwpura5h/6fTuVM0JXG6tQXDZaKquw+RS4nI6UTQe5KtDGuZOTUZnbmBPhZIpM4fg01rJ9sJaFGoVivZ6tpd0kJkWRk15DeEx8fhplTg99KQlRaOwuyjZuZbCTj3+jiaafEdy8awUWrcs5xvVeK6YEN63r7rvYSMThJO3isFgMGAymYiKijouhvbJPDsP8OLDb1OrjyR51HiSrQf4ZNlaDsVdzHNjG8hLvp6zU0zHzyDcupyrHr6SQNToQ4Jo/+BPvOd/HTPNG/mi3oDapifK1cJBRzvB/gu56/JMjB1WxK4dJevWsHNQJpcmigOIFHjqAwminuVLlrDXlc7t152F4cBHfLS8msExHazfH8aDz9xMrCOX/7zZwHW3nPFfxarZ/jFPrzzM3HHpmI31bM7ajqdWyZ76NF58+26SGr/l7sXVZAaX4j/8QkZEe9DWUsTnH+9kzI03MicGDu7IJzdnFa99q2JamgeRGUnU79hDxIV3c8PUWEpf+AuvJF1I0JrXaVAY2d82gWtmB6GKHsPFowPYtXUz32zYQVvoSGZn+rB3YxbNPoOYMmMOo0PNfPPNZin13X3Z2ffu+yguvIoR8Zlcfc5UvL+3MqhnjyBvXc9ONn3S6E/eNKAIgtVmI7eghMzUwXh6HM00nUiK4ThkXDb2rPmEdSVKpl52PhMCj2FpTiulubvZXdyEU3XspklHW3A5nHiFpTB9Qgr6lv0s2djBzPmJHF6/B9fEmUzyaGLVdwdJnDuN5NOCIBztu6Eyj+WrsqgPGs2tF4w+bnWFraWajTtzaO5ySst8fnC5kIqV0keNJzPcxqZlG/GbPoeg8u1sYBhXjNKRu3Ez5TGTWJh4ehCEHhlEuuGb1avZ16xnwVXnMsT7mM97m5G927MpbDJLudn/JrrTqSA8aRjjM6JRVO/g62JvJo4JZOcnO4k6fyGZ1hLeWlvN7EtmEHM6EIQewV12qvZv44usXNRJM7h6Tupxe1NYqgv4cmeRtC36f9W504XLO5hJ40ZKs0F7szagGjSKZEsuyytDOGt6Mi1bvmS9ehyXj4/sV61NTxdlgnDyCMJPjgj/8wYL7e1O9Hotrd+8zOM5Edx+02xalv2L+1e6eOTNvzPWp5VP/vkJw/58E8muw7z07D4u/uMF3bUt37scTbUYAyIIULaz49VnqZh0FxcO8T1yl5OitavYHjeUK1Nje5901H/Lx5s0zD13MoEe4OxqpyAnmzKzL6MnjyRULKOu28DrOwZzwzlHnzv21S1FOyhVxhJUu4tsRxTjh6YSGaCjZcd6mjJmkCqtwbdzKHsvvkPGEKaBTmM1+w82kj58CHqNCkw1rPvuIKG+FeTbJnP+GUloLBVUtoUT1rCOW5/fzcIr09HpJjIxrFkiA9VtNsLHzOP8jFaef/JrMi+9mhkp4d1+ZjeSs/ID1lknccf5GVJ6S638Pmgi3eWU9gD6fo2mqEHYsTeXyWOG/zwVf+/pAUUQxJd0m9GEn6+bVjEcA0aXyUAHWgJ8tP2uNj+ebDhxOEEpCsF6fuGwYTR14eGr50QOL3P/DMLRHot90Q3tnXj5+uHVj7THf2MLzm7BjxlYnHSaTFg9fPDr7/z6kRe4ewaht99OO0ajCafWG39t/5bh/ZAoOXG4kKZqe3Vus9DSbsU7QN+vPS+ObdutMwjHNOzoMtPc4cDf3/foLqAnGFacTgcKxfEBy2pqw6TwItD7RJbSgUwQTleCcIJGIj920hEQhyc2txoICQxw67sGFEEQLKmkrIrB8dF4qOWzGOTTHOXTHN0aDU6TxmSCIBOE08QUB0w3xGmOuYUlDE8/chaSm3o+oAiCkFl8TYsvtWOvn51icBOYJ6uZkzmDcLL67K52T9oMgrs6eBLbOVkzCCexy25pWiYIA58gSBtKicoB+eAmt/hEXxoRJMHd2z0PKILQfRZDLbGRET//LIa+IH6a3CMThCLmTJvYqw3hCKLae2iqPINwmpioW7shE4RfiiDYqdm/gwO17ZjazXj7+6Fsr8cWPo4zxieipZPyAznsLyjCEDKG1JoPWW8axbRxaaQNScZP5aKjqYaKpnZMVXl8sGwTQy+7igmhOhRaP+Kjw1DbOjDZnCgatvPEs1lMvPkmJsXppWJWtcYHncjv2xv59ImXCLjqL8yM1mKsX82KjUFccNFYaUMqY+EO3t5t4LoL52Ct2MuyHdVccMECAo+kMS0FS7j9TS2P3j+WQzvz6FKqsDhcJKaPJjUmAFNVLkvW5jBlzjwsW95nqyUYv6562jNv5OZJPmBpZNVDD5A78WaujSnj3mUWrp8fQqcmhomjU47W7NjyuO/C11i09DlG9e6d78TUVEdNUxMddj0BOgt1y19nsf+l3DMxiJjYOHy1sGPZmzQlnck86yruW2EiXNWB15nXcMvoH+4R1BfnEjHx0C9+FkNfenqC9/RlFYMYKNtN3SdWieKxnkueQZCPez5BszutH5NnEOTjnk+tgToxVJZQWJbPitX7mX7+WDY//TZRdz/LNWIJntPIgZVf8NEBA6NCOli1vYYgrw72t4dw4x9/zzlDg9n3zqusjcpkskaBxdBMq6c/4R5m9ha3sfC88/Cr2cw3hY20tnah6SrjUKs/MXHBBPnoiB4xmwmJfjSueYyH8mfwz7sm46uE1pqlfLI2iquvnoyH08Dn/36arSYdyRlnMFS5gY92OBk7NBJ9ypmcNVTBimdeoWrmWYTtXklWfShXnjeekvzv8Aqfz5nTEjm88V2216mpqvYgvnUz9kv+zIyi17m77S4+ulzJ7i/e5j/FAYz2KsJotbO1ahDXLhiEV3AMI4ek4OVsYf/23TSYK3jnmW+Zeusigu027BFjuHRqPM0VxRxYuZjXKzMZ7jpAyf697NalkKS1M+mKB7htbiKGioMcbNeStPM5Xoh7jFusq3jVewIPTfnvhZU/ZQeiBsHQZiTQ3++nbu3X7wfUDILYCKKo1I07KfYLql/uZnkGQZ5B6LG+wpIyRC1ORvLgX+30rTyD8EvNIHRbmbFmJY+/kMfkuFYe3+7LbRdOYsbUyURq8njtgVdZW9ZMzOSzWZgUjMITrLaDLFkTzmvPX0DV11+T7WzB3iwWJnZfKrWLTo8I5s+YRKjOTknWZ/zfKgP3PnwNfuXbeeaFrxh659+4KCUIbdsu7rn8dkqn3sGorkN0KhR0mQopKvVhytV38ocFIbz1wueMu2Q4rz6wFL2vP/PuvpMh1e/w2N753DMsh5ufXEFcuIvIMWdj2r8DVaA/jcYWpi+8g0WTbfz1nJvJ9Ulm/M2/Z2zWe3Td8jjzc5/lioobWHJRB1++vYRcu55ovZKO5nxW7Q3kvIneHDT5c/vNVxGlaSVvdy6dijoWP7mP25+7k0HGTdzxlg8fPr0AXAY+/+u/sN52L7PUFoxfvcgTgb9jbuNKfCddw5i6D3h0s5lZo6L56uN8rnzlETIPreGexV8ScsbvefDC9H4vDxaz6/sPFjFySJpbB6oBRRCk/aYFS/Lzdc9ZDG6F8uQ1JhMEmSDIBKGD7P35jBuRiZe2/0dnnzzvdG/LJ3ujpJ/urYvaVfdyw7s2LrrsAtK0+1n6nYtbHryVwVqxHfNn3PPvzVx57/W0Ll1MVgsonLXs7jiX9W9dgRYXLdmr2GlSsXN9NiMnTyTQz4/Y5EyiAjSYK7N4/pUVdHgmcvkfr8aatYTvDjfQ2JXBvXdNYc+SJVQ0ZpMT+yjXxJXiGTuEEMdKPlkbzbXXTEJpr+HFB18gfGoin35o4uEHJlLXqGG8x9fcl72Qp66JoKZ4Pf9+q5ob7hrFl5/XcMN1cziY/Skm5WRmT42lOvs7lm2rYOrsOTR9/hJNC25hcsn7PNJ5G/+5TM/BNx7l9u2NRDssDJuQSVujnnEjIwhKGM7I5MjeQ9dcDcu55K8W3nntQrRFH3PRO2F8/H/ToC6bf760nMrCMryHRWHcuoXdPhnMGDOW66++nORgT/Zs/YDGUhcFDY04Vd74a6w0h07iD+eNOKGlwWKMaGhuJTwk6KdV3I87BhRBEHmWypp6YiLDjivGkFMMcoqhHzY/YG6VUwxyiuGUG6vhAM//7W0C50+nIr8Y34bDBF/yEBePDEZpb+CL/7ufpfV+jBw9ivCOOooazcRGKskzT+XJu6fggYvq52/gwxF3E5C9HHXYIPQ6b6LSRjAyJQqV00pHZycNWz7h2WyI9zQw8aIbmRDXvf+B2BFQsfqv3GP7E7cHfcO7FTHcNrOSz44hCIsfe52EuWl88Ho9zzy1kK+XbSQ9oph3aq/m2YvhPw8/zuawUL+tsQAAIABJREFUiZw72Mm2va2MHZNEVWU+CUMvZuH0QWxafC9f1oSQmjKcjMhy1qwrwmDSMOMPf+P8BA8K3/wn9xTZSbS2kRCvZXOOnjkTQvBPmcC8iRnopH1NbBS9/y+e0l/Hq+eEw953uHDdKJb9ORNn/X6WbD1EyeosvNNCaNu1mY2+Y5mbGs/8C85jZIw/u7e8R31TIomD6ln6QT6BIUqMQ8/nL3OST2iZvcCtuLxKOunYndeAIghOpwuT2YyPt1yDIIxAXuYoFym6MxicLm3JKYZfJsVgqc/j9adfp3PBn7ghvoonH3ua7aVabnv5Bc5L9kdhyOGr5QVUoiamLId9oSq8nGMYPl7F7jc2MeXRvzPRu5hHzr+arkv+RpSpiunzziTcV4dG54OPzrN38LNVbeTua/5KRfJcHn7oj4wIPboDoHPl/dxju4+nFyipabWjta9h2TEE4d1X1jDr+jE8/YdNPLz4FtRtRhy7/80DpVfx/O+CqK6qp9NcT3HuHr6rDOEP155B4Z7lWLTTmDM1AWN1CYeKcsna1UZK3CEKlWczoelLXvG+iv9cOZjit57nOZ8MJpuKsXXVsLF6DA/dPgGnqR2vsCgi9F50le/kyQ/ypFmQBI0C5+bXuDB/AZ/eGAU2A9/+/ToebJ3PY+fHY9r4Me+GnMdNab7EDR1CUogvu1Y8yovLlNz1/O9xfPUw96315umn72VoqO6E3FCsGjEY2wnw69lo6oSa+cFDA4ogiBmE6roGosJDj5tB+OqbjYwakk5oUKB7UDnNWhHTR3tzCwgLCSI+JrK3d4IgNLe2MmpoxmnWY/d1RyxzzCssYe7041cxZO3cS0ZygjR9+Wu9tu/Zj7+fnsyUxF4RRQ2CxWolLTHh11uDYGxnw9adnD3nezMIOXmMGpaBl6Z/ZzsMJPvYkp1DcIA/GSnu3VP/pzFw0py/k+/KG2g7sI2sYjvn3vkHzg6r4olHFlMWPpNn7rkUr7YyPli9kv25Ws6bVEdWwxDslRXMuTgdpzKR+hVvsnnsHcw9+CRPr6pi5PhRhPl7YXf6MvHic0hoyObTz1exvtjFovseYozha55ZvBxbzDAWXXkdZyQH4Fz1V/5iv5d/na0XR4ayM3sp2VUTuOmKsSjs1fzrlntoCgviQFUaS9++Ga2pjbIPHub1yId5NKOI5//9KvsMPgxL9eNQhYOJoxNpqs6n3Ws8f7s5lseve4KmpEmcOd6XdSuauOW5v5CmOsxTVzxM8nNvkLr+bb6cchFDv32DerWCbZtayRgRRHFFJ5fecgvDvWt4+dklxF18C+cPiaQmfyNfvvUZBWc+wvMzAzAf+pYHFu9nXLqZPeVqkgMVGGPHM9K3C0dYBrOGxlC4+VPyap00FW5lf2css4b78fXqHYRPuYRbrppBSD/PbREzCKWVNSTGi22p3XcNKILgcDppam4lOCgA1TF7IXy6ej2+3jp8vE+MfbkPzpPTkmCHYpesoWlJxEUfQxDKKvl/9s4DPKqi+/+fbdnd9N5ISIEkhN57712qKIJiA2yg2F7bHytiQdRXXxuCBUVAioBU6b33EgJJSO9ls9lsv/9n7oYmoL7+YuF153l4lt3cOzPne86Z+d65M+ecOZdOUEDt5gD/Y6T4fbVWVlVhtdoY3LvrpQqEM6zbulvOyaHX/e9OFnkFRSTVj5U3JF4sgiCcz8gioJZ3K/8+7fwxd1WbLbK9D+3bHa2HK8qlscokJ6/S63W1ftb7j5Hi99WalZNH4wYJNEz8swlCTX8NqWw+UEmTDs0J1rtmKafZQEZBFXWjw1FXl3EsvZi4xAQ0VRkcOnQee3gDOjeKAmMhh9MMNG1SH43CidlQQnZ2HuVGExa8SGqchCZrFztyfWnfvglBepdunVUFHNy+H4+W/WgWqkE6t4VNzvb0StRBxQkWLDpCYv9htIr2RpKqyc4oJiQ2HGuFFW8/Fam7N7I9XU3fUf2ItpZwzqCgXqQ/ptJ8iirMuCIygKT2IjYqGMmpQMTZKzm0iSO+HehVEwbenH6S4tBkfIvSyA2JQZd2DHVUIvryLDIr7PiGRRETHoglYxeHyyJo0yIOrUKiJPskJzMlmrVthJ/aSeHZFAoDYmkcrKU0K5XjZ9IoNZpxONWEN2tP54QwOUuoIe04e8v96NIixnV0srqIM9k26iVE/nLK6uuYlniIzC0oIipC1F175aYiCGKnZlZeAdERYVfFQSgsKUW8fvifLpIkP02KSfFiMZnNGCqr/qfFFsKpVMqrQoi6CFMFYkXpf7pIknyk98oELOL9razz/+kANBIKhZKQoICaVOyud9PlBqN8guN/ulxH5//T8rqFqxUEHA4n5y5k/fl7EMRgfDEqVq1IcoNKRByEyZMnc/bs2Rs2I1YQikpKCQkMlCcNd3Ej4EbAjYAbATcC/3QExApCTl4h0XXCaxWKX1xBMBgMrFy5kqysrFpt9HqVnTlzhrVr15Kfn/+LBEEsu0aEBssbMsTTdGWVCW9PPSLTo/gulidFtiu73S5nfBQBJMTqjSAXguioVCr5U+RyEKmjXZ9W+fWE+C6WrEVCKPHkVmWqJsDfV04eI57i5GQYQQFysCbxmV9YjK+PF8WlFZf6JK4vKCyRn/YrKo3ysZOS8gp8vb0oKColKMAPo8kkvxYoqzDgpdfL14m/m80WuR0hk1brgdVqlY90iacm8UrFarfLT1TinwhhKv65/qaSPz31WlkWDw8PqqpMcl3iu+ijkMlTr6OsopLgQD95yTYwwJ+CohK5bfF7WEigLKu/r4/8e2CA3yUZikvLZUwKi0sIDgyoud+P0rIKuR1DpRF/P195h7L4frE9GVvRD6sVtVqNxSI+VWKFTSZ5Qj/CuMWpaaEXDw81It6FCBlaLetDJ79i8PYSbVSh02mpNFbJm3Gqqqvx8/GhuLRMlkHgKPQiZPD18Zb7KnAW14cGB1JUUibLID5Dg4Ueq+Slelk2L09ZBoGJ+F20V1ZuwLtGLz7enpiqzbJNiU+d1kO2KWE/wtZE/4UsIoCX0JX4m6wfmw2th4e82iHss8pkkr8L2/Lz9ZHxErYn2hJ9E7oXNiJk8Pb2dL1SC3T1Vcgg9CKuKyktJzQkUMZE2FxhcSl+Pt6XMBD4i3qFzYrfRZ+FTQrbFbYl+uGp18v9E7KYzVbZN0Q/NRo1iAcDObS50I/4TSPryUOtxmS24KFx+Y3oi1jJ8tTpqDBU3thvhAxVV/qNt9y38BCXL1/rN8GUlJfj6+WFWCEUAWAEZoH+vpQZKuX2BCaifeG3QhbhV1qNRrYfIaOQRalQXlppkh8qauzOYrXJdijGDeGDog6hF9FHYQvVZrNsW2UGl48K/YhXm+KVl7CpAtn3vWW/CQ8JlD8FvmJMEPqrqKySfd/lN56yfmS/MZlkWa72G2EHQgadbIPiNYrwfSGTsH3Rb9FPoR9R5FDzEi75lApZL6Lv4lohkxgDRV1Cxot+I49rlUbX+FNVLft4UWkpvt4umwkNCpBxFd8v+o3B6JJB9F3gLPxMJAMSGAn/Ky677DeiXvG7jJWhUm5X2JSw4epqi2xTYnzz8NDI6cbFWCBWhF1W5grJLHxe+JJCjHVW13guj2vC500mdB4eGE2uvgu/8fHyujS2CrsW45rQg8Bb+Ph1/aasnNDgIBlnIYOwLeEf4rs8dlQa5fFKrFCK3wWWQs9ivBSvu4QfCf3YbXZZFrEfSOhD6EDIJMSRJDHXgN3pcM1BDqd8rTx+eGiorjbLdYrvQk/C/sX45bJvP0orKvD29JR9PCQ4AKEHsb9O2JaPj5dsO5f8xs+XguISua/C1q7co1Ybk/ZvIgjZ2dm10dav1qHT6Zg6deoNrxNKEIOKGMSFwwqjl43S8+JAJwiCucb4riUIYrATDnQlQbg4aYnBVBiDXq+VB13x3VRDEITRCaMRigkO9MdQ5VJYXg1BuEph/r7kF5YQcCVBKKuQJ+nLBKFadlQhg2sydU1oYpASDiYTBOHwNpu8IcvmsMtGKAY+MSCIQU+sMLsmILs8cNjsNtnYriUILgMXE4YwbBFtS2yCkieiwCsJgkHeBHmJIBSXyJOncBwxSBTVTMKFxcLx/G9IEMSkLbC62N7FgU44khgA5M+aRFtiIhWTqlgeE7IIxxIOdIkgyPq4giAYq+RBQziMiIVxcZItKXVN/FcTBBcREA4nrg+7giBcHOiEHsXfi0tcg7iLIPjJk6gY4ErFpO3lmoB+ThDEBCTsURAE17K3i+BcRRBQ1BBXD3kwFORG9FkMNDcmCK4J6DJBKHfZXI0M+TWETviBIAw/JwhCBjGRXSQIQlYxoArbFllQxaR6kaAIe7GJfmk1VNcQBLGUfzVBcF6SU+jqSmJdLcinTJzEhOQi1oJQXfYbg2ugq8kyd6XfiAHt5wThot8IGcJCguW/y8S62EWsf04QBCYysbaIyVR3iSBYbXaZ9LgmUOUlAnc1QXDZ4fUIgvyw8DOCIGwhJEiQx2v9RvjHZYIgiLWvrJcr/UbYotDrNQTBWIW/78XJwkW0L9r8xUleJghi8hcEQXGRIEiX5BNkVEyeQhZxjSBwXjJBsMpkR5CV6xOEy8RaJgiXiLUL7+sRBHnSFX7j53eZIAh/9Pd1+Y2nXq5HJgji4eAiQVCrasYmQRBc4/AlgiDVEISa3xRKRQ1B8KghCDW6vYIgiHFGkMeLD1/CroWfiIcuYYM3JNY3IgjGKkIC/eXXWKLvNyIIVWJS12nlvssEwWKVM/fKBEHlSiDoIghCP67xTPiUi1y4CNLPCcKVxPoqglDzQCpsSfj6decbP1/ERu6L5F88PNdm+dU9CK6nuz+v/DwR05/XsrslNwJuBNwIuBFwI+BG4CICv0oQ3FC5EXAj4EbAjYAbATcC/zwE3AThn6dzt8RuBNwIuBFwI+BG4FcRcBOEX4XIfYEbATcCbgTcCLgR+Och4CYI/zyduyV2I+BGwI2AGwE3Ar+KgJsg/CpE7gvcCLgRcCPgRsCNwD8PATdB+Ofp3C2xGwE3Am4E3Ai4EfhVBP42BEGcly8vLyc0NPSGna42lnPgh/dpO2wqOxe/QVyLvpzbvYT67UeSm7KbpA5DObLhS+oktac8N4XwpI4UXThBSFQiWaf34hUYLgd88dD7YTZVoETCbrNhrjIQXq8JFUVZqHXeGPLOEVy3MUWZp0loN5C0g2vxC69P1rGNNOoxnrTDP9FywP3sW/YOkQ27cH7Pcjrd9pzcduPut7Nv6Zskdr6NtAOr6Xn3DLZ98wqJHYaxf+mbNB8ylYyD6+gw6nG2f/saca36kbbvBxr2nED6oXU06DSMAys/IqZZT8qyTxHbeiCZx7YSHteYC8e24R+ZiGSvxic0lrLc8+g8vbCYKnEqVfgFhGM1G+XgNxZDIQGR9SkvyiYyoTUFqfvR+UeQl7Kbhl1u5cKJHSS0G8KpzV8T3qADGYfW037k4xzd8CXxbQZyfM3HJPcYx7l9P9Jzwmts+Xo6ca0HcGz1h7QZ8TQpu5bRYeQ0ts6fTnzrQaTvX0mrWx7j5JZvadh5JHuXziK+3S2UpB+mYfdxnN7+PVEN2pB2aAOh9VpSbSgkPL4Fmad34xdch+ryQjy8g1CqVWg0HhhK8nHarfiFRGGqLMMvLJaKvFTUOj9KMk+S2H4wWWf2EpncgQv7fyQssT2ZJ7bRdsiDHP3pK6Ibd+P05i9p3OdeUvf9SI87X2LzvGeIadGfkz/NoePYFzmx+RvaDZvK1i+epV774bIMnce9zP4VH9Co263s/OYlknvdSf6Z3bQaOoUDqz4itmk3zu9dQZ0mPajITSW2WU/O7F5BcEwyVUWZ+EQkYDYU4RMYTlFmChqtDi/fIDnwjUbvjdVQhEKjozw/nXote5Obehj/iPoUnN1FRFIHsk/vpmX/e2UZQuu35vyuxTQf+ABn96ykyx3T2Tz3SaKb9SFl6zd0u+s1Dq/9nNZDHmTrF8+Q0HkMaftX0vu+t9m+YAaNut7KzgUv0qTfZLJPbKH9yCfYufgt4lv04fze5bJ+8s/uJ6HtQI5u+ka2E0NBGqH1WlOSfYagyHi5f3rfYLR6PUq1HpulGhwWHE4wVZZQJ7EV5XlpaLwCKM8+RWh8cwozTpLU4RZS967Av04SFw6vo2mfezh/YB2tBj3A3iVvUKdxd87tXkbnsS9weN08GnW7jX1L3iCp61jS9/9Ij3vfYNv8l2S/ObD8bZoNfISMw+tpP+JRdnz3OnEt+5J+YBXJ3e8k/fAGktoP5tDqT4lu0p2K3DMyRgLLsJhksk7uxDcsHiV2PAPrUFGQKQcTs1nNcgwO/9BoqqvKcDokTGW5BEcnU5qfTnRyR3JO78AzMIq80ztp1GMs6Ue3kNRhOCc3ziOiYRfSD66hw6inOLJ+LvXaDObo6g9J7nGny/cnzGDzl8/L/nRszUe0Hv4EZ3ctp92IR9k+/yXi2gwi4+CPtBz8CKe2LaRBh2HsW/4ucW0HU3bhOEldxpCyazmRCS3JPLaZwNhmWI2lhMQ0IufsAXz8Q7FUlaPW+8p2pkSB0VCMw2LCPzwWY1kRAXUSKMs6JftWYdoRkjuPIPPkTuo07ETa3hVEJnci89gW2g57hCPr5hLdtAenNs6jSd+JpO5dRc8Jr7Dx86eJbdmfUxs/p8Nt0zku/OaWKWz96jnqtx8uy9Bp7HT2r/iQhl1Hsee7GSR2vZ3Cc/tpPnAyh9fOoW7jzmQcWENEoy4Y8tOIbtSZs/vWEhRVn+qyfLyCo7FVG/H0CaA0Lw2FSoVvYATVpkp03gFUl+eh1vpQmnuWhDYDyD6zn8DoZPJObpHHYKHj1oMmcnjdXMIT23N2+7e0GjKVlN3L6X7nS/z06TTqNu/Lma3z6T5hJgfXfEabIQ+xZd5TJAqb27eSXvfPYseCV0nuciu7v3uFRn3vI+fENtqNeIzdS2cT17QnaQdWEdt6EIXnD1GvZV+Obf2OiHotMRZnEhTThIr8dNme8jNOoNX7ovf2A4UKh92G01oFag3GknzqNupIUeYZdL4hlF44SnhCW/LOH5HxE4mcAqMbkXFgFc0GTCZ132rZx/csnkFUk56y34ix4ODqz2jSaxx7Fr1Gk34TZX32uOeNX530/5sL/jYEYfv27Tz44IMcP378hv0XE3nFiR8JaXEL5qx9aILiMecdRx/ZDFt5Fpqg+lgKjqPxjcJWWYBHUDwOYwFKnR/2ynxUWh85ipdS64XksCLZbXLSDMlpR+UZhNNSiVKjx1aZj8Y3HIepDE1gHNbic6i9Q7EWnUUb2Qx7+QW0kc0xpe/CIzgeS95JPOO7YMk/jjasMaa0beiiWmApPINX/Z5Up+/AI7QBVee34iWuKzqLZ932mDJ24BGcgDn/BProNnI72uAEqnMO4hFUD1tFHtqwZGzlF1B5BmIry5T74bSZ5e9OczkolLIsCpVGHsCd4v8icqTZIF8j2apQeYfL+Kg8A7CXXcAjtCF2Qw4eIYmYsw+hCYqTZdPXbY8l/4T8uyljF/qo1liLU/CM744pbSseIUmY0nfiVa8blqIzeEa3pSptK9rQBpjzT+IZ2wmRMlYr378bbXgjbOXZ6CKbYS06g9o7HGvJOTT+dXGYK1D7RuAw5KLQeLmw1/vJEfzkoEMOs6wfpYeXrB/xN0dlkaw7u1Hotr6sU41/NJb8k7KebGUZ6Oq0lPXgERiPKWs/njKuqXjGd6Xq3CaXbBf24p3QC0vBCXRRbeTsa7qIJrIehL7MOQfRhjTAeG4zntGtsZZmoK/bFnPukZr2TqENTZL7oQmIxVZyHqVnoMtefMJwWKtQqHWyfhRKNQqVh5w7QXw6qitQanQ4qstdOFQVovIKwVp8Hk1gDHZDLtrwJljyjqMJiKY65wieddvJuOljO1N1dr3cdnXWQbwTe2POOybLbDy7AX2dFjL+Xol9qc7YhTY0GeO5jXjFdsRSfB7PmA5UZ+1FExAn60sf2aTGb+Kx5p9C5ReJw1iEJiAGh6kYpYcP9qpClBovWSeC2CDZkWxmedCTHBZUniGynEqdN7byXDSiDlMJmsD6su2ofcKwFJxBH9USq9BPZAtMwh+C62MVvitsKe8Y2vDGsn94RrXEXHAGr4SLfpNE1fnteMV1wlKSij66nSybuF+WQein5JxsD+acQ7LP2wwFaEMTsZdnodQHYKvIQe0ZJPuJGAuErYki7EqhVMk2JnxKRPATelF7BcvXqH3ryH0W91pL0+U+2iuyZD8Q+Avfl/0mpoMsw0X/0Ndtg7UoBa96Pag6vwVtSBJVGbtkv7EWnkEX3VoeI1x+cwpPoZ+CU7JM1Rf2uPymIgddeBOsxWddY09pOhq/OjgsRtTeITiMhSjUWpy2apQe3kI7clRCeVyzmWU5Zf3oA7FX5qHS+brGk5BEbIZcNAF1MeedkGWwlaaji2rtkkH4TeY+PGPaybJ5xnej6txPsgzCb7xkvzmJrk4r2Z9cfnMSr/o9ZL+RMTi/rUbfF9BHtZJtVPTdUngWbUh97MZiNP5R2EozUOr95bFK7R2MZKsGpQbJYkQSAaE0nkJJst05qspQenjiqC6VfU74vtonFEuR0H0c9vJseUy2CB8NiKE6+6CMq+z7cV0wpqyT8a7OOoB3Uh/MuUddfpOyHr0YqwtO4ZXYj+qMnXiEJVOVugnP2A5YS9LQ123nmm8CYrEUnEYn9GPIcX0vPIPaJxxHVYk8Noj+iX4LH1Bo9LKfiLFZFEEQxP8lmwmVdwSO6hJUOh9sZdmyrwvf8whOwlJ4Co1fBOY8Yd9tsJamoRd4i7FWjNl5x/Gq1x1z3lGX35zbgj66Faa0nfi1vP2/mf9/9dq/DUEQuRgmTpz4i7kYjOWFlOz/luiu96HUev+qcO4L3Ai4EXAj4EbAjcD/OgJOq4mSnZ8Q0uOxWhX1piIIZlMlpqwDBNTrKLNnd3Ej4EbAjYAbATcC/3QExMqRWNHxTupfq1DcVATBZCil4vRawloOcy0/uYsbATcCbgTcCLgR+IcjIF4rVRxbin+rsbWKxE1FECzVRkzZR/CPa4tC7VGrQLgrcyPgRsCNgBsBNwI3IwLyCkLabrwTutVq928qgmAsL6Ls8CLqdJogbyxyFzcCbgTcCLgRcCPwT0dAbFYt2/s5QZ0frlUobiqCUF1ZhiHlJ0KaDZZPG1wsqbM6yjv3VTr3xsVatQ53ZW4E3Aj8qQhYygoI7TGJwE4PXr9dpwOMuUgV4l8WWA3gE4XCNxyFfwxo/f7U/rob+3sgINnNGI4twa/lHbXaoZuKIJgqS6k4sYawVsPlIy8Xy5lXmhHc+U48Y9vXKjjuytwIuBFwI/BnIpC77Fn8mg4gpPe/rmlWshqRjn6DM2U9zvxTYLNfukbhG4Aiuh2qZiNRxHT/M7vsbutvgIAgCOWHlxDQ5h9MEEQchKqM3QQmdZPPmV8sZ2e2o87omfK5Y3dxI+BGwI3AzYpA5pe3oq/T8hqCIEkSzp+ewnFkNditNxRPofdFPfQ1FPG1u5v9ZsXzn9JvyW7FeHY9Pg0H16rIN9UKgtlYQeW5LQQ36ucK2lJT3AShVm3CXZkbATcCfxEC1yMIkt2Cc8t0HPuX/KZeKbyDUA99A0VMVznA1e8vTqxWJxoP9f+plovtu0Kg/f7idDhApUL5+6v47+6UJCQR4Oy/u+vXr5acOCUFSuXlmkUAP9GWUvH7WhMEofLMGnwb3/Lr7f8XV9xUBEGEWq48u5ngJv2v2oPgJgj/hcbdl7oRcCPwt0XgegTBmbEZ+w9Pgan8N/db2agf6n6v3XhPQvlxVmzKJCIigLQ8G12GdSPy5zNvyUHefPMHQnoPo1v9ADlao29YXYI8f3ahI4flHy7E1mIQt3RJ4trzZU5KU/ayZHs6jfsNp120Tq7rv5oKraVsWbyYfT6duL97NGWn97AozYdHRrXGabXj6eWJ6hI6Do4t/pQT/u0Y1Lslflc0JKVtZ/72NJzXQ1KpJrH9QDokBMgRdlPWLeCUXxsG+mbwxb5Keg4fRoLflbJLlGz5mmUl0Qwe3J1w7dUSVZWcYf2KbRRaJZRqHUntexLnC1hTWLcuj0Z9BtK2XiAqqZojG37gJ0MM9/ZtgDE/jVVHyrlzTC8wVKLx9cXjV8ASJLLi+Cr8W4z8zTbyWy68qQiCHAfh5I+EtR55VRwEN0H4Lap2X+NGwI3A3x2BawiCyHuxZSaO/d/UhCH/jRLovFCPW4QyJPHqGyQ7Fitos/5Dl1tX06VbY77bUszcvfPofuUsZC/np7ceZfjzX6MIiSbCX0zqSlpM+oh5j3Xj8vqtmPAOck/yICrvmcMXzw7G62eTWVXeEd58eDKfFTRnzmeTSFmwigZjJzKgQdhvEkaEJt7x9Ws8+tEhRk6/jbQFuwjTVfDu3krubKUjzbM9H70+hXj/i8HzLMwd0ogv46bx1ewHibnMHHAsfpB6j28loXUjAqkkJ9eAT1gkvh6VHN99ku5vbeA/tzcARyZP9BhK4ZjX+SB4Jc1fy2HWiu8ZHusKm+wqdvZMac+IDTr69WtHkNoluBMvWt39CL1Yz713f4hXUjjnt+xBm9gQQ14uzjYN8dt4CEPTQfz7q9eJ3DeHKTNW0uy+EZiXrMMZn8SG7QcY1C6MU6Wh/GvGi/SoJ0jLjYvYg1BxeCH+be76TZj+1otuKoJQZSih4vgPhLe57apNim6C8FvV7b7OjYAbgb8zAtcQhKoC7Ksex5m293K3NXqUUfVQhjcEaxWOM7uQqsquEUt9yxsoG464/Lvk4NDSV5i4QMGal70YOGoV3Xo15+v1BfxnxVR+mDKTHm9/yN0Ng9n/zWvc98q3VBkqaT5lNv0rfuCZb8/z+JINPN0uAIVlOxNaTWCHVYNGZafkwgWs/lGE++lwWs3ED3yKj9+egPf5zTw/cQqrnZ3496ecWIXFAAAgAElEQVQv08GnjPceGs8nJZ1ZvnIWHYKvfPK/vmasFdm8NKo77+/OB6UShcaXmBANKeWejBgzmsFDBtO/Y3Mqf3iMYc+vxoiEqSibSnUQIQGeKGxmQjvew0efvUSTHyeR9HopL817gy6VCxk65muGf/YjE5ud4uGO9xH4+hbmjEugaOEkWv2/NF78aiF3Zk6n3vQMXp33KqVffIJl8iyebO6DAgsLRiQx5Zg/jeNCUNd0X8KPni++x91+m5ly56vsUkYQV3aexMnvMDBegVTxE2++uZvg1gN44LUnKXy6K9NWZiAJ2VQehAQHU2px0rn/MAYPGsSAbu2oG3AVJbsGKJFLpPzAFwR2mFyr5n1TEQSzyYAxbQ9BDcQmxcuhlt0EoVZtwl2ZGwE3An8RAj8nCFJFBo5lD+LMS3X1SKVE1eMxVK3vRyo6icI/Dqn8PLa5t16zwqDqNhlVx8evkEQib89ixj/wIf1e68WiJzZdIghvvJvMe6+d492v36drXR3ndq9lyaF8vPZ9zPSlaZi9g+k9bTbv3NmeQC9v/LT7GNlgPKa+9zKqJSx4+V2MHe9mQr8kDn34LMeaT2fh84lMGzqJzYU26iYkExPsjVKpxFJeQOrZ8xgT7mDRwjfoHvErYfPtJjbOe5G3FhxG6eWJPjKJduoCXtlQwnOTO3Jkww5iH/uI5+pls3bvBWxSBT+88gLpTe9i0rCWlC1+mTnWocxf+AbNV00i9vHDNOkYhboknZ17c4ht35GoMBUFW3bQZOZ6nos/wSPjHma3fw8++3ourXdModVzW4lMiELtX5+xT77Mo73jUEmFzOzYlMV17+apOzpw+eA9OH3iaBdylKl3vcJ6RyhNy8+h6TAA5+k9FAX7UXGikKQuAxn94mv0zPqQx9/4CauXF55+/jSsE8uydTu5feIICratwtL7X3x8Xzeu2LJwjXWKQEnGs1vwSe5bq5Z7UxEE1x6ETQQ3GeDeg1CrZuCuzI2AG4G/AwLXEARDFo4fHsaZfcrVPaUSZXQLlMk95GyBinqDQReA7Z1GSFaRnfZyUfd+DGWbq+MpOEuO8+zd97DMJw6vQ4X07C1WEHK4s0sO+zzHMn/mg/hd+IaHpszhTJkJta8PGqeGIC8baZlFqD39iO0zif88Fsmk1veguu1Z7u8CH05+BkOfx3ni1mbsmH4Pmxo8y+KP78SwdSXfrz+ORa1GoVSgqNmIJ1mrKJDiePS5h2jiW8jqTxZRntSPkT2T+dmrfHBWsfL9B3niq3w6N7Gx/ZQ/j93Tly0/bcM/1B+vOs244/5xtAqrCZ5nO87kZv0x3j+fuY915fQT7Rmb2ov5C1+nyfKJJM+4QN+hDcnavpEd+3OJat2ezmO6Ufj6LPxnrGJczqfcu/ooHpV+DBrQnv1LPuVAqT9jn32VB0f3pnm02I8h3jCk8trAMSwq9cBHd3n9oLq8gMzQsRx7P1EmCBsc4TQrPwtdhxFw7ijqSXdimruJ+z78nMENvUnd8Cy3T91Mw9b+7N+cyejnXsW0bxlmvRe6wHoMGT+eXg3Cf3HPhtiDYDi+HL8WY2rVjG8qgiCOORozdhGU1N19zLFWzcBdmRsBNwJ/BwSuecVgKce+9jmcp9a7uqdWoR74CspGo8FeDQo1qDQugiA2F1xRNOPmy7ERriqSkRX/bzJ3fLYBH78kxvZtyfzly1GptIybtYwZIxviNGWw4N0P2ZtjxVNbyLKFu6jfbQBNgi3kVQTSb+K9jGyWx9j6w/ixxIJCIeGw20GpQqVUIo5ktrjjDRZ+Po24zA9p3nAaKSoPNDWPwJLDTrWuDfOytzBerwDzLsYmDCZ7xHssnz2ewJ9vlpQJwgNMeXs3/kFOSjRNuatNCLOP+LDgsbqsOghPPz2J+EDXMrx04Wvat3iKDp/u5J1R0ex/pC335gzm24Uv03DJRBq+nkaL5p6kqTrwaLcQ9q74mlNNehH8+Ud4z9jMZ6PqUpn2Pn3v2ss9TzyA+uC7vLRaxTurljEyVo0kT9VOHHYHTjk9/eWiwMT6d55m/NpQTn6QxJTxL7NOEUmbklNkRTfEJ/ccR/LURLdMZsb78xnbKohT659h1J3foArVUVysYsgdE9ix9yz/fqErP65OYcikJ+jRIPAXzVOcYjClbZZTVtdmuakIQlVFMWVHlhLZ4Y6rQi27XzHUpkm463Ij4Ebgr0LgGoIgSTgOzsGx+V05/oHCPxj1qDko/OOxb3oWVcv7UIQ0wvZeUyRT9aVuK8ProRo5B4Vv1FWiWKsrKTxzkjNFa3h66ia6dGvKgjX7GDR2JBMemEyrMG+8PCRSdi3l6/kr2LRmDWm6hvTr1QLL3mUcCp/AkuWv0kRZytHtx7AFRhCkP89zfe7CMPpN3nqgG/bc81R6J9CiaSz6nE/o0OML7pq/jkntfFEgkbPxS4Y+upjH961irCAIkoHTOw5SFdaQ5olhl97lX+p4zQrCk/OyaJlk50B6EGPahPDeop9o1ak1cYntmPzERNqGelFZcJYlLz7MlK1+zF+/kKHRVpbf2pSX1Pew8Ktnif/+fpJnZtCpYwinz5ppEKmnID0Nz6FD8Xj/PZkgzBmfDGdep/24vTz9zUKGHH2Uei9l8c6qpfTJWc5/zgcwIMHKezPe5GSR+WpSFhJBnFZihbEj2V/3Zs4LL/P23gKa+YehDTJy4XAWmlFPEXv4GxLHPMGEEb2xHHiR2x/eQHxTP47vzqXXHXezc9FH+Ca3JCmpMaPuncjAJnV+cQVBhFou3T2P4K43iMD5Ow36piII4hWDUY6D0N8dB+F3Ktx9mxsBNwJ/XwSuGweh4gL2RfciFV8AtQZ1r8dRNB2HoroINF7yKwb7l31x5qa7BFOpUHWaiKr9I/LqwsUiOSysefsxPt2VA9XpbNuTR3CIH5mFFtp0b0mgSkP82Jd5a2gwe1b/yNat6/ly1VlGv/gWg6INrHh5GqtCJrPi26eIv+JkALbD3Jc8gIp7PufLZwbheeUphqyPadt6BmFDx9IiwnUA0njhON9tq+LtU+tcBMF6lOcGP0xe73/x7pOD8P35kT6ZIDzMqwdimFz/OLN+dDKybSiz1qYy9YEBVB4/jveYl5kWsYdnn/s367O9mfDG+zzU2M6PC79g3qyPUd33NUtfHob3wvuJfnQr9ZpGYSkuxyH3SIlfTDBF2w7Q7t3tfC4IwqnXaX9nDUE49ihRD2+h1/jR+Bz5nu+LO7Jk3RtEluRisl1xYNKezvLPlrB1335SWr9C+put+PDJR1nrEYXn4XQM0jmOnCrDr2lXOtY1s29PPj3/vYop6g+4751CRnd0MueTPXQZdzfbf1xO/7tvxyvjIBXN72H2PV1+eQ+C3ULl6dX4Nhleq8Z9UxEEsYJQfmwJEe3GuVcQatUM3JW5EXAj8HdA4PqRFCUoOolt/m1IZotr0td5ye/05dcKIriOzQRO12SlTGyPevCHoBWH7q8oTgdntv7AnguV8i0/L5JTQXDLfvSLczDznhGsUXTgmRkv0j8ohxmT72H2jioe+Hg5rw6td0XMAcB2iIfajKF8/Pt8Mm0A3lfWnTGP/oPewZHQiFAvF6uwGQo5mRXAi3sWMlqnAEc+G7/4gfKkHgzunMg1WxadJtZ+9Djv5/Vg7MlnmekcwjuT2jH3rXc4nl+BFNqOV+fNppf2AnPmbabDHXfRNjYYxYXdPP7EdE6EDmX265Np4qfGuedjxr+zHd864VwdzsFM7tls2j/8LlP7xcGJd+gz5SBTP5nHYN0mJt/9/9iRawSvSIa88CmvDI2/zkpHLs/368sadUdeeH8mAwKK+eiTpbS7YyLN/Oys+eoTSpOHcHunREpP/MjEJ7/j7gVf0Oz0LB7/TssQ2wZeO+bFqzMe48QXr7HmWDYO30QefPMtHu7W4FdXEMr2ziGo8yO1asY3FUGwmk1U553Ct25T+TjIxeJ+xVCrNuGuzI2AG4G/CIEbhVoW3ZFyD2BfPx2pKB3sV29IFDO+Qu+DIrYF6oHvuVYWaq04qDbZ8NBrUf3OSH+11pX/mYoknE5JPtVRG0Xs6zDnHkUf3ao2qrtUx01FEEyGEspPrCK89Wh3HIRaNQN3ZW4E3Aj8HRD4JYKA5JSPNErpO5Eu7MRZngF2Cwp9AIrQxijiOqOM6QIe7qy2fwdd/pl9kES65wPfEtjh3lpt9qYiCK5kTbsIdJ9iqFUjcFfmRsCNwN8DgV8kCBe7KDnBagS7GUEaUKldKwZyArv/KoDx30Nody/+zwiIOAhVqRvxbjDg/1zXlRXcVAShsrSA4j1zien1MEqtzyU53K8YatUm3JW5EXAj8Bch8JsIwl/UN3ezN0ZAnHb8K9++OK1VFG2cRdiA/1erarqpCIKl2ogp8yD+9dq7IynWqhm4K3Mj4Ebg74DAX0sQbFQUlWKyX53KSJIU6Hz9CfAW+RjAnnuaHzO09GqkJCNXQWJyjCtBk2Qh+3wu+rgYjEe3cabIIkOqUOuo26ApiXUCUDpt5J49wqkLpTUnCGpQVwbSolcbQsUr+cL9rDruQ68ekZzceoqIji1QFRXhE1YHL83FFRInuVt/IK3+IDrXuTY91C9M5RiL8zHYJFSegYT56cCQzaYTBjq2bYgr3pFE0balnKzTl24BBaw5o6ZHMx/KKiE0PMi1OdGUz7bdacR37kBoRSZbUsro3LEZnirRPwnjsU3s1rahd5KOs1t2UB4VQWRIPaL9XH2VqorZfyKHei0aE6RRIme6VIDTIaGkmsxzGZSYrKj0fsTF+HB41UHihvUn+spUEFcIKVYQTOm78KrfvVbN+KYiCK5TDEuJaOeOg1CrVuCuzI2AG4G/BQJ/KUFwXOCjV79GFROFh6mMsyV2EuqGYsovwdmiIxP7tEeLmX0L5rIxojf3xKezdpcHo2/rjocD1Gob51Z9yvStAfzrgcac234Yp0cp2/ZUMebJaXSI8kJhrWD98u9R1mlPjN9Rlq9TcMvI1mx9ZTZ1P/yQfh4G1s18jf0JLWgRHMiJZT9iDPYnqH5Xxt7SnVCvixELHRx64W42jvmMJxv/SqjmqzRrZcUrz3DG25dCdX2SqnMxK8s5XqwiWNWAh1++ncjy/Tz7/GYadYtEJHb89+IUEqL0NOgzmqEd6pO3exWHcwykbt/A4bC+dFWd4ES5N93bJROa0J7uyRKfP/MR/g89Qq8ALdtmvUPR0FaU7zUx8s4xxOrPMH/WYrYcO49vw4YkhMZjKT6OqTyfrPqP8MHtSt57fzsNmgVx6Gghox/szZf3fcboBW/T4hJButpcRRyE8n1zCez0UK3a8U1FEOxWC5ayTDxD4lAoLxoKuF8x1KpNuCtzI+BG4C9C4I8mCOnp6ZSXl1O/fn28vLyu3kVvP89rL69j3JRx+F/Ywcz9Gp4Z246cQ/vZZlVzV59ukHOY1z/dyB0PPYhf9TbW7lTSPyGDyR9aeO/zh4iUrOScSsWut5C6byv/fut7Gj4/k9GNYmmSFIPeXs7qpd/j32gACYF7+HKRgrvu68KqBx4neM5nNPjpU6bvUDOknoVNJ88ilQVw16wnCS44hz44idgwPYdXfsHGlBJyf1pBeuPeNNaZKTGEct/sabSsyah4Y/VZWD5tKgfDlKRX9+b+XqFQfJwF+yV6xKhpMGgQKXPfZ090K+Jy95FZUsx57a18+kRLLmQUEN+oEdWp+zhTWIUTBU6nGh8/PSpLKWdyJZq2aU3oubW8WZDMWPsi1kl9iElZS3aXTvjnmeg+YCgNo3QcWb8SZ2JHsubPRdl/CMXnzxGScoDzY19matgJXv0og3tbn2BB0QimjFDw9KjPmbDkbZrcQD7J6cBWloFHUL1atdybiiAYywspPfAdUV3uQam9vFPXTRBq1SbclbkRcCPwFyHwRxOEU6dO8fHHH8vSNW/enG7duhEfHy/nSMB+nhkvLSK5QRi5p4+yPl9DzyZx6HWBOOIiubt7A9Z9+BpzU+vy7ksP4WncyLyPd2HyjaTfxMl00pWyb/9WtuXE0K76OxacspNyKJu2HROoCm7C0w/eQR1VOSu++IBz1ihCvVPZvEtB917JHPx8Fb1WzKfNkaW8/v1xIkJ9sXt64EzJQNuqKXqril6Dh9OojjfleZmU253seWk6VdM/4s6wcj567D80f/dVut7gCfuyOi38MPVh9oQqybR2pKtvIRmZx8hQtuT+4W2ol5xMxvI5LM52EOWpwtfbwsGTajq1DMHsG8foIT3xMecx580ZlIWEcPywjsdfGkhgwSFe+NafL97vx7nNa1i9ajmnPXswqqOe3fOWUDrsNvr4ehPbvDVJtgxWbttFqaGU/ecCubVnXc4VneDMCW8efmMKDWxHePWjs3RkJ6fbTOXellnc1WEWo7cuZ1TIlRGqLkvltJoo2fExIT2n1arl3lQEQWRzrMrYQ2CiO5tjrVqBuzI3Am4E/hYI/NEEQQhZVVXFokWLmD17NhMmTGDKlCmo1WqZILz2yibueiSJpe9upDo8AulUNrFj+2EwObmzRzKH129if76S4UMHY9w3m7dWS9z/1MN0iPEHWzVFOauZ/IKJqX1S2V7ix5HNqfQb0owsWyCT7r6VSGU5yz57m2MVIQR5pbPrgIKOnRM4tnAbQ1Z/x+Cs5Yx5ZjXBAWCrG09MtZpWo1pw4VAhvYaPICG4Ju2xNYXn7/mK0fNepZkinVcf/Y7h7z5Do9+wgrDskYfYF64i16sDUalZSJrT5HgO5dMZt6HFwZnPX+Wh3YVEOSw0b1mX8xUtGde8mJP2+owa1AltZS5z3nkHEqPYsbqSWyfVx7s4n28PNObTN/pgS9vOmx/8REyXtvhW5XH4h2UcSexDV38lLQaOoVtgBevXryeloAqrU03duCYYzIU09K9gU3Yjnhzvz3sfX2Dq3Q1YsmAL9SMd/GfTIRr2eIZnRte/OkhVjdXKpxjObcI7qX+t2vFNRRAqinMo3PIe8YOfQ6XzuwSEewWhVm3CXZkbATcCfxECfzRBECsIjz/+ODnZOUx/cTq33HKLixyIUkMQxj0QxcI5abTt3pgD783F55H7UJid3NmnGzpzNguXrKdyx0rmlQZyy+A7eOTOnuhFjAaUKCxbGD8pm/u6n2Bdpo4Tu9Pp1qshhdq6TL3/NiKlUlYuXUF0t9tJ9t3Ep98ouP/Bniy7ayLeH3/B4KwfmPDOGdolqMhWSDgP7Oa0d2MmP/owfZLDcM3/EhWbPmbcwXYsf7IlKtsJnnpsI9Pen0r4r8YdsjD/vvs4Eq2nMrgFyoPFtO0eQE6WmnHPTCZW6SBl7ttML/WlqbmAIH8rq5eeJKrvrUy9fxSJQVrMpVnM/tdjnNf5cPZCHI9NS8K/JI+v9jbkk5ldObXya77Zk0tSi4707deDqEOzGbOrHo2rUhn+2FSaBqlY8eZLlLToT+KBj/k2dBptfHLoP7QjSx56jkYzJ7Jj7nH6NlGxdOMeqohm2MvDOfrqd3R/5nla+l0rpNNSSf6q54kc+V6tWu5NRRBs1mosRefxCk9CcUWM8ZuaINircUpqlJobbE+9kbplh3SlT/1NRZyXVvyq9/ymqmrnIgkkRe0f23aYcTqcrlS4l7Cx4jCZUXqKZDG1WZxIpnzsilA0+st7Yq7bgrMSe3kZ6ANQaUWY3F/QhdCtw+6KFlq7Hf4F4R1ITqUcvrd2igROSU5P/KcWScjhvGp8uNi+eMpCoUKhvP4y7Z/azxs09kcThNOnT5ORkUG/fv2ujeInCMKzi+k0oilnd56kwimmYj8iwvUUBUbz4MDuMkH4buke2nTpgd65j2WrDfQd3I7yFf/hVLtp9PDYwksf5NKpYQW6xp25sD2NFgkVbC4I575JtxFtzuDbJbvoMvZO6kobmLdQYsxtLVg06UnqzPuSQZk/8MBiHfe2qmJT2gUMKZV0fGgc4TlpFAbWZ0CzWIrO7OCb1afpcs9dNPO0U5KxiWc+KOGD9yfgKXB1lHDylIlGTaKvg7KD4xvm8u3ys0QPS+LgZ8eIbhBKlMZAWptR3N+iEdbVc/isXjc6Z+yg3FTAtsxm/OuehqSlZBLTphNxaiNLV2yg5aCGfPrUesa/dish+Xt4bmEon83sQVlaCqk5BRTk5KCvk0ykdTcvvbCSbi/Mok/jSBpF+7Ny1qtUtruFBrvfZW7gVNpo9iKZyjldWo+pDyUw95OjtPIv5EixhCa5G9OGt+foklmsNjThsfG98dRc7VeS046l4DS6iCa1asY3FUEwVhRRdngxdTre9ffMxSAZsZ5ehtGow7NuQ2zZe3AE98c/ts4NlGbDdmYhBYcOoG33DCH1wn6bcqtOUrJ1AdW2aIIHT0L3K+Ods2QrZQcPoE4ahm9MvT9vzvklacoPUrx7FU59In4db0Pr8QsTk1RC9cFFWLya4eVTjTErA496w/AKDbqmBXv6ZxQcLCOwzyT0fn7gLKP64FwKT+YTOPJ1fHxuMJHb8zHu+x5rxFD84+rym6Y1oYe1szCo+xM15FZ+5rOX+yaZsB59l5zt+1EEN8A3uQNaTx2SyhuP8KZ4eF0d+c5ZeZyyrfNxxt5BcKPGKGzZGPZ+R6XUkvAuvVFKjutPcpIFy9F5lGaV4NV2Cr5hl2OFXAWUs5CqnV9hdETi1/52dDoFknkzxWt2oGk9Dv/ouMuXO85RuXc9tl9ERJA9H/QtxqK/GODeWobx0FzMnp0IbNQCy4lPKS+PILTbqOsukYr0ubZDMyksCiWowxh0vjfou1SJad8nVBlruqhQoonqiW9Cc1cym6pUSnd8SXXACCKaJ6Hw8HLZu7MK09EvKMux4dd9Ct5eIGWvJG/fHjw7Pod/hB7JoRL84S8tfzRB+EXhHNnMfe9HYjo150qLNBWVYIyIpX/LhmjM+fy44Qgtu3THnxzW/7CRUklFtUlNp9FDUWekUK3TYS7Mo6CknGqLFbPJiEUdSpfhAwhJ/Z61hc24bUgLtPZ80jNNVJ7fz9J9FiY8eyfxubv496FwRoceZV2xPwnOPI6XOfBQaGnQuTvt6phZ9NkyfLuOpF+TKKoLU1mz9AfyYgbx8MBkl5UWb+btxV488UDba8U1HGHOZ3tpNagbltStfL2hiPY929M2QWLJh0uIu38mnQu3sqNZL+ps+w5b3SQqTqVSqVEjeUbQu09XQjCwcdNmPNRGfroQx7Nj4tn43af85Hk7/767PheOHeJsgYWAID/yTuwlTx1Jg1AzO9fux9l5DC8Mb8GWLz6iJLYNUfkHOO3fDWVFCk2btiY6ri5B9lQ+W5LL7f09+WFDEZ2H9CHGTytv0N91ooj27Zqj97jaUMUphrI9nxLUZWqt2u9NRRDsNgu2six0wbF/z1MMznzKvx5Pbo6WsN63UvHTG9iaf0zCwC7XH16r0yn+/l7yj6Wj0Puh0tQoXaHCu9ubRHbufv0MXhWbyZ7zJBXWZsQ8+Tnev/TwajlC4Wd3U5gr4TNwNnXbJlF1cgceDUbg8WtPvbVqaldU5jRi2vkSmauXYFf6E3TrN4Q3S74xcXGcpXD2MMrD7qBOVB7pG7YSMHIhka0aXnOP9cTjpK/KI/K+9/AJDhGPEzgOPUfKd0vwHvoFUZ07XVcXzpylZH49HaPJi8Chswlr2QHVz1mCowTjzjcoOXUCcVJc4TRjzc/Bateij4qqeViWUEeNInTgvWjF/c4qzIdmkbXqG8xGi7yKo1CpXasbCi2ePWcQ23Pw5cUdRzYV391Odrof4f37YT2wFnWnB3HueosChpDQPYCSHRvw6P8RoXX8r9aQVEXV8rtJ359C8ITNhCfeIIe87QgFHz1IibMtsQ+/i6capIxnODtvN/63vUdYcrPL9Vp/IPPlJ+Rz479YlGGEP7mN4ECXDTvLDpD3+XjKgx6kwfi7qfxhBNmZDWnw6GzU1131smJa1Jn0zATqDHoAnd+VuQQEAVGhDkxErTdR/O/O5GfbRBI+kNRoI+qjcBThMEuofQOguhSrRwg6XV2Cb30XnwAd9vRPyPrmPawJDxJV5wSlJcmERBSSumgBgbd+hXfZlxQWNKHu+Cloa2sR5Xf4z19KEARJszpRe6iv8itJcsqLQSqxGiRJ2B0OVLINSzjsdhxOSR6P1WrX32XbFmmq5b/VrHQqlajVKnBYcaBBI66Vi4TDZsUm9OihQiE5sDkUqBUO7KhQK0R7rtVPtUqFAgdWqwO1h4c8NorVIpvNhlLjgfri6pd4mnYo0V6PsUt2LFYJD60GhcOK2a7Aw0ODUiFhM5vBQ49asuNQqlDY7XKUSoXTjkMEQlKqUItBQcbALrftUGrQKSXMZguSRodexDS4hIHA0yZn4BRdsVSbkTRadBoVDrtNXuVSSnbskjgN4USj0bhwl5zY7E7UagUOp8LV5kW0Ltb9c9uSHFjLLuARGP87rO7Gt9xUBMFQkkfh9k+I7z8Npe5yprK/9hWDHUfuNgxnz6NrNRDbsrvIytIS0W8MZWtnYG89l/odgjGmnUAZ3R3v4EA5J7pkTKdy+wvkbtuNzalB36ArnjoT1eePYDI48Ok9g6jeI5B9rjof0/kd2KyukUthTqFk8wKqHbEED5pweUBT+6KP74TW2xMc1djzN1O8/GVKirX49XiC8A59kfY/SNraA2jaPU50nzvQ/IyJ1qp1Xa8ypxFLyjfkLXufav82+ClOY6iuT8jgf+FfrzEqOdCIKFasZ1dirPLHt1EsZf8eRFnoeOrUzSNt9UYCxywlPDyHshwrXkld0XsUYDixC0vmUoqOlRPQeSSKMx9RUuAAhx2nzYFSp5UdUJICCJuyjeDQK1/rOHBeWEDu8g8xlGkIGPE+EU2bXy2BNRfjoXlUpKfhyN1LpdEXr7gk1CorlrT9mFXR+MXGog7tQUDXW9E6Uilb8QwFR07g8IohsOMItFoJZ84mCvYfQRHSgtCBT8MtLDAAACAASURBVOAbWQ91QDhK6ylKvp5Ebko+2phW+IQ5Mew/iCImGY/qYiqLylD7BKP2jUDXehp1OnZEUXoUw/ljcuIXsGA5PJ+ijEJ8uzyBb3CNfAodmphOeIXVwZ7yHkV7N1N59iQ2zxj86rXBp8tdaHffy/mjdnwbd0fr44nCMxrfFneg060n6+V/YW8/hYjOg1DZK6naMZ1Se2ei+45GIRkxbXmVrF1nCXt6Rw1BsGPePZmMH4/jM+Zz6iTHUr5iBFkXGpH86DuozLmYS01ow+uhvDT4maiY05asVAtKj+sEvvGKJ2zkbIISgij+oBeGgD74JjXGvvMNjLqWeAZrwQ4KjQJzxhFsMQPR5xxC12cGwZqVnP9iDmZVOH6N2qIs2kRZnheBSQGUHD2J0tMftXcomuAkgoa+hd/FjXB/uDNc28BfSxBck5NTofxtK2h/ID5y4CCZaTpxKq/fH4fdgUqQjlovEg6HhOqaJ4QbNCRJNYGO/g/M8pLAv08Yp8VI4fqZhA959fdVcIO7biqCYDEZMeUcwj+u3d8nkqJkxrbhVs7uqiRk9CtoD75I9pUEodUc4uqdI2vBDJxdl1K/R2NxehZn6gzSv1uBJrEN9vM7sYX3wz+ojIoje1E2vJ86A+5H7+0KAOIs3EnOV/dSXgpqwXwF6zSZkQTD9qrZ1Ws24fBtQeQdHxAYWk7FzvmUHlpHVbkd79a3EpDczsXw7dkYtn5C6QUj+vZTiOw7AZ3uNy2o/x8Nz4mz4jTGQ/Mp3rkca0BXwoe/iJ/6CHnfv0JFuSdejQfgl9QRfXRTQeQxLOhDVkFzYu+ahGnemJ8RhG8IKP2MtPUbCBi3mci658hb8j6molTMFU60ER0J7NYTpTGTyt2LqCiBgD6P4CWWWxTe6Bvfgk5fI7fDiDl1BcaqMPxjNJTt/Ql143sIiIkRDziXYqhaT82m6HCq6/xz/nYqKzzxim2KWmOiOmU3dp9kfKJi5KFNkzia0KYJVG1/neJjR7GYnag99SgkG/ayfKwmCyrfMDx8vJHEbup7X0GvKMa4fjolOZUodd7yazSx5O20FWLPPEWlsjUxI+5FpyjBUFiJV2I/PIq/J3PVHOxmu7AUHMZybBYHav9g1CoFkqMSq9ET/xGziGzTDeueu0lbnYJ3g7aoyMRwppjAPt2p3vgtZp+G6IP8kPIPUKVsQp3xX+AftJHMl5/GGtsZz9AIsFmwnFtFlTOBwKZt5Cc+KW8HpecMhF8kCCUryf70Cco9uhBz15v4+HvUEIQGNBg7hIqt8yjJMBJ02+cE1xWrPKLrWRS914cSbRdC2g9Ec9VxNbGXwRtt3fZofewUf9CTMrMvNqcvPpo0qtUN0Qf4y2kJFLYKqrOOYfdugl7nxLP7vwiJzCF/2QLsGh8ZU6VGh9NmROPIpvDwcXz7vUNo02TI3oLVty1ecc3lp7e/ovzVBEE6vZbPi1szIqaQPYdOYZFUODVetGjXmfgQ+Q0/SDbKMk5wKFNBTLiGSp9wWkQGgdnA2dRUSoxW+TKtjw/KqiqqnU7UfhE0TohB4zBweNtmsquuXpFy+DdgcI9kdGID4r6VbPJoz9DmIZh2L2exRw/ubuV/9WqhZGDf4kVkR3ZjYOcEakbB36YyZxWH9hzGP6k58UHXSWwllbHm07Uk3HM79dWV7Fq4Dp9bRtJEf4VNGLNZt/ksiX17EFmaxpoTxfTp0QYveWVEwrD/RzbrOjO0sZ6TazdQEhNN3fBk4gKvJb/Goiz2nS2kTduW+PzsmKYpL419eXa6tEjk0rPTdaSUHDZM6Tvwqt/jt2HwG6+6qQiCWEEo3vUpsX2n/b1yMZTNI/3tt5A6TsS/YCV5ebrLKwgtPyLKdzFZa44T8PhPhAXWRP2yV2AtyUehLKVy9bPknLggb1zTNH2Y2NEPofW4/HQrCELuV/dRGf089fp1Q2HcQ963M6i0NyRq4kw81TbMK4dzIac+de74gICQE2S9OZlyg3ikUqPSe4rtjJc2vEn2ahwij7xSh1eHaUQNvB+PP3hd1Z69mLzFs6gsKEJRdyB1RjyOR+F6Kovt6GMTMG2eQcGZTJS+9Qge/jqhjVthO/n/yPj2R7zGzsRj7SNXE4Thb6BN+Q95qUqin1mFv96Go7oC05pRZKSEUnf8G/jUicC8+wWy169H3etDwgOOUHZBQ3D/+9Fq1GA6TcWpQygD4rEdfInc/GYkPjwTjbManOWYd06nzDGA0J6ulRxbyvsUH0tBshn+P3tnHSZVFffxz8xsznZ3B+xSS3d3Ckg3SqmUUioGooA0gpSkiKQgqdTS3bDLwvay3TFbs5PvM7MoqaLvKuz73vs8/MNz5txzPufsvd/7O79ArZW8OPe6SotIaoWhb1/sazVHpM1DkXiR4tQ4nZs4ZXHHyAtPwbzjWMzFGchuHESmqI//9O+QGmjRRnxI1M6jaH5zpjOUYtV0MOL728hMVWJTrTrkRFKQnIPN0JO4+pugKinUP5TQpJG/90PS40pxHrUda525P3EuMduvYdFrMa71mlF2+W3izirxHDEPE/UhEteuRGME8iITHEf/jJ2zMYpfehIX6477sM1Y2R4nafZ0ylwCMTKToFWqUKZHIscBC1dH3Sc7ouJUZMmqcoFgcJOsnVPJiHyIyKMrXkPnYW4p1guE5BtpGJqIUCkMMGs8CZfWAzE2ffTAVF0mde5witw649isK4bPPg11b38TT6RujuSsakdemU4gWGFpEEOptB4Wbg6oMyJQi8xQpt+nzLIRtl5uGAf1xcrPG9nmtqQ9fOykKPFsj6ufhvh92zDya465rW47XEfj1gv34XOQ/plPzEs+XP9Js1ctEDSh8xiVNoYZrhfYH59NPW9PYiNu4N3sbdrXtuXy+s/YdC6KGKU/498bgmNOBLHeNRlWMxBK8wgLv83eVVvIdXan/Zs9cSgqoqQ4k2sJKgYO7IutNo39B0/ioczkUJV+tE0+jMjTjwPb4pi9ajSkJvEw9jq7d92l0dhBaLZ/T9p7sxnnWr5PNAXn+XbxCfIlGooiL3NLHUCTak5INGq8Ok9gWEP7v/axUmfz45b9hLTrRTUXKdHXT3MzPg8MXWnRqwUupPL1yCV0WL+IOgbZrH5vIcHL5tNS/4zUEHNqD9dSikm6fJzzlq1paRRBTLE1TWr74xTUnA41YNXUtXhMm0BTqTHnly4lp2ddMk7n0HfUMPzMC4kJe0iRsRVepqVcuXWKuwkWtGldEzM7b6q6W1KUHE1srhxKMzm8+xRu/fpSx0SMkbUL/u4O+ufRk5dGUUTWsbk4dZv7T7bdH/6mUgkE3bmNujgHI0vdg+kxoVd7xKBjW0Dudy1IL6uHnfg+2fk2jwVCrYXYZc4mQ9WNKqM/xUBUhiLqJ/LuX0WZ/YDi5BTUWjEiEzuMjBUocnPRmNhg5uKDxNQWaeuF2EhulQsE79kEdG6NqOgiqVtmIVPWwGP8YswkSuT7uhCf5Ifb4JXYeNgiv74EWU4JIgMpYgND/bl3uQe3gf5cTazJovDiYTQ138Hew4KynFT9x/LLXCJ04kX58u3F7kiDAyk8+jnFJs1xaN4XE6mCwj3jSLpfgMu7B7G1Lqbs/jZy43KwaDoNC2cbNNmXSN30FoWuw7FN20yB0+MjBpvmY1BHbKDIaxZB/fuUm0RLLpCydAS5ZZaY27hh2qoFJT+tpsTAEqmDParcVLSuvfEc+hmmxoaQvJWYDV+h8R+DreFR0lNDqDJ5vn52KO6Ts34Q6XluOA1YgZ2fz6MHTxnFe3oRdzkSsYkuUuIRMR08lRw1wXjOPoCVrpOkb0jYvRvV73tVi6Y4F0VBGYbOLkhQosrPQakyxKxGL5y6fYFZ6sdEfH8AQ48gTA2ykSUUYPXGEqyLfib54nUw0D0oJYid2uA+5DN+e7/qR6F+QNaGd8lItcZzxk9Y6iwksVN4sOkClr2X4FKnSblAOJmPc/fxGGnOkb4vFLNgD+RmXXEM8sfYoybqw+2IiXLHfahOIBwj8cuP0DSfhL2HM6rCTIour0Bm0BrXhg0RWzigjdpJ8vkwnKYfxSxiHg+P7AdDLSrrtni3rUvRnf3IIsMpKzPCyKMu9h0/wca/ytP+NWUHSZo7A5nqxbtQq5QjqToO/0EjKVjfqVwgaG30AqHMtgPWQTXQXJ5PoUNPTIouUWA/k6o92z9aMzn5G+qTmmGNmZsH2tQbyO174dm+Kbk/z6aoxLg8ekNiikXbhTjXrfXKTOz/tkCIiYkhNTWVqlWrYmdnh0TyyESvVRBz5RgHNq9id2kTBtSwJTE/EXc7R9IzM2nZdypd6tiXGxBiDjFmpymrZ7Yi/OBe7njXYniNQL1DcOiWjazasI9CcztajJvO+LYhGMkS2XX0Lq179MZeFc3q+YuJLVCSkhCN2ikQdysj8o3rsXjeMFT3z/HrmQdILA1Ql+Zy6UIinlWdyU/LJaj/RN5pbsmBbcep2qoWRxZ9j6ZREJ4iCTdiDBn/yWDc/srwo8li//Kl7Lwch6u7CcmKFvQJKULiXpeYjRups/5LMrbs5ML5cCxdrbDysuLyzvM4NK2Ps189Jr7VE3XkVe4mZqHUilFpjHF2scFQnsnNeA0Nm9fHOuIwC9N8eVN5kLOSVjhHHCWtZQscc1S06tiFKnbXmTnxJzKtfBmovcGPzq2pb6rGQBTJ+ZQerJ/Tkptfz2C1TR06mCopVGixkJqgVpQi9W1Et6bBGD97sqLV6P82DSydX+YR/tJtKpVAKMrTZVL8EfcWo1+7TIry8yOIPxKOsVkJpRqf3wWC0qM9hgkXMGy3BI8mrRCJVKgiNpF6di9KjQVGDp5IrYvIv3Efo+B2SI0LKEmMRlFSisjIB+vB32Atv0HKllHIytwxc7AGtQx5chwqrZn+61uic/TJvEOppCaug1di6+mMtjCa3BNfIMsofvFm0Ioxbfw59sGeKCMPI0tKeekXvlisM5WX6h13XuqSOGHdbghGGgXirJ0k/XoaadNRGNxZSNKteMxqddZHMUiqTcap6hMbXJ5Izt4xpEWVIjVKQ+UxvNwH4fBRTH1ro0pPx2bUYZzcLaAkioKj00i+cAeN1AZTkRylz0AcXMsoiThBQXIWRj4tsHJ3QePUFod6bRBHrSBm+7cYtliBdd5SUp8UCLqJZW7n4bovkXsOx7vfBxjrRAUKSnQC4VYqliGtMdJ7IuqMMwoUcdfIz3TGa9bPWOqaZuwgNfS83hpQ7vygQpV5h+LkXIxrtcOEAuTxNyiVW2DVdAgOLcZhmvwREZv2IbHzwNBARmlWGdY9ZmGWe4rc0uq4tm2NNuM+StuWWDo+46RYeI6UDVPI07bCb+ICTHUPkZjJ3N98Fes+S3EOaagXCPH7LyK2stEXhSkrssRhyCKssxYRf64Iuz4LsIwYR2y0O27DvsfK5mi5QGjWF5OYk2RnlCF1ddMfk6lS76Jx74Ctg4rMK+E4TT+PveQG2TcfYFS8jaRYf3w61yLn0E7kpWmUGjUhcPJ3mLwo250ilqJ7V1HpyuI9d6koCp1DoeM7BAwYQv66DuSXWaLADktJJCUKZzQSC6yM7lNAMCbKZIpsRhM0cvSjiIlygZCSZIyxrT3kxaJyfRPPRoFkXjiEtPlsrG3ykWcWY1K9I0Z/EbH6Unv+Hzb6twVCdHQ0mzdvpqCgAD8/Pzp16qQXC7+FBKuPf0Wf0Kq83VDNrTvh+qPcMo2YkLb96VnfiCsnIyhKv8qyC2ZM7BdMwpVLJDh509bHA48gXy78dIik6ERUqlw0zerhlmGKq4chyXIr+vbsjJXsFnv2n+ROVCy3z97BvklDHAwsCGzRkFbNO+CQdoZVoSX062LDub3nSXZswqRenhzae5n2I4bgbqAl6uIhbsVlEhdxjxxLb0IcLVBWb8OIhl5/bT3Qi/8Mduw8QYN6CpatMqBtcwkBTbty+/NpOHw+gagTN8k+GUatd96gdjVPdny0mQYf9CPhWgRd+/XGUpbKhkXzKXRx4tYVCZM+bYdVxh2++smBTcs68PDSKY7v28Udy44MbCrl8vodpL3RnzZGBrjVakB9l3t8uyYKkakxNeIvcCSkMe6xeUhqi4i6EsL8L5pzZ9E8Tr05hlEG2fx0Mp7eQ7qScXoH6XataRXi/JyA1ShLyD23Evs20/7hznvxzyqVQFDISyjLisTctfprlwdBmbST9F9+QCNLokjh/rtAKJWD2KYBboOWYOVSrsBRylDd+5y4Q5f1Hq6oC1DkyxBJ7TCQShGp5YgcG+PU+UPMXZ0h9zqZ+6ZQVGqrdyBDVUBJfBRKrTlmAUH65CGa/FjKDINwfGM+1m5OaPPvkv7jcHKVIThUfzJCQIs6+x75YdcwHXINr6AXnMFV6BZ7prPEuUSu+xmLHl9iFreaxBsRGDu56Z0TDZtuxKP+b1/q+pJnFF+YqzdXi9OuovB6JBAOHkZkZIQkcAz+Q9/HUOdMlHeYxJUfIbd2Ql1ohVP9+mh1McFxP5N78xJq1x7Ye+SSd/kcar938R04EvXFL0j49QCWQw9iGv7e8wIBJUUnx5B08j7Wbx3ExVd3Xl4uEGKvRGJgbv1ErgUNWnkhKk3VxxYEjRxNUQqF176lIDlTH1GhyomlNE2GcVBdjChGnhSFXNIY3ynfYmYiRRQ5nftbTyBt+DbWprdJDb2CVffpGERsJiNVi6WbFYqMJFR2PfB5+9NH1ed0jDWoojbzcMd8FMELCOzzRvnL8d5YInbcw6bvNzjXrFtuQThdiGuf6RhrTpKy/RcsBq/G0bGAtA3vIA/+CNfi5cTFeeKmO2Kw/k0g9MMkNpRsTWN8BozGkGKKd/Qj07g1tvZPCARb0KpFKEK7EnPfD58hMzFS5yE7NYGU1Jp6J8WnohhUeZRE7KY4K/s3t7QnNoxW7yluUGUMmkOtyLZ4D/++b5L/XQdyS0xRGnlgrblPsdoRtaEN1ob3yCvzwsywBJmqMQHvL6TcvUYnEBqQXlof+/pt0dz8mlyDLnjWMiVu12aMfBtjqMygLK8A8x5bcatT9eVeNP/C38m/LRD0NORy9uzZw4IFCxg6dCiTJ0/W+ydl3DrGtwvnc636V3zVtJC4nHQuHQij0aBOODn60qy6AxmJOZQ9+IWPbvjx9RB/7p88xgO3qvSq6oulrYR9yxdzUdOJNy3OctJYRM7dQGZ/0QkTIym2VuZIRHLO7FnJrl8jKFXpqkSaUphURstNKxllpSH2znmOXCqlYfUsbqb74BZ3kYQmbhgkVmXEkEYYaQo4sOY78pQKDl9OwsfXDt35kHNeLs7jPmOQ70sUbpIl8uPPF2kWUsySH21oW0+O/yOB4LhkKTUVKWycup5qI+oSe+kKP/9wBpdub+BlYEy790bT3LSU9YsXofZ358LRYgaMC8AyO52t16rpMymWRYfy1YpzVGsZgjg3kVuHD3HXrx2tnYxp0H0gbX3uPyUQ9gdWpVaqIdEBxZRENNQLhBvz53KmsRtWyV64pF7iboeR+P66lYC336eBziH3mUuXN0WeEYapa+0K3ZWVSiDkZyaRdvRrAvvMQWL6+Ovp1R4xaPQPMV3oC5pMZNuGk5xsjHOHPuQfnY8qeDqu/h6YBLfWv8j1pn7dlXOSvIgwtMoUZFd+pUhuiU3zfpiaKCm9uBaZRRc8By/BzPIFXrqFZ0j+bgoFytp4T13H7wXOntwa+XdJ2zaCPJspVBk4+InYcw3K+1tI3LkAg/5XX51AeONLzGJXk3SvELdJx7Cxe+azTef8pvMOVqsRkUj2N93J04U5eqQT9+sJLJtNxbZ2S8xdfMpDB8mm6MYVRCZnST6citvw0ZTumEhmgRTzukOwNTlPSuh1tAFD8Bn6CSakkXtgMulhKlynrEFzZOQTAkGF6vo8kmIU2NVui1KWh2XtHhjqPaa1aHLuIE+PIPvgVyiCp+BU+h3JaVVw7vQeplIzJNa2+iMjAyNjKE0k5+B4Mu8l63+rVRajVqj0nvPlUVlatBZN8Hp/JWa67h9MJ2LDbjQGxohEajRaU+y6z8AgYhMZ0ckYe1THIqgDliH9kNrqBIquCzXaojhyD75Hengetu+ew8Vd57alRXuxD+FHc3HqvxzH4BrI9T4IKjzfWoCJ+gCJa37EbPBqnPwCUeVEgLkvygNtiU/0x334JiytjjyyIPTDNOEs2QmJT+wyEUYBHbG2KX1sQXgU5lh2rHO5QBg6F+kjH4TfohgMdKGcZ1dTognBrklDCg9NIDMs/sUWLF2p4S5bMb/cl1zXafj3HgIZp8i/vJHM2HysPEOQ+nqRfekk5ob3KXGbjKN5GIlnonD5YBtW5pZIjDR6C0JSlByx7u9PXYbEvx+etaTE7dqI2NINaUBjLKr3xLJqYwx/Czeu0Efty3X2bwuEe/fu8dFHH5GXm8f0GdPp3Lnz75kUVcXFFJ5bzPTc8bxre5xbRhJiF3xHboN29Ow7kPY1PPQ5OBIObOJbgzYs6urF7SePGNTprJ81nzCVCUYFBZRVsaIorj6rv+mNgUJOmcgQqUEZx7cv5adj8RhZmOr3aHZMAU23rme8ne7FpyH1wCcMW5bChE1r6VGyjR4jfqb3xl2MqGaKuiCZsJhc3AJ9MI3fyFcHvBkxKARHYwNKJFIcnW34K4lQmhTBltAIutfJ5es9nrSrmoFr3XaEzZuF5+rvaGuYxtdvL6PTurm4nNrMFzfisRC1ZubUtlgaiJDnJrP8k+kkWVpz74EzE6cEYZOdyubLQayd35KoIzvZfS0N76DatGzbCq/wFfQ/4UItcSa9x79DsNlFPh6/jQyrQIYaRnPAzZGiUw8x6xmEOLYx879owsmvFpI+YTzGm9fiVrMWYeGh5FsNY8awGi/MI6KRy0j9eTruA8vrbFTUVakEgrKsFHnGfczdarw+FoTCm+RcDkV3dKozu5eF7aMgX4JFQDCl0RfQuHbHzt8VkS47nsYOy/ajMNXKUBVlosqL0nv1Z4ZFIW0xB7em9RAVR5G7eQS55t3xHDwfqfn/RiAMJ1fSFY9WLZ8wSWlRJZ0k88x+jAf9dxYEbUkiJbHXUWUcJPXkdUzrvolx5klykuTYdJmG+aN5akUmGHvU12dpy7oerg9xEmlllFzeTqlZDSytisiNTsC0Wh8sXWx1BdQR24RgVa8Tuue64t5U4g+m4jZyLkYZ28mNy0aZchVZjhgTczVKrQd2XT/Fzt8LVfJJZBlG2ITUpODASFJjbHDvMw5DCim5sIr0iFScJpzH0aPcyqJVFaEpzkZVEE/xtRVkRWuwH7gEi7vDiIkLwLXHdKRmxeTvm0Cx5/t4tuuLRKJF5xSqFzsF4cguryD9fBy2M47hYK6LYdWg1YoRmzxK6PNgOvd/PIlF87FYGV4i+fh1LLvNwChiE2l5gfgMeQ/DjBNk3EvFquU0rKzzKXpwHNmNbchSFZg0/RDP9m8gkkUhT4+k5NRnpOf54DpoFbZersgvv0XckRgsa7ZEoo2j4E4yNsPW4ORfFY0sBkVOFAX7Z5BLQ9xHrMVC+iuJs6ehqNoWc5MyFCVFT3xdixCZu+uTvOQ+yHocxaALuHyBQEiOtMGj77sYFEeTc3IN+eoWBEz+GsPCeNRynQPh0481bVkOiswoNKI8cvdvQtvwM7w7DUSUc4K0nZ8itw1GnHATnGugyEzASJtGqcoWc19nSiKikHgEYhI0CtcWHSjc3IAMVXMc6zdFdWUuOQbd8AyRErdzE5Zd1+IUZEPpxRUU23THvmmfP0/cVVFP3xf0828LBN0RQ3Jysr5Ik/iZLJdauYz43V/xhWIYnYp3EVFmRvLZSFq/NwBnK1da1/cj5cZJtofG0uatETR0NnteICzaikOzxpgnx3G1JJHEcwb0HtGQjGvXyWveh6HOBezdu4u7cXIsrXW5LrSkhyXg+uFURgUEYC1/yK9bd3DP2BEfFy+cFZEcuyfD2asabTq3parsOvvDcvXCWJQVyp5bvvTs4KN/vhlb+dK8U0McNOlcu15E/Ub+LyCsJfzIOs6m2+Irv8JRg0E0Ld1PosSTpCPn6LZ7I20NUvUCofakDoSfjKPViDcp2L2S2zatGNStCdZl2ew9cIyQTlVZ+2Eob309CMf0i3y43YF1X7cgI+I2YQkZFOTlY+0RiFX+ORYtOk6zqXNpEexGPe8cfv4pGlNnF2xPbuHysCW8560lP/oHPt8ZyOLJDixadoxmfdtTFh9OmaEp97YdwvmdyTR2tcPP3UkfofTkpcukKE+5halH/QrdnZVKIBTmZZBz9Xs8W73z+kQxZO0ncec3KJTqv1gYXaxsAM7vbsCi8Aipe1ehC2/RSJyxbDkZhzrNUd1fTeaZAxSnJmPUYDqePcdg9KLYloJTJK2fiqysJl7TN70wUZI2/w5pPw4nJ7kMA+NnQmt0yUrK1JgNv4FPtT/IWFeh2wxUKQdI+X4aRTIlGpUuFa6k/OWoC00zfJyYRWvoiG2vxbjYniNhzwHUf5keWoOBe2+ce72vN7crwt4n7lAa7n06Izu2BVlOHkZ+PbBr1hdTSTI5h78mN9cOt7E6L/9HkSI6E/iJKaScOofWzAoxOmfYYkRVJuI3dALGj0Le1JknyTy4jOLMZBQqc6w7zMKxbnM41ZXIU2kY2rogFslRFJRg0Xkhbo1aP+WIpwqfQcLPh5EX2eL42WkczV4QXqoTCNsvYtfpHbSRm8mOzMCm99eYRq8l+W4sxvaOiOQ5lBUb4jDuBI6WN0ndMJUCpQO2rT/ANqQVRiYGKCK/J3XfUopy5Ji1+BS39oMxMpZQdn0CSaG3kNg4ItYWo5AZYd1nMQ4+fpRFrCLt0CaKs/MwafQpHj1GYqQ5RNIXkyjAEMkTkTWPt4cWraIMtdIW5+kXcbAvtwSVHelIzANfvId9jZmVIbKjw0g+cweRuRUiXY4OuQZpWSwOIgAAIABJREFU5434tGz8x+b8vKukH5hFQUIcKlyx77MMx+BASo4OIvmBDc4DP8Mk5wZFD4+RffUKhp6NMQ/qiLm3A/J9E0h5qMW623zcmjRHtrEBmSaDcfORk3psKxqPfng2dSVx4yLUFm4YmopQ56QiDhqH18CpGP9lVcAK/gN51N2/LRD+bNTavHj27zsNwVWQlhhT1cuMxKRMVKoyFFKdQPDgyk+7KQpqT5saHhiJNTw4HUqUaxV6BHqBJpdfd5/AMjgIs8ICMgyMcVGXkadQIzK0wFcXSnr/DJcSZBgaSTEx1u0VLaW5ucitbKhSNQRt1EWizKrRrY4953/aTpJNPXq0q0XetbPEWFWle+0nsnw+3Mqy0zWYMLzW01/VWSdZss+GD0a/wNyuziH0x0PYNGuNOCsNU5/qmBSmYuHsRUnMA0xq1MRem8rqKeuQNvHEJbgjbaq5os6P59iJ23g3b0egVM6p02eQaPM5nRXMhz2cOfj9Gi45jeSboX6kRN4jKU+FhYUJMVfPkmMVSC2XUo7vOom69RA+faMOajXoHoHxW7/lTqt36emUzdENG4n0HUw/+xj2Z4qooy0jR6eE1MUkpytxdbPCwNqLlnWrPpcESlfNMfvMEhzbf1KhG7NSCYTyzzjdp/rT6unVHjH8g/XQpFJ4bCGlNq2xrtkJI70ruhpl5A9kXjqEyK0Lts1GPI7Tf/YWJQ/Iv/wjcmUANu2GPe/RqmsvT6XozlZKDRti7fd0jXCtLh9BzDVEwVOxcX5BUpp/MKW//InupVAiA8mjbGF/8ANdPC8m1hgY/pWh8MUdqFO2kROei2XTIYjDFlHkOAxr38DHL+rsULLS3LGvUeXpF5O6EGX6LeS5Gfr8EiLLIKReQU8/eEoTkV3dQJm0IVa1uvB7Ph9VJqWRx5AX5KPVaJHY1sbMvwkGRk8LAE3eHtK3r0XlOwzXTkN4oS9c+k4yroUjDemGJmw7xXhh3Ww8UqNkisN/QZ6fg1prjKH/AKx9dE5ZKlRZsWBX5anQJ23BPWT3z4JXXyxdXiL0S2fczbpE3u1fwa0X1kG1H8Vdl6DMjENj7IKRld0LXuYqNHmRyPOLMXRrgOFvUYsRS8nJtMWmfj+MzEyhNJmSqCOU5GTqcxoYerbB0rvan9d+UKZRdHM7JYUSTGsMxNzJUX9/TXEsigI1xq6B+qRjmtI8tBJTJLrkGb9dhafJOnUc02YzMbc1Rn7+Q2RGOn+JTNIuX8a01ihsguogyvgVWXQ4SnkpmPhgUXcoJi8Sbn+5wSumwasUCBUzA6GXV0bgBe/G/+1YKpVAkOWmk33hO7zbv4/Y5PGXb6UTCP/bVRN+LxAQCPyfJCAIhP+Ty/qvT0qjKCYrdCFOnWdV6L0qlUBQyIspTb2LpVfd8kp3jy5BIFTonhA6EwgIBF4RAUEglIPX13/Q6Mzw/0WW11e02BV4W53lVZ50DVPvJhXYq86vTuc99Rpcp0+fZsyYMURFRf3haPIyEkk7Mocq/ea/RlEMrwE8YQgCAYHA/wkCr4tAKIo8x/xdEQybMYaAp7JKqslPSyIxPQ+915VGjKWnP34OTxbXymHj3HXUal+LXTftmTu2/vOe96lX2HDTmlbueYg9auOjj2B4fD28vJ5d4R6MHdmR5wO5FFzdtJKj1YbRv2A/CQ7daR/i8NKhqSVZ8UQn5qF5qrS5FpG1NzV9bNHkJnPnYRYiDLD39MIlYSsfHvPkoxndsH9SryjjWDp0GvafbWVo8BPHW7ppJB9m3jYFIz/ohbMBFMVfYuO20/h0G0T3Wrp07I8uxQ3Wroihx/v9cXmBFsoPO8d399RM6d/qT1Mta+QFpOyZgsfg9RX6d1CpBIJKV/WrIAUTW8+nyt0KFoQK3RNCZwIBgcArIvBvC4TIyEh02RSrVauGu7v77yGOj77bKbxzhLXH71CQX4S2tBS5oRqxWQDtenenbTVPJNpijm/ZwG21FX7WFuTfu0dC417Mblf9ETEVWYdmsiy1N580T2LCLwGsHu9HSloejm5umIhVFBbJkcbtYNihOoz2uYpRk+EEmykwd7TBSKsgK/YiK+etIdHCCw+jAu7Eqhn21UJ6BZfXYyhLvcXiH64zaMIIio+tIMZ1BO1dM4kXexLsqksr/+dXQeINzv+yn3W3LBjS0ZOomzfQOPhRq2lXutZzo+jQSoaF2dHJ/CGpDzNRWTsiyU2n0MqP4eNGUNvJnDJZGmc2r+NXq+r4pqdQrUcfmlV1wUikJe3WcTbuPU9xfha5Fn405gEHzNvw0cBOhPjY6X2PZJGXWXkimr6drNj4bSyDpw3ATmyIpaM9RjnxHD93heziMlLu3eGhUoKbVxBeNkZY+tajU8Oq6P07n7i0GjXK3HiM7F8UufHPN3OlEgiF+kyKW/FoMea1y6T4z5dA+KVAQCAgECgn8G8LhISEBHbs2EFiYiJOTk707NmTmjVr/p7wS6tUUFJWwKlDx/Br2oC7qzdiOfpj2nlKMdRHHhVz7PsN3MUaf2tL8u6FEd+wJ7Pb1dCPvzTmOJOGzKbaplAmig4w+rA/U6vfZF+8LW8N7Ya1KpPDv1wgxD2bmWcaMsb3KkZVqnFwRxzj5w3HTZPBkR/2U+xfheQTe7idIqHRiMmMbO6F3pChVXN+3edsKm3Aive6E39oKfe0IaRdCcWq3/sMr/NyDrnamF+YfMiGJZNqc+HwPhTejWhX3VsfVVGoEwgRjnSzSkMsNSUz15GOnayJijSkc5cGFN07w57DZ8m0qMGA7vUoibnG0TPh4OhN87adqONQwonvd5ISUB3Vwzz8C+9ywL83I70MkNh4Ur+KK/eOb2LvzWKq+8s5sCeFtv1aYY45NTq1wVdUSlZePiVZ4ezYc41a9T3Ztz+enuOHUdvdDkcbi6fTlOsMOYoScs9/i32b6RX6p1SpBIJGrUYtL8BQav2a1WKo0DUROhMICAT+nxL4twWCDqtSqWT//v189dVXDBw4kA8++ABDw/KQX/WxhfTcLaOadYm+7HZRbjGWzg441+nK6C51MJZokOVkU6zUIBGL0QkKtYUdrpamqLMiWDxvMwbKdKQT1zNWvZ+hXx3HxrsxE6YOJMDaBJQFHNy5HStxBmvjujPG9zLJifkc8RnE5v7eSOQ53DhxiP1HLlDiFkIDqwJOX4vC1LMaDdu/QTfxYaYuvYdVn0F83qcVMdveZ9YRU/p/MI5edbz4y+hUVSw/LtxKbEYMxxIs6FDHgaTYaLRWrng7WNNo0DSqXlvPAuduzKyq4s7JQ+wPvUtJaQ7Y1aLVsCHUij/NLa05WlkxmeePkFOvE37GUmoEm6GxbYhbcTjnrt7lxvnLGNfrRI3sq5wJ6ExQ4k3cOo9kYF0Ja+duouqwyTSwucGCeZG89dlw7EUiDE1MMBCpyLr1C0u+O4V3i6bkyGBwfTFr1oVi13oA7/Vqgumzyby0GtQleUjM7Cr0L6dSCYSCrGQyQpfg98bnSEytfgchHDFU6J4QOhMICAReEYF/WyCEh4cza9Ys5KVyJkycQNu2bZ86Zijb+wVjDaayuceTPgWPYYStn8qqBxb6REjmYwei+ukAEmcp9xM9WLJqNMaFKorWzmB/hw+pf3sNk467s/uHd/H+/c2tIeb4Xg7cC+V60WjGOP3I6ptefL7kHYKNyri0ZyM/3iyj+4D2xB07iH2TN2jqYUzUnQeo/OvS1s+ApFsJHE6T0bmGPXuXLkTZfibvv1G93MLwklfR2e18mFaXb/t5cvYJC4JWJ2CWfsS8c1paVbXBqnYTBrWy5fvFZ+g2bQxV7K2RGohRlBZSICvixpzpxI6cT19vS+ytdV/2GlKvH2H93jPEXLuCum43miuTyR31MYHnD1C131tU10Zx6sJD4qKvk1aQzPlzWdRpGYJ1UBem9KmDOukG3269TIO336IWWdyOzqZ249qokm5x8n4ZHds0xOzZEOqyQtIPfYrrm8teksDLNatUAqGstIjSlNtY+TQQohhebn2FVgIBgUAlIvBvCwTdEUNaWhoNdZU4n8mkqEtzHL1mDjtbzOCT4BfnR4nYuZDY6uPxPzKbLfU6UC1DRa9ernw96Qjjvv0AN7GWhHnvsalKdwJiQzmgHsyOD2sjS4onw9SRKvbmKHOSCLvwA4vuduJt+/088B3GO+39ys3m2kLuhp4hIjme0IvR1G/VCtPwXSQ2WsBHPTz1GROLH1znh9sRSDOKyC5NxbvNFHo3sCD+1h3MqtXB8a+UgqKA41u2ktKgJyNq2D0lENR5cew/tpNDp30Y28+GC2HheHpKObbrLg0H9qVV80b4WZuQlRDOzbBY7v3wHSmdRtOqShU6NgrWJ7YrS7zMt0dleMT8RFjt1tidD8fx0w8wOvBzuUCwEuszq2q0WiSqS8yZ/YAxs0diowUDXdSGtpTbu3YSUaMGRhfukiM2o9nA3pjc+ZUwTQBdGlV5LoGeLoqh9OFFpL4tK3S3VyqBUJCdQsap5fh1n4nExFKwIFToVhA6EwgIBF41gX9bIPzZ/DS5ESxecZ4eM8dQ5Q8qWt5eM4HvEjywjr6B6t2RGOw9hKWPBZdu2rBq67RHAuFdfu29jLGiXxiyNI3hvb24e+ICZoPG0rkojDtZakRJoSy74U8Hp2gkAa0JtJfgULUpTas6oM65z5aVmyio9gZ9GrlwefHn5I/8jlE1yiMFdALh+8hihnZqTsKB2RxMr049L1364oeMXjuHOuK7rF2bztiJHV843diTG9h404Bx4wbhYabmzKGfUXo3pl0Nb33qdkX+cd5+6yz1mtqh9g9hXDd31s4+Tp9Z7+GuEwAJVzl+OxU1WuK3f0dKx9E0sxWjNXCmaefa5Jw5QbjYjKy9ezHtUJ9Llw2YO6Mjp3bsIajf21QXR3HsxANKdIJIFc3Pe1Jo178Vusw+Rhbe1PIoZM2+VEYOc+DnLUn0Ht6O4l9WcsK2N3VcpDSoHfRcRVSNzoLwy2xcey2s0C1cqQSCPjZWVxfe0PSpbIrCEUOF7gmhM4GAQOAVEXh1AkFF/LmjnDOuxrAGOme9F18Zt06Q5dISl9TL3LdxxUympVoNW26diSe4VV0sdCb2n1YR3mgcHdwUxFw4zbWHeUg9atCuUTBFMTdJKHqu7Ia+SJOFSxBVJPf4fOFx6oyaSM+AQn6cv5Zot05MGtkc20dHCKXJUZxOVtK2QTVU+QlcPnuFlBIJVZp3poGHGaSfYeN1X97q5vGCSaiJOvcrCv/2VHcxBq2ShAcRKGy9CHR6VABQkc3dWC3VgxzKa9iootiw/AqdJw/FVayrFh3F7YT85yahxpJq9atiKQL5zb1sjHOhdRVjCu28qGtnwo2LV3Fr2BI3cTK3bqehfCrMsnyoEiM7qtTyw1yXYVlZwK9rFxMaU4SZV3NGvdMTb5MXn6PoLRLyQiSmjz+cK2ILVyqBUKSLYrjxI+7NRwtRDBWx+kIfAgGBwGtF4NUJhNcKgzCYv0lAH8VwcRX2rab+zV/+efNKJRBUyjIUecmY2nshEj+2gQkWhArdE0JnAgGBwCsiIAiEVwS+kt+2PA9CHEb2ARU6k0olEPLSE0g+9DnBg5Yhkdr8DkIQCBW6J4TOBAICgVdEQBAIrwh8Jb+tWi4jZed4PIdvqdCZVCqBoI9iSL2LlXc9IYqhQreB0JlAQCDwOhAQBMLrsAqVbwz6KIbES0h9WlTo4CuVQCjUVXO8vAmvtuMRGwvVHCt0JwidCQQEAq+cgCAQXvkSVMoB6Ko5Zp9ahmPHmRU6/kolELQajT6lpMTYTIhiqNBtIHQmEBAIvA4EBIHwOqxCJRyDLopBUfTUh3NFzOIfC4Sy/EwexKZhU60mnn8QelGUHk1srgF+/p6Y61JD/kmmq5ep5liYl0HOtS14tnxHiGKoiNUX+hAICAReKwKCQHitlqPSDKa8FsNy7Nt8WKFj/ocCQUvyic30HLWSbmcuM8vr2awaWkrjz/DF1A+5YNWDJWPqcONWAe0G98H/+dqd+gm9jEBQyEsoTQvH0jNE8EGo0G0gdCYQEAi8DgQEgfA6rELlG4PeByH5BlKvRhU6+L8hELQkntzGx8u3klmiyzaVzu2IVFzq1cFDn5XTlLofb2FeSylJF3czbcpnXLfuzqoVn9CocB9des3CYeR8Vs4YgKvp84WvX0YgCJkUK3Tthc4EAgKB14yAIBBeswWpJMPRZ1I8PBvX3q8sk6KGqN2L6fz+Rmr06oBDehSHToQT2Kc3Iao0jh+/TpWVV1lks4thAz7ieok1Dds0ws1YgkgsojDqIifjxPSZu56NY1sjeQb8ywgEnQVBnhGBhXtNwYJQSTauMEyBgEDg5QkIAuHlWQktHxPQqlXIk69h6tW4QrH8DQtCuUDoNONXJu1eSo3bh5g0axdtvv+et0pvM/PjhRjOPsPmemlsWbGKi4kFSCQS/T9dURCxSESZLJ+S6m+y5fNBmP8DgVCUn0XerZ24NR2J2OhxtbHIefVx6zUbqV+rCoUjdCYQEAgIBP5LAklbBurNxA7tKvYs+b+cg3Cv/56ARllK3qV12LWYWKE3/1sC4cHORXR972vkNnYYywtJy5Bh7u6GtVZORpaCFlvucai3ORfWzWHCN3soVWufkDhgHdKTBfM/obnX86VEX8aC8EeZFCM+D8LAzBmJyeMS0BVKSehMICAQEAj8BwTKsqJwaDlMEAj/Aev/S7fQZVJU5MRh7PDKMilqkSWEcexqHC5VfSm79siCsGUzb1uUEBebhEXDN2jrBaeWTOPN/VbcP/0VTo/cDTJ2jqLzFku+27CAes7Plwp7GYGgy4OQdWkd3u0mPxXOURJ3Bq1a8X9pvYW5CAQEAv9PCRjZ+WNo6/P/dPbCtP8JAX0ehNOLcezw2T/5+R/+5m9YEJ7sQ0tK6Pf0HL2KHmcv8qn7Ey98rZyTS6bR54dsvpk9COtHoY3551exICyIjRsXUP8fCgR5iYySh1ewCWiByMC4QkEInQkEBAICAYGAQKAyEtCqFBTHnsS8SqcKHf4/FwintzJ4wjo6HjrJR0+GOWpLObPqE0avvkAVf+ffnRGV+Q/JcurC2uVfUNvpH1oQdHkQrvyAZ+txT+VBqFAiQmcCAYGAQEAgIBCoRAT0FoSzq3BsN61CR/0PBYJuDFq0GkAsej7/kS6rk/apZIfl7RHpnRVfdL3MEYNSIacsJw4zp8CnqjlWKBGhM4GAQEAgIBAQCFQiAlqNCkVGBMYuNSt01P8LgVCh43ipREnFBTnkh+/Hpf4AxEbSih2A0JtAQCAgEBAICAQqIQGNUk7Bja3YNBpVoaOvVAJBIS+mNOUult51n8qDUKFEhM4EAgIBgYBAQCBQiQjoMinq/PPMfJtV6KgrlUDQRTHkXN6E5zPVHCuUiNCZQEAgIBAQCAgEKhEBvQ/CmWU4tv9/XM1RXlRAYexZ7Ku1R2RgUomWTxiqQEAgIBAQCAgE/h0CWlUZhfcPY1mjd4XeoFJZEIplOeTfPYBLg/6CD0KFbgOhM4GAQEAgIBCorAS0ukyK13dg23hkhU6hUgkEfS2GtHAsnqnmWKFEhM4EAgIBgYBAQCBQiQjofRASr2Lm07RCR12pBEKJLJeCiEM41e2D2PCJKIb4dqBRgVhInlShu0PoTCAgEPhvCagLwW4Y2Iz7g/tqQF2AVi1DpIgGTQFaAx9ERi4gsQaR6X87XuFurwUBrUpOwe2dWNcbXqHjqVQCQV6s80E4h31wu6d9EGKagXU3MK1boXCEzgQCAgGBwH9KIGMBWHUEu6nP31ZTAoWHofAIFN+hPBHNo8vQGsxbgVVnMKn/nw5ZuNmrJ6D3QYj4FcuaPSt0MJVKIBTnZ5F7ezduTYY/Vc2RuLbg/BlIW1YoHKEzgYBAQCDwnxJIGQomtZ4TCFqtFlH2V5B3BDSlfzwkQ0dwng5mbf7TYQs3e7UEdNUc869sxLbZexU6kEolEEqL8imMPolD9c6IDJ8wpQkCoUI3hdCZQEAg8IoIvEAgaLVqRNmzIecg6PLWih89+3QWhRddBnbgOhukjf9wElqNBkRi/iCx7Sua/MvdVieWdJfoLwavF1V/0EY/f7FYnwX4z9rpMgCXN31xBuCXG/HfaaW7nxax+FGVw5f8qc6CIAvbi1XtgS/5i5drVvkEQtQpHGp0EgTCy62v0EogIBCoTAReZEEouQApn+h9DzC0BbclIDKE+MF/PDPdMYXTxyC2eKKNlsKMeOIKism+eIlMn2bUcDLGKi+S63J3WresibXuvaRR8vDuRR5ovQkxTCG6QJck/7dLjIWrD0Fezhj+9g7TZHNubyjqwMY0remJ4XOj0lCYGMGpu2n4NWhBsKPx8+n5/2yNtCpSI28TVWxF4zr+pFw/zNkkE5qG+GEoFiExtcLFwRqDJ17iZUnXOXwznwZtWuFu8VvtHw1FGclk5eVz71YYkqBaBFlLyUq6T4phNd5o5P3cuJSZYfy45wbOzTvTvrrT77WFyoerRXbrGGdljjRpEoKt4R+ICE025/efRlStJfVMUth7MZ1GPTviY/J8+/wHp9gfpqRT17Y4SSUvvXPLjxh+wbJmr5f+zcs0rFQCQV5SSHHCFWwDmz9dzVGwILzMWgttBAICgdedwLMCQauArG8gb2e5z4GhHbivQCsyQpQ6EcRmII8DjfrpmRmYo/XYiMjY/4n/1xAdupn3fziL1fnDXPZrR71ajeiSsZN5pX05sX0y7hIRKIvYM+dtVmv7MTp2DrMjzXC3N0enB+T5edh1ncSaaQOwN370glPcYGTVrhS9vY7NH3fH7Jn3XmlWBCunTWR5tBfL104mL/QMvt0G0tLP7uVWQ13G9Z3zmbolmRlfdWb7xCnsi9EQ6OuKsW68ni1Zs/xjXBOOsfVcAjoS8uSzbPwlmfa9exNgb4LY0pkOndqQunkmy88/JOZ+DAY+Afjb2VKWfY8beU50qO2JW90uvDu2Dx7GIrSlWRxcMo2JK48hrdWfNevm0ML9yRT/Kq5Nbsybp6x58802OBmVT1yLlGpvDqFHgG35/BTXGVm9F6KpP7HY4TBuw0JZF3eWwQ46AaDm/OpP+OFWDjq7SGH8JU5GQbMWDbAzlaC29GTcmNHUD3T6U1Y6gVAUdQqL4NeimuPLrevfafUyxZp0UQyy+7/gWKf301EMgkD4O6iFtgIBgcDrSuBZgaDOhLSZUHSjfMSPBALGVdBqNeUmdEUcJAwqj+R68nL9Aiy7//4/Ok/3vTN6MXX/A8oyUpCZOmAX0og26dfZp/GhbbAjDm3G84F6I93n/UKOxI8Q6yiKQqYy++1m6D54H+ycwy6TPmz9rAozW47mXInutaYiNzERhbUbzpa6SDItgV2m8u2iMXjmXmHGwBFsL27Aum1LaW2Ty7yhvVhV1ImzxxZQ9Y++up9ZH62mmLs75zNudyn9GpgSceVXNl+RMnFsNcJS/Ni0eBJle99n8PKLFOamkGHggpelhtzkRDKN3ahWsx6fzp5H55RvafTxPlLTs5HY22NtqCa50IS2HloOpnuzdPlM+rdrgK0BXNv8AQNmX+ad7d9Q9ulQdtoPYOeKGQTZ/Xa8rWBXnyqMuSjC09FSL6DKBYINXZZuYV5LKw6vnsln3xzkYVIKahs37CWlxKXJcfHyoP6oL9k6tQcJv65h869XiXyYxZMrKDawoErrbozt251Ad+u/EAhyZHd/wqrOkArd2ZXKgqAPc7z3KMzxyWJNgkCo0E0hdCYQEAi8IgLPCgTlQ0h5H+QJTwsEI1/IXQ2mdUDaDDI+hbxfnh60wzCwm/xYIKiVXFj/Ie8v2sH9xEzM/erQsKo9kRfj8Wxfk7grEXScsY4vgmP5ZO5yzpVWp0nxfg5kexHioOTq/Wx86zekRd/RfDbAhLeqDyanaT86V4eDyzdQVKcffVv4cO+HhcTW/4KdH/szqcdYTqUr8K0Wgp+Thf5svTQnmbDwKJR1x3Pwx0+pb/f8ocSTE1GX5rBr3mQWHkigeucOGEQc51qxG70DSzlw7iHOtdvz9scf0tNbQmzEVfbM+5z5D2ux+csm/PT5HM7W+pTdo4Lx9fHF7vwsAt/bh0KiwdYSMg2CqeuQw+2b91H02kT0ml5o4i6xftFc1h6LJKjvJKb2aoAi9TLLZq/gnlEA/Ue/z6SRHXA1zGFBs+r8HDCRr8a2ecpyojF1oklNV2Kun+L05bN8P28NmrZjeNM8nA83RjH0y/fp3KwNbzSqgqE2k40fjeLTn+Jxs38kPspyiU2xYu6FS4ytYvSXm7G8WNM2bBq99Zdt/06DSiUQSgvzKHhwDMeQHogFJ8W/s85CW4GAQKAyEHhOICRB6lQojX5aIBi6QUxbsOoETrMgdyNkrnp6ho5jwPZxPgWtWsHhhePZElVE+qkLGLYfRNWMi2w5m8WQbz4jbtcJvli5mNomySz/6F2+vWpBQ8vLXBe1oJt3CbtPJtKwd2d8feowbbgd7zQch8mw2YxvDYuGvU9hl4+ZOaQOp6f159fAj9m9qh/xe3aw71wUSkMJEp1ToFiMWG/1KCKlzI0P5syksUM+Z3cdodCnGe0b+vLIUv/7XHQCIXT3Gn48dJscWQo3r0RiGViDAEdjEuNT8GjYjwlfTKSBOoJJg98hSmVEqcYERwsJBbkysLLDysSGyR9MwDV8PX3mHiZXbIa7rYYi3zdorL3J/bR8CsTu9B33HgP9i1h1MBk/gwhOh2frfBn1dgGVhTuda9nzIM+TD2aPJdAgli879GJHvhQbM6NH/gta5LIcUp0H8HD/FKLDbpFVGM3Ctz5C038OE6wv0mP2DT7evZzW1hY0aVgLtSyOZTPeZcv5ZPjdj0KD1tCDqVt/5q0a5n/ps6HPg3B3H9Z1BlToLq9cAqEoH1nUCRxqdBUEQoVuA6EzgYBA4LUg8NwRQx6kfwEFDPZwAAAgAElEQVSFZ58RCJ6QOKD8CMF2FGQvhuxtT01B67ESkdkTkQwaFVd3Lmf/ybOs33aNuqPG0dIdbv+4jsv+bfDRurBi9SwMt/Sn6eencBg0gz53l7HXdSADHOJZ8NND+s8YSjX3mgzrpGZE1T4cKxFjYgClRcVojaSYGktQlRQRNGABuzZNwTd5HU3qf0ikVvy7CR6tFqW0DsvuHGS4jTEi+SWGBr1Bcs+l7F08GJsXOPBryiKZO2gEa9w/Y2vraPbeMOLdId7MHPI59T7/nuldq5Aff47hA2bRZeEyBtRwf3o5RWLMpCYkbZvDF8fvkZiQgYnuWEBtgVhRgNTODk2BhgZj3ufdrnUwSN7HxLGriZI/4dshNsSv32xWjKyP1MQQESqK82TINeVRFeVXCaErPmXsKQ/if+jLxJ6d2R8rQ15cUs5HpERWqkZqLsXAMoS4sEOYaws4/NN2InNKiL98nKg8CQkRd1EFdmf5hhX0CrJ6CYGgi2LYg1XtQRW6jSuVQNA5KZY8vIpNQDPBSbFCt4HQmUBAIPBaEHguikELuRsg6zvQqsqjGNy/BeMA0Cp1TgmgzoKk0VCW8ngKxq7gvhoMPX7/P50F4eTidxi/ZC9ZVr5YyFJxHTyHRQ5H6PjlSeqM/oof543FMfsWq5bM5ReNO8bbfiDS2ZHc7FKc7CyQZ+fiO/Zrtn3UkdjQaygdPHE0j+ezLm8j6z2Pr8c0Q/HwPvnW1WhcPxCzlLU0br2Z4VuPMrahJSK0pIR+T4/Ju5ly9RCDTEWgLSLmWhglDgFU87F/JlLg0fCVMcwdOJwNVeazwPQb5oRVZ+MXjVkwag71PtvA+x38ybq/j/7DvmP8xnW8WcPtD5ZTy9X1M5j+wx2q+sEvOy9hUash7hZiDL3eYNmqd/A3EEHyCho1WY1ntx4E2EhAU8K9c8eIarSUiEUdyL52gPHTv+BuxtM5KYycPQm2NuGXoobkHZlOaWkRJTkpHFuzjNy2U+hvH8bkWWfo9clkWvo6YW9tyL6Zw/juViEikYbM6NuEJxZg7uJHSLAnBiauzPz4I5rX8/vT7alVKSiOO4d5YNsK3caVSiDojxjuH8exdnfBglCh20DoTCAgEHgtCLwozFERA8mTQJFWnk7estOj8EV1eRRD6VUovvt4+CIJ2A0Cu3dB9ET6ea2WtKv7+GjqTA6mg1RtSt9J46mSvIfPNlzHrXlPpn3yMb2d0vh65ofsvZvOwzxfBrVVcaPIn8FtapBybAvhtd/l+48HY697keou5S1GBXWm4K0NfP9RV6RPRjEkraFBg4UEDHuPpl7lFXgLoq6w5mA688KPlAsE5T3mDvqQ9JaTmPNeOyyejf7TqEi9f5xv533L0TwbrPIS8Qr2JfFhLOlpCtqN/ZSZbzXh2pLRTDpmxZYfltHE2/IFy6km68Etrlw/y+zlxxj3ViCLp2xC7l8NR6kI04Zvs/CdjgQHeGCauoKm7XbQdsp0GrnpRFgBJ7eu5KjnZ4Qt7ICyIIPwBzEUlj1hYVCncPrnUK5cu8qNqh+SvrEviTeP8d2ihfxw34LpSxfypnM66+bMZEe8M+Nmfcm4tlVJuXmKBzkqRDmxhF48x96jMQye8j5NfOzQSqSEhNTC2f5F83k8Ra1STv6dvdjU+39sQdAJBFnUcRxrdhfyILwWTzNhEAIBgUCFEnhhJkUNlFwtFwkandXgt+u3N+mTJm7AvBY4LwADh6eHplESuvI9Zm57SL03e2H24DzGUgtOxqp4a/JQ0n9aTXK76cwJOEmX3pvwG9SX+nUH4nNrBh/uT8bR1pzSrEycB33Kxun9sftdINzk3Xp9yR/6Ld9N6Yz5ky/4hE2077gAVUA1HKTlZwcqWRb3Uuz48tpu+ulCI1TJ7P9mKznVuzKoYw3KZcQTl7aMSzvn8/HSI0gD6tFv1Fg6VrWhKDOaw5u+4+ecQNYvmUzyhokcshzGp6PbYPXb2J7qqIh9k/sz+0wSBYVyLMwNkeUWIZGaYyQBkYGUap1GMW/2GHxTllO/6UJKXT2w1IVzalXkZ6Qh7rOOuws6PT4uebJ/dRKfdOnGL6oaTFi4iJF1HEgK/ZHpuxIYPWMcTb0dMRaDsiCFHxZ+RnTAUGYNbaX/P/0VtpqGnb8gL2QA29Z+RT0385feWvpESeH7sArp/9K/eZmGlcqCUJSfRd6tHbg1HYnY6Al4QhTD/7B31uFRXdv7/5yx2MTdQ4DgrsXdixWv4KXUL/VboV4KdaFGhUJLKe4UdwjuEiwh7jaT8Tm/Z88JJVBK6feGS/nd7H94HnLmzD5rrzn73Wu96103s9ZV11RZoMoC/3QL/InUsmvaIlKQ8TLYC0C+RvdA/F3lDh7VkKO+QZIq1utfeejLUOK/pQv4Tzf3P2t+DkxGCzpPT4S8w98ZTmsZBbu+IKjTU3/nY3957R0FECxCKKmKg/CXi1p1QZUFqixwh1rgRgABJ1hOQ+lGMB0Ge6bCQxBqiaLs0asVsncvpKvUE+9QO1RN+29ZQPBLjOe2o6/1P8xBKCsV7Z7XENp0UJVQ0t9yn6qLqyxQZYE7wgI3BAiXn8AB9lxwliiRBBE5UAeASuSp/+bR8zpGkWUbDocGjUbCnJuFzT8U7+uG7G+PRe1WCzZZwsPtr/UBbvkMZRlZkv621eXyygepvKzxxv0g/vopnHYzJQd/wa/lmL+++G9ccUdFEKxmI6bMY/jENEVSV3COqhTD31jyqkurLFBlgX+sBW4KINyi2TvtGC12DFmL+Hm1P/eNbsnGxyZje/k7hkS64+4mSvuU4SjcwTMTf6T3Z5/RLeyyBsCVeRWe3Mr7y5OY9OBIgjzUSGotbjoNkr2UdYt/RVOvN+2ic/nqjR/Ia9CXp0d1VUBIwVk2pHhiWPYuyfUH0KqZnm3vLKbbR9NoVs5+vLhnA6vz1IwLusi/5590ARnsNmqNfJMJLf86b1906QQrE1Po3b83+rI05s5dQathY6gfev20zLXWNqZtY+sZf9q3q8GF98ayoPYrPNenGiqbHY2XN25qGYfVis1h4diqOczNjOP1iV1xk1RotVrUkpND635kR3Eco/u0xJC8n9kbLjLi/qGEemlx16qw2aw4nBJF5w/w84KlpBeYceq8qdF1MBN6tcDjmjYNssOOOf0gHjEtK9U57iiAYCzOpeDAAiLbVbV7rlQvqLpZlQWqLPDPsMAtBghGo9H1nF5eXn98XlMGv7w7g5WpF8hLgbBaQRQk2ajewh+/+AE8P6YTbhoJU/YZFny7mLK6CWiLNbTv14OEwPLN1VLE6UP72bhmDadtATSO1nJw7yniBzzCQ3c3R05PZMHKfTj8alDHtJCfLjYmzHARfb/B9K1bjzDrcd7/fBNyxkHSEjpxf3MLMxe68+TkNviGVqe+Zz4rV2/lsEnNQPU+PreOYHxLD5yJ3zA79D1mDr0x218IHh1dPZM9OdEk1A1Dazdzdt9ejNH1aBkVRnSDxoSJyoobDLsphy3L1mGkhL1J+VzcsQltrZoUZYby4nev0dLbwqn1q9ielES+UVSROLDm5uDVtCtDe3QgVn2aWTOXczC9hOpxPmRllrj0kYqDqtG1bQ/aRhrZteRbZl+ozYCaGjID3NAvXUpO/2F4uwfw6PA++FxDUlA4CN8S1OmxSvXjOwogmI0lGC5sJ7BOVyRNBa5rVQShUp2i6mZVFqiywG2ywC0GCLt372bWrFl06dKFgQMHXgMUbGx5+0neO3YGQwqEdxnCA+HnWZ4RzoTHH6FZiEzSzt9YvesC4R0Gck/zCFL3r2fRhqN41G7LgF7tiCKZBfP3EdU4nuNb1pBWqqNm+170atOQIA8zK14YzS/ZYfh5GUhLPEb86Gfwysujb982hETVIFjKZtOX05i+5BARnXsQa7ZRa+DdqE/uI7DTGAbElLJ27TYOmdQMUu/lC8vd1Co9TGCdWsTV70PruBvLNmPazytj3iElsDZdhvQhOmsj6856EqjVkNCzJ23r1SboOl0WK3qDzZDG6p9XYA4LouBIIsXBjfHMPU5mjWG8MqIpAl/YLVaMOUdZsSOHTnUtfLTUyZRnBxDqpkJtS+Xrd74kS+uNj1sZ51PsxMX4UWI34VV9BE8Nq4Nq/+eM2dmLqU3PsTA5C/cli8gZOAIvjR+PDO/9B4AgdBAMZ37Du96V3huV4cF3FEAoLcwmP/EHYjo/jMqtQhvTfwxAsIM9HWQvZE1Qea/1MmTZ4y97l//9xXQiC+EUNEjSTfQOl+3Iov/79Qt0/v7XV8onHMiyupJ70os1yECW3UEbciU3KGeBzQ66axTWrn0OQfO+mTSubHCxyWV1GJJKpLvs5X3l/+IFdZN2uzINB9guIEthSJqKrXtvdCORo84GTcRNflv5ZbIQfXGDP/En2ZGGZM9H1tZHUokYpwy2VNBEc+NFFM9wCVkdjaS63Hr3702t8q+2gfkosq7Znz1u5X/lzdzxFgMEp9PJmTNnmDZtGnv37uWNN95g0KBBqNViPZ3k75zFo19swGgMZvi9zTg0fw2FIQHoa/Vl2vj6rJi9Dm2gB/v2HaJMvH5kFZGd7qZhRhJBo8YQlXWUXXu2s237Hg6cyKft+z/yVtvI3xWEi1NOsGr9GvJTNQR57WX2XhWO0jJqJdSk75SXiUj8nBcPRzHa7wTJ8W3oXHKI5VEPUDtlA41HjqWuj4rkPWuYPnMlfduV8eFGDe6GLEKjYgiJaMh9T0+knteN3odOis4f4edtZxl4ly9vPfstkQN649z6M7+GPMX2p6L4etq7bE7Kc3VXrDicXjV4ZNqLNNj/FT/mxhCcsYf1lhr0qu2LbDGTdzGFWg+/ydAaKhY/NJzZ2lhiJdn17CJdoNL6027MGIY29GXV+++zOjkbp8MNjRqKLhVT78kO6NNaM6xpEd99+ha/JMcytGMTSqypWLdsp6htV0KqNeHF0Xfjcw0nxGk1krflfUJ6vHIzXnbT19xRAMFmMWHJPYdXeG1XTuv3cdsBghWK3gFnGBiWgS0AAloAdcHzOKRuQQ5/G8mrXoWFsUJGN3AOg8BIKBJSqtfZmdSNkYMf+OP71/IpXJwDfhMhdOKNNzVHMuS9AyYThL6L7OaGJKtB7XvTjlLpF8pGKH4ZcvaA9ygQuvEVeSXXfqF9N2R9CD4vgP1LMIcjBz2BpPO/+koBBHKeAlNN5NhXFbs5L0D6aHC2AtHhTnud8Kq4i2UxZHwFfs+AbzuF/HX1KwIsmyB/Pfg0hswvIfh+MB4E/2FQ8Bk4aiPHvFlhvQxQMA1yjyFX/xapaAbYKtayl3+BOgLZdxySmxqyx4HjLgiaAKpkyHwKrFHIIWMrrLMWyaMFqDUulbcrf7BD4UQo1kP4y+AWUv4FEkgeVzZy51a4+BL4TIagkSA5oOjfkJ+FHDerAsfHiWzaAnYZybIQCk5C4DPIOjfQBiFlPgRu90JAF1FIDppIUF8DZGw7IP0ZcNZBjv4U6c/s70iDjHtBGogcMe46vwYNqEQou8LvxH4ULk0An/cgqC0UPQN5WcjVvkNSV1g/Rzo4RHhdfFYGy2bI+R48n4TAZpcRkiIs5AI8NwG6K/1HAdxigGAwGDh16hS7du5ix84drijC8OHD0Wg0OHNP88u8dWToyjDmSjhz07HXaU4dbzW+NVrQq2VNtA4DRxP3kFZsR6UW5DwbOeYAhg1sixsyBSf3sPZ4BipzJjv3XiC+VnWsWWe46NGMV568F/WJOXy2uoDGnbvS/uKXfGzthpSVw6BBXYipGYfx9D7271vGwh0aOg/qxt21Cnj9o1MktGzM6HED8Etey6vvLkfuMpix6cv4JqovoRlJNGrWjODoetSP8/sLfG9l4xf/ZldZHRrXiyT/+FrOpXlTVvcuhgY5COvTmwg1uGn/CGQdNhuyWo1GsrJ5zXyKHdH4nl3N0YR78Du8DY9HHmeYv2i2VMYvT76M57vv0f9yS+xrfSXzCNM+mYvZww+dRsKQbSD6wYd5qF6Ua/7OxE+5f3dvPh1iZe++o+z6chbm+yfTo14TOjSKR3eNe8pOO5asU7hHNKhUr7yjAIKxOI+iI0sIbz0Kla7CS/52AwS5GPKfArMX2E+CTYurN6r7g+C+DnKKkCPeRvKILV88cXI2IWX1A+dg8CmFjOVKZzZdeQ9xyqDsMMiNkOM/QhLf4TRfeTna5kLKL+B7PwRfFseQQRKM5gpsZudZyH0PSk6B9wgIHAolM8DsiRz6wtWS1ZXqWje6mR1MyyHzE3ColI0r8Dlk/w7X/LiV0zOqCHDug5TnIOBDsL8MhuqKTTUFIEWB2hPkAuX6/BlgqQbhI6F0DThkMK8Gixa8WoM4iWtrgN+QCs1RZLDuhLz3QORpfYYgBz2IdFWuzw7mpZDxBXj3haIl4BUIRguEToLCmaAegRxVYXNzFkDhB5B/AjluBlLmfSA3APfLG7dQoksEaxBy+PtInh5QPA9K9oPvIDDOAWO2IrPrMIMuFJzFrg2bmDXgUQp534FNgITyYT8IpjLwaACayyBQA/7PgLsOLHvBvB6yN4B3b/DpjuzVFCl7BJQFQ5gAIgJARoE2DAr/pdjEmQrmEnCvg6tQW+2AkhMKe15sxpIeOfBfSD5tKsxlP2RNBbPwXSfoOkP406C9DiHMcRHSRoI9BtyvjfQ4QdsYOWgkklATFBEcRyk4zkH6U+D9Evg3g5K3IT8bYt9TwITKH1RaKHkJCo5f+f2IaIktD2QPcAu6AhA08RDyFugut/T9r/0olC+6xQBh3759/PrrrzRt0pRWrVsRFxfn6rD4+zAXc2bFLPb4N+Hi8uXoq1fDP7Q2Xft2Js5bB6Z05s5ZQXjdloQHuIM9lW/mXuD16ZNxwUJzGku//pmCyLp4l2RR4uONOTmLOn2H07F2GKXHNrLpTD55Jh+62xbzaWEryM6nT+/2JLRojk/xMWY99xoHQhsSFRLHY+NaM+uBcRQPmsHbEzrgacvj0I5jnLRnkb30EHneNqp370+CcRsLz/bgg2fu4sYxKiund27hYoGBYt8GtDf8wspTMVyKasibfeMwuvmh/6sW1LKJTb8twys4mv2ffYvbuEcJPLgL2+jxDPPzAEcK7/97Cf3feZKaf4YzM4/y/vfrCImLwV0rIVnyOFpWn5cfbI8WJ2WbZ9D/B5gwohWxepmdM2ZgeuR5esVVp3HNSLTX3NdpM1G09wcC2k6uVIe9owCC1WTElHEUn7hm/6wqBtM7kLYCnE5XqNkVmxIwUNcevI5CkRm0wSDCsrqW4FsHsr8CaxbgAR4BYMoH/9HgVU1ZYDkPCuaBrTpy/PtIhi8hZzH83hjEDA6TsrlWPOl6DkCOeFhJO1g3Q9ZHYC4E/8cgYJDyYi/5DLJ/AU1T5USn+S+HfS1rIPNdsLojR81EKn0RijPBbwxy0AOujm+uYd2tCMN4v47s40BKeQYCPgD7KwpAiHwVqXgSlEUgh05F4ufydRAnRTVoYkAjysHE5l+inA5FF1BZBl07CHsNNBV/aTI4syBPzCcHOXYpkq6CbcQGmfO80IoFSacANleIQgCP5mDdB07/8s1PB0HTofQRKBFzsIMmDFS54D5K8YHLo+wrKNGUA4RIkMvA+APkbYGAXiC7QfHPUJapABxVPthqIce8hiQlQ9brYBMlb0awFIN7pOJ/9jywlILQ5Vf7Igd9hORuhuynofSCMidJC5p6EDsJUh4FuwBsOuW59GMh9AEwfwhpiwWSUXxcbNDiC2QL6BoqoKPkOIR/guwZj6Qp711vP6TMzZgLIW+C9hCk/QSeXZHDnkP6HQxfBjbH4dJYIAgqcoxcfxYAoQNy6CMKQDDOhezZ4BBzKnWBE1cEQ9hAzFFEMdShyCEvIenrgf0ImE5AmVgjy3Veok5wvxvcQsG9KeUt/Cr1ZXtTN7vFAMEq2PU22/VJisZ8TpxLIWvFR2yK6o/pwBG6DuiIh0aHR3AsLWrHoLFlMOfLHyh2C8dXr0Vy5rJqj4pvvngSV/2AbMNQUEDKmX0sn/crido2vPHCfdQJ0rtO3lumT+aT/Tbi2wzmMf0SHtvmhafdQrW4UOJbDWVCrxj2LZnFp/MP4FW/PjG5F7nUaiwt01dQ0uR+nuhTlx3zvmb1ug0kd3mFDttf43BwXUJMZzgfNIUfX2yDxryXadPSeP7VwX80ufUY0x97n4zwxnRvF8meXxPpMrITS/YXM9i5iYMtZzCl8+VD2p+smGwn+cBqZn2zCt3gJ2l5aQE/bc2g9cMv8VCbCAp2zuetM3X4YFzjP0/oZh7hrelfkuVwd6UYJGs2B6X+/PbZMDK2L+aTJQdoePcQQjKOUOBUceKHHzCPHE9Tn2CG9O+Cp/jNVRiuKoa0fXjEVmjOdVMOd+OL7iiAUJKfSe6Or6jW8ylU7v8gDoJ1BeTPB2MS2MVL1w3cI8A9HgxbAJELLgGbAXxGQkB7KFkMhs0gR4KXNxQdV0L+YnN0FF/Z+DWtkWOmIpV+BFk/gbY+6DzBmQ7GdNBGKd+FA8oOgvtI5MgnkExfQ+YPynxE2Fe8JF2bmXixi+jEEbAWg2dfCHsadLc63SDy4heh9EfIXwtSDIS8CB5BYD8P+V+BIUmZq89g5MBRSHIaZD4G1urIUUOQLj17NUAIvx8p62mQWkHkeyDthqKNipCMIwKCxoBvZzB+DelzXbaXRXtcbQSStnwTE5EZsck4DkPOx6AZiRzSAclahuwRg2RLB1UYqL1Azofir6FkPZQVCek6xW7aeFDZoSwZdJFgOQWqaAj7AuwzofgQmIvApx2YRbhegDoBMAyuHK4r+qGJRw55GUlbCoWfKhuutjH43QUl88FsA9/6ULJbAT76e5D1LZDE5i+blTSD8RfI/tFlI9m/BlL+65C/FyLmgD4MXCK2OZD9JFhqQOgAKJ0DxfngUwalWvDvp4Cogk9A9yCEjQHzJ5C+CkT6w1QMbrFgzQZ9DJjOl4OGJsjxnyNJMjgywLwX8r4Aiw0CngD/ziDZwfAO5OwAVQwEPIjs1RBJWx5Nsa2FlNch8G0lhfOHISJkehA8BstWKF4LjiIw7C8HKoFgOaqk0nxE+iUYfO67Eo2wroO0t5SIkkjNXB4iOmM3QvASCIiphNfqf3CLWwwQbjizwlQ2JR6mqOw6KTD/avRr3wido5BNG3bgFhCJ3lMAhCJ2HTJy77g+eCOTtXUebyw6QGStJnTp2ZMW1YOvUgU0F+Tj9AtEqC6bEueTGDqYThWIhaYLe/huaz69h/fC/dQW1haFM6ZrXWzZF9iTCR0axXB4y3p0NVtTK0rP8fVbCe7SjcjSw6w9HkCPdjGo8vay8Gg0Q7qEX/dxxflAMl3k569WEzhoLD1DS9myYg3HTeEMGtGDyD9LC5TfzZi5h1nf76Te4PvoVjvUlbIypx3gq4XJ3DO5OymbduPbqh31A25QclmYzKpDBXRp1wQP0d/aeIHlO0307VHv92ZVstNEyukkiissh6z2ol7tamgFqqgwnBYDOeveJezuN/4D5/vjR+8ogCAiCGUZR/CNa/4PiiCI0+l6yJsD5nzlheUUSaxA0LrhogMHvQqsd+Whqb4WJT5kh8xuYK0Peg3k7QO/YeDhCfk/gqYJ+LYHKQDZsz2S8XMFIAT/jOyfgGT9Ci58C36TIVSEhMvgksgDD0OOfBzJthlyvwWnVjklipCxC8+KE2L5v+RDWS4EPQ9e0SCLCMjNjvJc7s1ertKDaT5kLwD3ThDwAHjoIWsKaHqAX3sw/qZs7nJ95KipSGo7FLwDuZsh5GnIn34VQCCgGmQvBN8nIfQ+5dRs2wVpQm60MQSKpjZFSq7Zrga/nmDaBu4PIIcMU/CS+QvIO6NEbgoXge5+5KiJSqrDsQfSXwOP8chBg5EoguLvIH8ZqMLBegl04rRdC1Qp4GiEHPsi0qU+4PUcBA0AyQgF0yFvNwSPguKvQDcA9PFgWgplWgjso4Tn3VsiWb+EjC3gUQ+86oBBgAOhr99NAXlla8BwCmQreIkNfDzYFkPeLpCLoOwEaGqDm7D3cbCZwbsdSCK83xUCGigAwdoSOXoCUtF0yD8JbiLSMBaChiibZ1oXUE2AsNFgWwLpH4K1nOsguCKaRhDSG/KmKxuyW3sIGQXutcH0JWQuAY0I3XuBW8V0gSA2JilRNku2wvcIHaZ4kWUWJH8N7vVBc71yNRn0D4JvBS6P/QRcGgc+M65wEHIzkOO/R1JfkyawbYesD0AQWDUVmxhZwCoieN+B31+QWG/W3/+v191OgPB/nXPV5267BWSHDVPKHjzj21fqXO4ogGAozKHgwE9EtZ+ISrwAL4/bzUGwr4CM+cpptXAB6LqDf1so/AhKzoGPCO2nu05qco35SK6NeUX5CUsGz2gwpoBa5EtVikqa0FK/TCIM+QLkRQpA0A8Hz0Bw7IXc/eDZErybK+Hfom9BM0IBCIJ0Zt4Ixv0gC4JaefTAZbPLJC8raFuAp6+yATgq5LFv6Gbi9CUAx/VCtX/yQY+eEDoU2ZKPxGmweSJ7xSGljgV1JwgWG7wNWQpSpGJFW1sxyuZCxueudAgit/57iiEMBNIvPQvRqxQugNh1CidDzl4liiNAiWcdMO5WTupiaBpAYH9kn/7Kabf4Yci5AAG9oXgJ6B5AjhqvWEguhZxxUGKGqB+UA3i+IKPWB/eLkH8WOWgckjgZ57wEthCImwEZk5H9XkLy7wGW1QpHwJAMakHgywK7d3kEoQCcEmgE0VKL7PcQkn8LZMsFpGLhOynKurpSVgLkiTmJ408EctSrSNpYhU8hUlwpi8AtEnTlkZFrl0GcknWDIailAhBKC5TvdYo8fBxEjYPCr0EruBd9kNK7gmoihA2DvLFQlAZuHmAW3IZ4IBx0x8AAeMYoESkpEjn4BSR9NJSdxhU7LVlRTg6sMCGViBINBPkssgq9FmgAACAASURBVKo9knv5WptnQ+7K6zuQiJCYsyDgCwisCcYVYDcrUZ38xeDRozyisQ5KSiB4UDmPQkRbxLNYofA9yNugpCv+MCTwnYoc0uOmilgq9S1c8Wb/3wMEJyaTCY3WA+1V6b2/a1EnTqfqlmaCnA5RKSajvua0fjMzlQ2FlLj54ftXfAbEd6j+40ouoYOQv/NTgjs/dzPTu+lr7iiA4HTYsRsL0HkHXc0yvt0AwbYHjKfBehCKdoHn3aBPAEqhbCFYA12bn9hY5LhXkWzLIPUj0dYMPARJUYR9BSmtD+jKIP830NYFn6YK6VA/CkzfQfbPIKoPlARzeQ5Zo+ReXRuaDTyHI0c+qZShGb9VWPmCiOWKIFQYIs0gNqc4caL+L0uWFj0Iot9M5DikjEcVnOGKakgQuQT0FcrznAfg0gtgFReZIUiQFF+B4nIwo+mFHPeK8gMzTYfUXxVA5NYIyAD9eNchlox3gTjwTYBCUYXwOIQMgZxRUCorp/v8T68GCMJc5t8g4zWQuiDHPItk3gy2Qij9HixB4Ndd6Zrn2AdF28FvJBSuQg55A8mnEWT2gpJSwB+ip0H2ZHDrpJAUjWvA6qekESRPZM/uSO7VFR5EzmNgTkCOeQrJKLgogch+dyOVzoCcUwpLX1NO1DVNg0urIPglCOh54x+/4FEIgGB0gHcNsJx0PYdc41uk/EegIAU55mekvP6gmgRh90PZu1CaB1IBWArArWY5QExXKnfEPORsUNVF9r1PqSwRwKPgdTDlXWc+ggPSFjn4wfISUQs4BNK43igvNrOdhIynwEdEzbwg61EwKaI/V0g/Lv53+f8Jf5IVABw1FdSiI+JKKDur+Jk9BWwOUIsURQaoAsD/ceSArkguTs/N1Lre9Hv25i+8rQDBzJkDp/GuWxdvczarP/yEU32m8FhNN3SeevQeGo6u/BVLdDwnNmzkTEYONhFAVUcw5PkpdAxUkX90HycCCtn9+SHCO7Shb8Be3trWmrefaad0aXSWsnrRL3jX7o5qwycsL/LBQ5IpK/DknmlPEJl2hpScEqwWMxpPPeasFM6eP8LpkmgeeXI8tQLcsJmNlOTv4ZWntjH6o8eIV8lIen8CPf8Gl6rwNHO3mxhxdx1O7t+LW0QDakUKoO7EbCh1KUrmJW3n02+30OGRf9E1Ru8idPt4e2EvS+b05h3MO+PO6Og8knxqcSbPyuMje+JRXn5omjOFxz2fZJLnRtbsvIBDo8Kk8WfwyHtpVV3LliWbCb2rE6Ep3/PCPE8efWYQoZIVp3cYYV4Gtvy6DnuTdmiOriKpRIOztACbpz8efrGM6t8RT/dryqllJ3ZjPhr9NR08b97zrnvlHQUQDIXZ5O2dS0ynSf+sCIL5a8haDdZUUAlGfQlYjBD0LuhPQ+r3ynvL/30IaQ9yOpTug5L3QRoMmsNQdA7EScpeCA6rcmJ0kRqHIEc9huQCIUdAFaj8vwiX5mwHr47g11ZZXHsWqBsge7dVdBfKvoP0r8BnCvjWquAAoizzSyg6A3FbbgNAmAwFznKA8AhQD3w7KO9krxFQsUIFUQ75q5Jjz59zJYJQLA7dURA8DbxEfl08/xLI+g3kHHA2geAGULodDAdB1xgE4bDsEFATQqaAhwUu/QucouJhMGS+UwEgOMH0G+ALhkWuqg9XpULJh1C8G+wO0IWALRvwg8hpUDQNygRnIR4iZoBHGJgWQ9FaKM2F2BGQ+iWIEiq7BZzWcg6CKA+sixw2HcnNpwJAECWTTyFl3QvWpsixryOVvgnZx68GCGVvQOoGCJkK/l1uDiDY2iDHTEYqeBMK0pCrz0ay7lE4HL4TIFf4pUhf3aecvg2/Qt4v4PRSODCmk4qv/85dcVNImR7lqQFnJmSNB5MveMRdPSfLTpA6IMe8rBAObdsg+wulSuMPQ1b2f18BKsXz/QT+gudxRAHIIspjWAeaZiCqhMxbFVKuvreSRpAClKoL40wozbwCrgVHwioAhvhhii6IDZSolQAKfmMqVDb8h2/Yv/vxWwwQSktLXadiH5/rpHBkC2eWzGS2tQNdjL/xw/5C2rVoTKCPnrD6zWlTK5KsA6vYmOFJx6Y1Obf+J9adKUJfqzPj7+lEhKeV02t/5KPdqRhOZBHbowsdUlcwP3IsD9QPILppA9zP72Deuh34RrbFufFbykY9TBOtnb0f/0D83Fm0yUjiwvFtLFyXjFe1AMzbT+D1cGPC8rox6f4mqJE5s2spixav4qQ1gd4d4ik+tI+Urg/zbpfLVWI3NrqtNJ+C85t5bamGlx5qwNZ1awmJ70jdutUI81dxbt9utu/YwaUSB5biQkp0PoT7B1KteQf6tm2E8+xGvv9xHttLfYhTB1K3RQipRRKdmtTGPzqBCDmP03Pf40v/e2gjJxEQmkBUuCdHjh2jYdvBdG4aQ3LiOhIzCsk7l0fGqTUcsMRQEys1nvqAx5v6YDy/m59WXsBYcgJNTE3OfD8LS68J9GvXkt531cNNfXUZg0sHYdtnhHT7H44gWEwGytIO4let1dXlebc7giByv4YfIetHUFcHKQNogBz+KpLOAKn3gUmGqMXI+vDys0k5B8FWw1UWgzMU3HJA7oIc1B1JzoC8r0Fuhxzz3B9DUH/gIFz7o5DLAcLX4P8ZclCLCmeiMsh9HvL3/wMAwqOgvQfCn4VrnF62pyIJxrmLW3AYMmaA33Ng+xRMkRB4H3jUUE6KakEkFMApReEtiNN31ANI+Z8rpW6W42C6AHYr+D2LHDoMyXlYKQGVOyIHxiIJApuLgzABSZRMposweDsIGu8SXULjAXYxj5fBVKQw3q2Z4Ps8hPSEotcgez24t4PIdxWynwA4Lg7CYQhwgxIh4FQCZQaIeEepoih9Cww+yBGfILlfBgjlRMKgEMicD/q24NSAWpziPZEj3yrPsVuh4CEUbdz3wKfJzQEEa20IGwIl30FxMXL1H5EQgEVUKZggpSfoHofQexXqinwBMl8ESyiEdYesaQrZ8nKeXwDT6De53HwGF0CYAPIg5PCRV5/H8x4AUz3k6BcVgOBIguJN129hLDZw0ZBI6wM5QndiAfiVbwRC80KsdcF+l56DHDoKqfBlyNsKbq0g9BVwKyffCg6PIbtC5FEAiwOuDA5+ncoDBiJ94wu+o0EnUla3YdxigLBjxw4+/vhjevTowYgRI/D2vkL2djUMshVyId1KzpE1JHlKnN7gxQvvDnFVKAgOzrmjaTj9LKz77jdkX5l9R5Jp1DiMVPfhfDApgfzzu/no+amsSXenT49GJBtrMa5vFMeSsuh1/3BC88+weO1GAmLbUbLkC6ThA0naV8CAtg2JbN2McLWDwx88z4Y246meeoCc3w5ie74Juh01GD+mtQsgnN79G4dzy3BL2k9ytU44dm0lYNJjjEsoPyj8xbLlHljNmp07WHRAx+CukZw8ehTfkFpEN+3OqG61UGNj00tTONamH3VcEQEHZ3cdo+Wzz9DCU8KUfpKfZr7JF2vSqT3ofurZ0qnTJYE18/N58sWRRLqZyfzpTWYEjKaD/TBhcfW5tPA77KOeYmiDeIJ8dRxaNovNBT7EGc+wtyiShuElbE/258kXRhN2KZHZO/MZNLQtez59kXVSK8Z1ro+zKIvjTj339e7EtVpQCgdhF57xHSvVae+oCEJRTipZ696l5j1vovaokGu97QChFMy7QGxGRgEOVODVB/zqQOEXUHY5t6+D0LfAJwEMGxVhHUt5SFQwty1CRCcavGuBYNeX7gJVz78ACA9B6LjrREQvA4SvXOVeymZ1eTiVk6/VAbGCEPffSDGYoeh9yF+tREjEY7tEfkTqQGx8l+cgNnshqPMRUskjkHPir6O9sjtyyL+RAvoooe6cp8FcCzmiP1LJHCjcDg4N+HYHxykoPQdBb0Ngjyv3tm2CtDdwxUz1NcCZDYZ00A+FiOfL9RJEJcYlJXWTvUZJ0ah8IXQqONcrAkoOkcqxgVcP5LB/I9lWQYGoWDmv3MNrKKjPQtEJCBBhfElJY1iiFIDgZoXSpWDLANM+MGSBx13gKfgVgk9iVzr3+fRH9h+L5FgNaR8AkRD1Pbj/RbMakWLIegJKLpXzUmRQ1UGuMQdJzlQqJso2QUkOBD4LQYPAdkBRZsz9TBEBC2mnkHLVDcCznCkutCi8miBrayAJ7YXLAMEaD37XVCQY5oGjzRWA8KevNFmJwJTugbLdCjCKmYskKl8sGyBLECRLQN8HOewpRWlS/G6EaFnOBlfFjxz5LpIAchWHMwVMOyD/JyhTIddYgfRP6VZ4iwGCMMP58+d5++232bZtm0tJcejQoajVEql71/LDDzPZ7T+F8b7LWX8xkz17zHTs05q+w++nWx0TP89YREq4joINBzB4e5KRnk14MKTGvMzKZ0L49tXpnO3QkcjD2QQ3rw07ElEPbYL1gp6hgzriZitg5ZwZLDxTnU5pc9mojyYry0HDmmFUbzmMyYMbsuX5h/hJH0FoYB3ijh/H8UJ3tJudjBzbC70kc3rPWg4ZfOnXrhllWcc5la6jSYMY1B6+6G9WyDR1A0/P1/HulCasW7GUsIQeNKlz2U/sHPzmFb4/KlKDCu/HO7IV46bcRw03mRPf/4tZx/Xo67aiXVEyGQ0jqFWQyudn7uLHV1oj2W0Yf36aAVugcYQnltxisg7vR9emHQlNB/Nqj3ze+yKVwNA8Nu4soXm7WuixYyxIp7T6fTw/PIHsNd/zk7YXMdteZkGKmkhfPZYiA/pug3n9vr7or9VBsJSQvuhpokd9/b8LEGxWM5a883iFJvyzlBTtglMwE1Sx4NkApCww28HdCaU54DcUxIs//xfQ9oDgfpAtcsxWhUClDkL264mU9wSUWcp1DRyKII6uH3LE5OsoKc6F9PlKGVfQZaGkir4hXq4LIWceSOHlteuX/15e7++wQ/jPcG0+q1Jd7PLNRJh6sSIAJDgCN9oUVBHIIZORrKuhLO0m8sEa8OwGHgkg50L+m2CJh6AwyBKVCY3A737wiAHHccieBqoOEDxeiTq4XgKZUPA9lJ0DpzhWqpV0TuCj4HlZmyJfObGWXABdLYVHYD4M6o4g7QB7HARPBONXUJql1P4L1cecnaBpAQGxCiHTNKu8rPVyqWWRKy0hh76JJFrYCmKk0apIJbs3AL97QOsPQkjIuF45+VpKIPwrUB2AnNngNQn8b6IGWhb8iQVgtYHWG5wipeWHHDgaSSqB/GmKqJauCXLgeCTxjLkPgOHPOAIVFlLyRQ54EsmnuQKwcoXAUuk1vqfkodF1Qo6YokQQbjQsiyBjtnKy19+NHDAISQgfCQXF3C9B3QQC7lOiO7+PEgWMlhYjBz2F5BF99TeI6hRRMuvwBK97Ifz+W+Lx/6eb3mKAUFxczIEDB0jck8jJUyddMssDBgwol1oGTn/DhAW1mNLXnTLzYV6blsMLL/fCJySWOjHB5CcdYfXRLRzbnEXTdrU5fiyJujWdrE4dzNxn4kjcvo0Di37kaHhvunRsyV2ZS5h6Avr1nsSQ9hEkLf+EGeszGTH+Hg5++j1RPVpxMl2iT5M4gho0onTfSn54fy4Bz75OQs5ZDIknUD03EfXKTXQaPZZqbmUc2rqF0we2MO9cCP3qa8gstuKVlEj2gz/zXtu/ELhy5nN833nMRSeYvU1m1ICaHNu/F//IxlSL9Ca0enOifbJYN2cdmZKTwrTznEouolbvsYzr3xw/jZNLWxcwf8MBLrmHUM+/Bg2burP9x/kUjPyAd9t5cnbHGpZ+8xVJd39IP+NaSn3qkLNmMX6jJ9ChVgI1gn3JObyHX0+l0DEslwX7IxkUl8m3qu58do/g98iU7FzId/YmeG/6mJNucdTXFJPiDCG8cXMe6NEaj+soKVpzTuMWVv//5HZ/9qE7KoJgKBJVDPOIaj8ele4fVMUgQrMWoSgnlOeClBI0R6FyOhSyuq4yL1Effh7kUIXUZT2mlCBqY5Qae6FjYDur/J/rpSkAghD3CQLddTT1nTlgy1LK7YQI0/WGUwjq5IA6QmHN/z4EQMhRcr5aUaL3XyJkCRKlK3TwFwBB5Jxd8/2/zMsGtmSQPRW72C4pugEVn19stIKFX1GK1wUSBC+gsJz8KcpB/a+E0F22c7qU4xS7xSn3FPLAsrC/qDwJLFd0NIK9WBFGcmYoin3qGGWTF34g9CDspitVKrIQOdIo6o6CX2IXIEVgFJE2uTYiINYuTxFGcqte7jcZ5fLA/+m7QcwtGRwW5X4uvywvS3SBpr8agkshODh65TdgO62U/F7le+KWAmz4gS72ryWNRfrOmqYABG34FUKuay2yFRu5GKrXDiPYikAb+cc/CYKuWXBRRAlmA8Xm/5RxiwGC6L+wbNky2rZtS8OGDYmMjKzQJ0bGsPN9xq6oz6v3hmI17uelt7J5+bV++IfGUDMigNwzh1h2YD3Hdtq454H27N+yAbUpgx0+/+LXJ+LJPbCQSf9eQXSLeGrdNYRxsbsY8sQW7v3gK0Y1C8ZemMKqbduJtOfxyc5cavnG0bVPY0xLZnJs+Ewm1bSz59WXODxqLP4nzqI5fpTs5vGUJhfSpd9o2lYzMufrTXRrCc/t7cD0LjmsSyqgxvEN7Bo2jecS/iIa6izi7NEL5Kcf5ut5R+g0dhBFGxeSFtmRkW0TCAsL4ezebZzPMyJj4eyBfWQQQpPGCXhpfWjRtzuxxUl88cnn5DtVpEY+wHv9nbz+/KfUeGMWzzcOwGQwYl/2Js+pRtH61Ees0fZlSrdwkk+fwlq3Ffe2qk/2oUSW55TQ6uwyvtP0Y0JkNt/a2/HhoOqutOWcd75H3aMaqasvYvENpbNhI995dqBzo5aM6N70D1LLrm6OO2cS1PnpSvXkOwogOJ0OnBYjGiGSVPGlcLtTDJW6JFU3q7JAlQX+Zy1wiwGCaNbkKt27HDmrcGjI2b2I5385RavQAg5mulG/nj8nDhmoW8uLIu/6PDO6LUumPsUeqzdZ6RZa9+tBTR8HaUkXKXaqaTfycVq4nWfJF+8w/5iORs2CObUzj37PjeT4wvV0e+JZOgZl8e3Mb9i1tZQeH3dj2zNL8KoejuXEUapNX8kjkbksfeF1DtTTUz1+FL6r3+KzzDKq6RsQ0b0fM+6tzgePPc8puzs2yQMvjY6aXe/CsWorcZ99xlAvCUy7mDr1Eq9NH3FdNypN3csH7y2g3sSnGFwvFGf+aT59ZRpnu7/CpwPjweHAKcqJ5UIW/bCc6v3voXGgwsIQJY+yOY9Ns2cyZ/dZLAEtaag9R3S7thz+eh6xT3/E4020bPzgRWaW+tIuMIKj5y4R4K+jIM9EiwmP8EiHBpRlJzH/8w9Y7dafV9oX8s03q7A1u5c3HuuDc/cCXjusocOBmfzq25oO3e5m4InPmVP/MXQnDjJ+0hgCfa+JvMkyTlvZ1S0IKuFHdEcBhJL8DHK2f0l8r6dRCTLX5VEFECrBFapuUWWBKgvcdgvcYoBwo+dzlhkp1urw12oozb7A4aNJFFtltFo3/GJq0zwhEpu5DK2nJypDFocOHiOzxIxT0uDpE0L9ZvUw7FvPNmdtRrQP4cj67dgbdqZdpBsZp0+R7x9Hgmc++w7lUrtZY/xUZzlw3IMWLeIw7v+NM9HdiMvazi8nnbSr7kVQ/RZ45aVhCw1Ak1dMocqD6uFXk0flkixWL/yVc6GdebhvAyF6DgWHWHEygrvbXcM9cT28zLkti0gNbkuHeuG/qxZiSmFDooUOnRK4HIO4uHU23+/XMvmhIYR7XYlMlKXv5rdDDjp0uQvdifmsM7Wkb/sauBccYfdFP+5KgLVbkqnTox1RxRfYnOlNt8ah5KacJ1/nS+1wPRu+/ZK02K6M6NwAdyF/b85j+6JVmDqN4i4yyVaZyThaRN3OjfE4vYVpS5MZ+q8JNNBL1+0MrCgpvkPY3W9VqgvfUQDBUmagLP0fWMVQqUtSdbMqC1RZ4H/WArcRIPzP2vz/gwd3VTEk78SzeqdKfZo7CiAU56aRtelDagx4BbV7hd4BVRGESnWKqptVWaDKArfJAlUA4TYZ/s7+WqellMzlLxI59JNKfZA7CiA47DbsxjzcfEKuVgasAgiV6hRVN6uyQJUFbpMFbitAcFCaX4zKV4iDFVFmu6xKKaHx0OOndy+nDctYzTY07rrrdCuUKUm5iC28GoE6mdLMNEw+kYR4Xa4WspOblYWb3htTUYmgd5cPHYGRoXg6LZTa1DiKMrF6+OHpqcKYWYg+Our32n9jQS55dhXRXpBecEUe3jMwkkDRBeqmhkxZZhrFvpGEX/MZe2kBmRY3Vztr2WbDYjZhMBhw6LwJDfJDZSvFYNGi93bHmnmefM9oInx1SMjISBWo1TKmojzybW5EBvtcRbmWrWXkGewE+vtgNeRQZHEnJMjnij3lMjJSSgiIDcPdmMdZgyc1wjz/nLYtlBRLs9D4XIfQflP2uP5FdxRAcFUx7P8H9mL4Dxag6qNVFqiyQJUFfrfALQYIosxRkBT9/K7Ts0M2c3LFT6zKjyLaephsbTQxvhpsBgO5/vUY36cl7kIvwlnE7vkLuVS9D0NaRlzJ47sewsb6yeNIm/Iu9dIOsH/FPA4G9GRgm9q0aNWYEK2J1UsXERLrx8I5l2jftzZqHJxbtZPa775Nd8dZflyRhvbEfE4l9GJwOy9+/fAkkz56gtjyvgYXE7ewsUjFfdIupibVoVN1HfK5zRyp8zIvdKvQ5fdP3cpBdtJ+fv7wcy41HUz3SDVm91j6d2mIBpmyC4nMXnmAoLpN8Sg4x6XjJyiIa0Szek3o2Lw2qvxDLFmdRPV6gez59luOBTSlU9NYStItdBh/L/W8bKTs38WJXAPZpxLZkOLB0F5N0HkE0rRpI8J83ck9vp2FZ6yMHtCZo7OfZU5BS6Y+OpgQD0UuWr60hLFvX2RQ/9pojq/htYsNmHp3FB5htWjXKB6d4C1UGK4qhl2fE9TpmUr9Md1RAMFus2IrTsc9IBpJtHy9PKoiCJXqFFU3q7JAlQVukwVuMUAQ4khCJKl3796MHTv2KsllU14OOXYzxrwykn77ntU057WW2Xy4vJhGg4YwtFUtdCIQINspPjubCU8c4fG5H9I+sDw6UJLGyqVLWTVrHqZ291C/SQRd6jbFSzaSuO8Idbv1Qb9vLu+v2I9v7Sgurs6jWR+hXOggddsZus77hkZHl/PVoi1c2H8IGnahR3Qa3+/y5e424QQ1G8C40BO8MmsTKRY1veNKmZ8cT9t4HfL5LZzt+gvfDr+ZtvVWEhcv4LSmgIO/HKLB/QNJO1zGcy+MwMNawvkMA8Hudooc7ugkM4fee5tzj3/II9FuyCoJldNGzvnzJKdeJN9bZtXrM3Fv3QTJowP/fqI7ARonRRnpXLq4gxO5MTStr2fnDwsJHjWZLvGheLlr2DZ3OhmRA+kfuIvXfzHQtKaTffaGTJ3YCb1sZs+MKXxa/Wleikzh4LJFrIzrxdia3oTF16deTOC1orPITie2ohR0osNtJY47CiC4lBTXz6Dm4DdcqllVAKESPaHqVlUWqLLA7bfALQYI4gGTk5OZPn06GzZsYOrUqS7JZbVaRfHJ9bz6eSL9nx/N2Z9+omYtH35IasLkJqkYg1vTuXFsuWSKTOnSV5iwW0231kMYM7A+V5oW2tj08EOkPPEiUVt/YZlHL8aqVrGyuBGTRvcizM3E2qUL8QqTmD1Xw7OjAll4FgbX9MSjeUfC5Vy2f/IG76w8RHjX7oTmaRj46mQKVy0kuNtYWkfrSN63jQ3ZFoaY1jJdNYbqqRuI6tqXJhHh+Ad4V5jLdZbTnsSP0+aw7eQ55JBgvJ12NB4qTh4roMVdDek87AFM62Yy29yJB8MOsuVcKdnbt5DVtDMNPX1oOXo0XdyTmfnRfDwb1ODSyvVEjXsGzz2LOVOtD8+M7EiwTuikZZBfnMnqDUdoGVXERwfrMf2xluj1erzSljLqmYW079iavXtTGf7W6/SOMLDsrReZXdCElyfUYfYL0yib8itDk95hQ1YIkYFacjJSaDHsZQY1L+9+WjGCYC4hY9kLRA3/vFJ9+I4CCFazEVPGUXximyH9Ls0LVEUQKtUpqm5WZYEqC9wmC9xigFBQUMD27dvZv28/2TnZDBw4kJ49e5brIsiUJe9jZZIBP0MGx7Ys5psjYTw6qTMREQn0a9cAnegdYkrmi1d/JmbiYLI376HDkJHU8HcDazEnDiSy9K33MAy4n0CLgdq1ayEVZJCljmBAr7ZYTq5j1sK1qIO8OHHei/jSJDKqNSf6YCJN5v9AnV0LmJNkwufCBQJ69qGzbS+fpLemqXSO9g+Mppr5Aot/WsimdDVjYs/yeUFTArPPULNhEyLCqtGyW1vCRRv4GwxLwVnmLt5D+/YJHNl5En2cL5t22XnzpWEo6gIOinOTKSh2Iz/rNIfm/MjFXmPoVz2WxnWrYTq8ksUn8pFyMrlklgiNikGVm4kjOoY23QbRNNjJosnj2N1hIK0rtHuW8aD6Xa2oWXycJUeOYSqIpu0gWPyNkynDtTy9Us8rQ6tjtxZzfsWP/NrgBQaefoPl5zwJ9tdSUJBP59GvM6iZEFy7eriqGFL34hlX3rivktz3jgIIJfmZ5O36mrgeU1C5Vcg1VQGESnKHqttUWaDKArfVArcYICQmJrJ27Vq6detGzZo1CQ4Ovqqu3rz3a/6V2IgnGl5izsL57M3w565ug5l4byeivD2QMHN85c8scjTj33cncHjpPHb73MXj3eu41ENPH0ti+/SP8fpwJh3NaZxcNotlpc15bPJAEgLdydq7hnn7LtLep5D3T0czKMrIQYMvQ6KtFLbsR3zuIVbM/oa97g2ICQlj/LBGzHlxBureT/Hc/W1wy97Nj/OPY0ioScs98/nCqsfD7CQ2xBNNwiievKfOkL716gAAIABJREFUNZyIP65mwdkdfPzlAtz8w5B0dgozssg2hjPx8xdppxPgwk7S188yT+pNsEcOLevVBWMRiUl5DBh+D1GeVjb/tgSVXz1Uq97nSL83iN2zFPMDExnq7+HqBzL7X9OImP423V33++M4sOUHCt270bXRYV5/T+b5EfDsbxF88GgzV0Oqkl+n85z/RIakzuS0qiE1wt1IOb6L8M5PcnfTPwIE0c0xd/00Qvu+Uanue0cBBEGuEUhJpRFyGBUMXwUQKtUpqm5WZYEqC9wmC9xigHDDp7Kn8+XTM/Ec2pRjS04ytLMvH57szv2ar9io7c5bk3pSdGoDHy65wMNPTCDWTweGJGY89wkeE1/noYb+qCUrGx95jJJ3P6XB1tl8mFqX9ye1Ju/kSUoj4qjr7WTN8oUk/3aMrAZ2vKSeSHo9k3QLeM/nXV7vWchXj7/AZimS2o1a89DgON6//0lMvZ9j6kN9CHaTuJi4nR2Zh9m1opQ68SpaPzGFxnlz+fcvdZj2fBs0OLBaZXSivft1RlnqWRYmniTyzGEO9B9L7PGdOC9cxPDkC0z0AtOReYz6RsM7E+PZlpzLkJ5d0WRfYMHmo3QfMoQYLwub1y5Bo/dk+cxt1L+vM9Lx8+gmPMiIQE9kyyneeHMvj74xmj8mA5QJuQCCW1c6aOby4t5evNMjjaeuBQi+Y+hz7DV+PSbj56OhxGimz6S3GdZSgLo/xBBce+NVkfVKcOE7CiCUFmSTv/cHYjo/XBVBqITFr7pFlQWqLPAPs8BtBAjW5EQ+3y0xqq6R7KCWNChewUObW/DZaB+OXSiiQayTuV8tJ2bgODonBP5ekmdP3817H66h5ePP0cR8jK9nLKX1tMmk/rIcXXR1/NQmTpzOofWIETR2S+bnH1eSrmrIhCYX+WarA6dWRWxxItk9ZvFMwyxWr/qNExlmPLygILWI6HsmUvPcUo77d+CRPvXYNm8Why/mIncdR+jyaVyq0Zww4wmOqEYw/ZFmaIq38uZMCy+90OOPi2vP4cD6RLZfzMQ/M5mLTTsSlJaEnJODufcAhidEc3LVWtR9R9Ik7xizl63GJzQaVZmBXLdIRo8cSJCcwbZVq9l7poTaw8ZQI3Uj6xLPYKvWjYeHNyH9twWs1rbjqe5/Thg8vHUumTke7N97irbPvEDnkvU8vymUtx9s4oogFC39hNcLoonJO4PKOwQfDzWG/HRM/s14ZFRXPK9psCciCPlbPyK4+4uV6tB3FECwmsuw5JxBH1n/n9XNsVKXpOpmVRaossD/rAVuI0BAdmJzSGgvt742ZHGiwJu6MV6/6x9YzFZ07m5/qMd3Wq3IOh227IsczVFTv14E1uxUUjILsKNGHxRBfGQwKkcJuQV2AkIC0VqLyTc40LrpcDOmk6WrTpQ6j5PpJmITYtEUpJNi8aJOdADOsmKyjBAZ5E1u+iVUfuH467XkX0rHIzoavTWXlHx3YiK8kUzZnMvT8//YOw/ouKpr/f+mN4006r1ZsmzLvffecMPG9N4C6YQ8kpDkJby8kJf20hNCCS0kgKmuuGDAvXfZsmVZslWsXkbT+8x/nTOSGzYxYB44/7lreckazb337G/vb5/v7HPuucVio4QLj2A7Rw/V4rlIgCmUKtJ7lZKqR7Yp6HbR5Q+SZElAGfRjc3owxSeAp5nyo40kFfclL9EorxR0tnKkyk7xwFzsp5vRpWeR/BFvybW112PvcNMVl8WAbDMKVytH27X0y7dIbP3NpzilyaF3sua8vSZEFV1xkZeTRcJBvE1lGLKHXVHqXFUCwdpSS+Pqx+l7y29QGc55jjc2xXBFgyJ2sRgCMQQ+JwQ+T4HwOZkcu+2nRyDstXH6jW+Td+fzn/5i51zhqhIIAZ8Hb1slcZmlsQrCFQ2D2MViCMQQ+EIgEBMIXwg3XG2NiISC+JrL0P//XEFwWMUahJfIm/JVlDrx+s3uI1ZBuNriOdbeGAIxBC6GQEwgxOLiEyAgdlLs2PxHUmf84BOcfelTrqoKQjgcIux1oDbEg+KcPbcrR4EmBTQX2T70isIVu1gMgRgCMQQ+QwTc1ZB8IyR/5zO8SezS/3YIRMKEPDZUxg8/AvlpbL2qBILcB2HrkxTM/g5KffxZu61PQcT7aXCInRtDIIZADIEvAAIKMI4F/agvQFtiTbhaEJD7ILz3C9Ln/uyKNvmqEgg+jxNP4yESCkZe8ec9ryiqsYvFEIghEEMghkAMgf8jBOROinU7MBZOuqJ3vKoEgq29gZYNf6ZowQ9RnVtBuKKQxC4WQyCGQAyBGAIxBK4eBMI+B82rHyfrul9f0UZ/pEAIh8O4XC6CweAVvenFLibeMvbII49QVVV1yXuFgn78XafRJ+VBOARKVXT3KPFmx0hY/i4/F8+JRiLd6xQi3bsuhkH+t3sLKrGGoee74TCo1N3XVEPIDyoNhIOyUhERvyvVRII+FGo9hAPyZzjgkU9TiM+VGoP8nkKlIxxwo1Dr5O/yc3GeSkM44JWfI9qs1hMJ+aLXledpz94/HACFCiLCxm7bxNOxwsbznoE95zNpf48NKnmPHpsubYNoq/ciNmijtp2xwUgk6AWlsLXHhmD070GfvE+P7QIz2Y5uzD5sg/BPz/oR4YtIt6+6fSZ92G1nt4+F3cLHEYFLj89Vum7/aAh34yvxlrhG8TxrQyDqh4AHhD+lDd1+VAkbvNLf552v1BAO+VAoNd1+iMYDyp64UUbjSfwusBeHjDlhU7dd8jNhi/Blj3+ivhXPLYuYEDGoUKkJB0WbRRvETqHR2Dkf7wCKMzb0xJywVeyepiMcFLEYjdUzGAgbpK3R2Ir+PYqhjI+P5I1s/Dl2CZ91c0ryRuAQ7OZJd5z28CYkYuPSvIn64TJ5c8YGwZvumDvDG2F7FMNo7J/DG4F5lPBn/XOGO5fmTRTPi3Nf4iq5L3jTjfd53L84b0QMRf1wjg2fmjc9sXUub871i8Aj3B1T/mjMybwjeNMTM93cvwRvZJ6SMdfNj/N4o72AdyJmo9wXee1DvBHxIvLZhdz/2LyJtj2am8/l/ifhjbBBYHAx3ohc38PPHt4oZQx+ct4Eo7lA8kZwsgevKPej8S3yk+h/ov3N2ZjTd+evC3nTHXNKNQFrDdrUPle0r/5IgdDe3s4f/vAHysvLr+hNL3axxsZG2traOHny5CXv5bJ10L7jGXKnfB1X1Xtokovw1O/DkDWIgL0ZbXIx/vbjqAyJhNydqOIzQICtUBH2O2RSVBoSZeelNCUT6KxFZUqUP/U5wwm0V6FJLcF9apvccMLXcoS4PrNxVb6HLmswjqOriB94PZ76XSQMvQ3rrr9hzB+Lo3wFltFfwl31AXF952Dd9RymPjNxV2+WnzvLl2HIH4tt7z+I678Ab+NBzP0X4Tq+Bl1Gf1zVWzEVjsffUYUucxDe+j1oEvMI2BrRpRQTdHeg1JgIuVpBpZOdm0KplIEddLWh0sURdLajTSslaD2FOiEbb8NB9FmD5TVF2clVvQF9Wl+cJ97DPOA6vKf3Edd/Iba9f8eQPwbX8XexjLwX14n1mIpnYN37AuZ+c3Cf3IZl9P3YD70etWH/y8QPul6eby5dgOPoCvSZQ3Cd2kpcyQx8zUfQZQ7GfXITuvR+BKz16DIHErTWojQmEuiqQ2VIkrlbqTPJDk3Mn4lNSsT/1eZsaadYY+Jvr0abVkLI3ogucyieul1okwtx1+4grs8cfE1lGIumYC97C2PeKFw1W0gYfAuuqvcx5E/AduBlzKXzZenNMvwebAdekbbaDr1BwpCb5fXi+s7FfvhNDLmjpN/Nwj91u9FnD8FRsQZD7kj8Hacw5I/G33wEtTkTX1sFGkue7CTUpjRC7lbZEfV07gpdPELRC5uCjhbpy5DHiiapWLZZY8mWm5qYek3B13IUfc4InMfXYsgdgef0XuL7L5J+MuSMlG0zD1iEt24XCcPvpGvPCzLm7IeXkTD8Djw12zD1uUbaZiqcgOvUNmmbu/oDeV2Bjal4qtxgTPz01O1Ek5iPt/EQuvRSQs521In5BDqrJeZyEbApmUg4QkSImqBXCl6VKVX+1Jgz8LVXoY5LJdBRjSFvtLy2Lr0vrurN0gZf82GJq+v4OvTZQ7EfWU78oBu7eXMr1p1/w1gwDsfRlVhG3S95I2zo2vM8ppKZuE9uwTLyPpxHl2PIG4Nt/yvElc6T2MX1nYfrxLuy7e6andIvgc4atGn98DXul7EfdLShTcon7LGBEPKeDimKlFqzFBMi7gS3VEYLQXuTjFfBE40lF2/9PvQ5w/C3VWIsmha9V8YAnBVrSRgsbNiNuf91sq3CBmel4M19uCrfxVg8XX5uLp0nYylx1JewHXoNQ95YbAdfIWHgYjwN+6UNzmMr5X09NTukX7wiDjIG4KnZKpO85L7gj60Bld5MwN6ISicWZ6tRaHQoIiFCHrv8v1jBrrHkE3QIm5LwS3+UErDVo88ZiefUVrQpxbgFR0vn42s8KG0TnDYWjMV1crPMZ8IGQ+GEKMdLr8UteDPiHvm78IO97E3ih0QxEPxzHH4bvYjZmp3E9ZuH9/RuaZPARORPv7VWxoO/tQK1KRVfRzWa+CzCgueGJEKeTiJCNIjNf4R/DEmEPVbZSQbtjWiSehFytUs8vA37Jee8DQcw9RZ55jD63FE4j70jY9B7eg/mAYtxHl8nfxe2xQ+8TnI8Yfhd0i8ifzmOLCdh2O3dvJmN/cArGAsn4K7ZIWPUfXIjuuyhMqebek3E13ZC5k/f6d2oLXkyv4n2hNzWaKx11aLQGKO5wJBABGVUhIcDhHwO1OYMIj6n/K6vtQJNfKb8Ke4puC/85KraEOVRs4jv+ThF3skZhv3wUuKH3BS1YcgtdO16FkPhOBzlq7CMuq+bN7Po2v0CpqIpOCvfI2Xao1e0r/5IgeDz+eSI3m63X9GbXupiKpWKUaMuvTgnWkFoQJ+US9DeLB91lELAYJEqV6GLI+KzR0eJPSOxnlGdcJpIeHI0FY6OAkTHJL7rd0liiaSu1JtlZytWg4rNJ0SHEHQ0y3sI0ookEnJ3yCTr76iWyVR8rk3uJTsDdXwW/o6TaMzpBJ1taFJ6ERQkN6bIRKZJyCLo6UIjE1kTSn0CIWcb6rgUQj4nKr1FXl+pNcmgEzYKRSlG0FLtCgWuVEV301IooyP47uqGSPDCFqH6Q54u2WZhkzoujaBDdLrmaIeVkCPJqY7PIWA9hcqULPEU7xKXNpjT8XeeksEsbNAmF0U7dlO3DQIDeX42QdtpKboEkcV5Ia9N2iB2FlPpE2SnImyU7ToHcxEDsiogfCKUtKz6hKMjFlkRUBP2ueSW2hFxDZFQ3O0otXHRe8VnShvVcekyEaqNSQRd7TKJSH+JDqyzNoq3q0PaFrAKQZhMoKtefk/gLPwlbTMmR6+bkEXI1SH9LzqPaFy45HkiHmTlSMSJ1khEjMp7qihnRkJCuEUrAcImUZ0Q4k6O7EW8emwoNXqJk/CLxEu0vfteIp6Ff6QNxp625sg2aZIK8HeeRC1iyXYaTWIBIVebxCJqW6q0QQgS4Udx3UDXadmZn4mD7tiS8SHiRWCtNckkFq2iREdiQsEJ6ohRn6h2REcyQVmJEYlPfCcs4tWUQshrl9cSsSJ547HJNn00b4QNDefwJlMKMckbV5vsHIJ2wZtkaZvwU1j4W/jTIbgfH/Wf8Jvgrz5eijDRvnDAd0Z8KuTI2R+tJIgqA6IzUp9TAfCg1FuI+J0oNUaCHpFPErvxSo/eS58gf2osOTLfCP8IjgvbxeeS+/bmKG86TnbHkBAp3byRfqyTnJcxK7CxNaI0WKRf1ebuOBC5wNUmbRPcFzbJSoWoQMiKhTo6AlcohRztjrHoiFT6UFb9tFLkSbEnhJ0xSYpAEXuSH/FZEifR1oA1ymmRfzRJ+dEYvJA3yYXdA6meWBT5T3A/U8aWvH4Pb0QuFtyXsZsohUsUS3s3b5woNPqoIOiu2J1beTtT4erhjbBJjKKFr4VvtcZo2+O684zgja1JclPm5IRcmVMlx62C4+fwRvhF5C9bg8zd5/JGiJdo7siN5i0xkLE1SFEjY1zwx90hhUA01s3RnCyrKy4p2gRPZBVAeEbktEj4w7wRfpHct0tOnuWNuGfy2fgWfjCINpw+k6cEp6MxlyxtFgOlaH8jeHNSChHBD5EjruTxhVmDcCWNil0rhkAMgRgCMQRiCMQQ+HQIxATCp8MvdnYMgRgCMQRiCMQQ+LdEICYQ/i3dGjMqhkAMgRgCMQRiCHw6BGIC4dPhFzs7hkAMgRgCMQRiCPxbIhATCP+Wbo0ZFUMghkAMgRgCMQQ+HQIxgfDp8IudHUMghkAMgRgCMQT+LRGICYR/S7fGjIohEEMghkAMgRgCnw6BL4xA8Hg8tLa2kp+ff0mLxM6ObR1WUpIS6ejqIs5ooMvuIjE+DrfHS5zJiM3hxGDQ4/X65N+9fj8atRqvL/ozHImgVqnks6rhsNgZTmyLEEGrURMIhlCrlfK7eq0WfyCIyWjA6XKj12mxu8S9zLjdXiwJZto6uzCbjHQ5HKQlJWFzOEgwx9HSbiXRYsbudJGRkkxbp5X4OBOt7VZSky04XB6SLQm0W63EmUzY7E6SLPHyPuY4I9YuOyaTEY/HR7zZJG3TajV43F50ei2hYAiNVnNmh8uI2NdBqUSlVBKKiK06wB8MotVoCIVC6HU6eQ2dRo3L48UcZ8Ij8Ikz0SXvZcDpdJGcaJE2xBmNtFttJCXG43S6SU1OpLXDKm1t7+wiLSUJh9NFkiVBfh4fZ5Q2pKQkYnc4u79nI6G77YkJ8RI7ganD5cZo0BMIBDHodXi9fol5oLu9wj8KFITC4jniMCq18FXkPB96fcLXJrw+n/S13e7CZNRLG8W9hD/iDEY6umwkC1zdHlKSLLS0d8q2tnfayUgV/oriLj63mOPosjtJT03CarNLjFrbO6WN4vzkxAS6bHaMBoM8T1zH6wtIW1xuN1oZLwEZJ8FACJUqapPYr0Ipn10HlUIp/aJWKWVsiXN9Pj86rUbGhMmkl36xmM102R3y7102B8lJCTI2RNw3t3bIGOm0CRuS5d8TE8w0t3WSlGDG5nSSkZoi/SRirrm9k1RxvrDBYqGzq0vGtOCNJT4Oj9eLyWiUfpP+8AUwGXX4/UGJvU/wR+zqFolIm8TeCCGx/4NCQTgUQauN8kajVuH2+jDqtfj8Qck9u8uNQa/F7nBJv7jcHtnWto4uacMZ3tgdxMfHSX4kdfMmPSWZ9k5rtx+spCRbJAZR3nRFuW4XMWjG6fLI3612u4xdgWG8ySjbIzggbBT8ETwX7QyGQjLHiM2gUCrQqMRnYbkppmi7XquRNhn1OpyCc1o1To9HcltyMk7Ell3GueBNUpJF+kvETHtHVzdvXKQmJ0X5YTLS1mkjXfBD8iaeVpETBPcdLlKSEiRGkl9Wm+S8x+MlIUHY5kan1UrshH/ErraCz8IvgvOC3yKfiUPs3ylsFG+9VWvUUXs1asmxaA70Ss6L3Chjy+6UeLndbhItCdKGOJOBDqtdxru4t+B+S5uIORMdVmHDWd6I2BK8ETaIz6O8MUqbk7r9LWwV1zXo9ThcLsxGI17/ObzRaCQnRG4IhcIyroJiR0GxSWm3XSKv+fwB6TvxU8Sv4L5eq5P5RLTZ7fWe4Y3JoKejy0FqcoL8e2pSIk2t7ZIPIrempyVjswvexNPU2iFjUsR/RtpZ3oickCIw8ERzdWeXTXJf+CnhDG8M0p/CH35/AINBR0DyRil/F+0We1YoFQq5zYuIKaVSIe0UeUJ8R/hH5GTRZmGbsMXuELzRyTbJHOyK8qa1Q3C6mzfJSZL7oi2CN8mJAmcnmWkpn04RXHD2F0Yg7Nq1i0cffZSNGzde0kDRaZxubCE7M422ditms5HOc4I53hwng1SALZKDJJpIEupokhDOEB2QFAphIRCiW+SKRCESvEjoarVKklMEtCChIEY0eeplQhPBIsgqOo7m9g4S4kx0dtmlY0TSFo4UwZiSGE0aWRlpkmAiuYjPM2VwOmUn29z9uThfCAcZfOY4mQDFfWWHF2+WQa7TaXHJhKuXCU50KqKTEYEnAk4pBIJKJW0S5BKdlTgnGAzJYBNtFolGXEu0UfyeEG8+k4SFjWnJSdIG0bG3tHXK5CCIlJmeSlNLuwxG0eas9FRpW1pyYvTzhDisXQ4y0pIlAcX3xPmJ3aJHCg+RJERn7hBJyXCmgxTEFglOCAaRxEVHFBUIISkSor6KSHvFdzXdvowmUZ8UN+KegvzCNoF7p82G2WSSYlLYIHAVbWtsaZM2C3/kZKRJW8XfG5tbZYIU18nKSJWdqyXeTGNLK6lJUTGUmpJEh+yYxP0c3Z2rT3ZM4u8CayEsReIVSVylVEkfKJRRgSD8JHwkkoKIMZkMehKdTieTrCC/SBYiuYqEJK7dI8hEIhJJuKG5VdogbMvJTJOxJ5J5Q1OrFEHCppzMdFrbOqSIPd3UKgWD3emU5/cIPfE9EctCOMjEKXhjNESFo8mI2CRNYO8RwloIasTur1GxJgSqSOTCRyI5BgIieYtE55FJVIgecc0uh7Nb5NiluBE4JSdZpMgRcS5szExPkTZI3rS0k5pkwWp3kJ2RRnObiLno55mpyRKj1JREaZvguvRfUlSUit+Ff8R9BYai4xLJXcS8W8S+TivjSQgGEWuS92JjLoVS+kPapFRIv4jkLXKByWCQMSU6LyFwezo9iX+nVXJfiEXB5U6rTbZV8EPwQnI/PZXG1nbZlh7eCB6kdPNG2CxsTxdCzy5iWCT7zqiY8ogcEx8d8Oh0OJxuKYJFZyp+Fx2kUuzUGYqKM8GZCBGZ34QtYsAT6uGNGGBoovwRuMtBgikqoAVeQuSINgkbzOboQCZdcF90msKG7pgTbZPct0X92dDSKvOg5E16qsxbQnQKf4lYlHxMTsRqtXWL0ugAyuP1RwclLldUWIvOVeQqmccU0j+CLyKfCUEq+eITA4lu3sjBk8jRgjdCrJuiOTkxQYoYYZvwjxDQImbEz/qmFplLRfznZqbLAabIFfVNguNR3ojPRU5PNJtpaGmTfBG8E/4VfBPXtdoc0cGc29M9OHRKISm4L3KDz9fNb59ftl8ODIRQAJkXRA6I5uRo/yJynhBiUtj6fBIf0fEbjXqJq8hPgjcCTxlL8WbpJ8kbq03m2MaWdhlzQtT0ysv+9xQIQhg8+OCDVFZWXtJAQQaRIEXy6FHNVxSN2MViCMQQiCEQQyCGwFWGgBgk1pxupCg/54q2/AtTQbgcgSDKadFReEpUnXUfQon1vFfmiqITu1gMgRgCMQT+jxEQI+Vz89v/8e1jt7sKERB9Y1Qg5F7R1l9dAiEcliVXUW7pKdsINN5Y9o4sF4oyZ+yIIRBDIIbA1YqAmOIZPLCU/n1LrlYTYu3+HBAQU8s901hX8vZXl0AIheU8i5gbEgumeo4/P/MCo4cPJTMj7UpiE7tWDIEYAjEE/k8R+GDzDooK85gwZuRnfN8wobCCgNeDQq9H1z1PfrGbeu12FHHx6M6m3I9oWwi3O4TRqD3/O2JthFjHct7r6j9jE/8/urxYX1Pf2ExBTtYVtfqqEghCJYlFPWKRiFjs0XM8+fxLzJ01nfycK7tA44oiHbtYDIEYAjEE/gUCb65YI1fTfxYCIRLy8cEzP+Wfmw5zdP8B8r78FLOanueHR4p45htTySoeyJA+OegIywWD4ghVPMWUW5dw/W+f4ZvTShATuz1PTLVt+hu/W30ShSKAraON5obT1J6q4hBT+WDHc0y0dE8DR/wcf/sP3PGrDdz8+3/wzVEJqFRq1EqxnDp2XAkExOJUsTAzPTnpSlzuzDWuKoEgFinWNTSTl5UhV7TGBMIVjYXYxWIIxBD4nBH4LAWCeC30waW/5/HfvMCmzDv5zUQvL764BLsuAXv9KTIWPcqTP/8GedUv8NDP1uMzGFAq/FTs2Y0/sy8Dc1II+UP0WnA/P7h9Bm1P38y031czZsJwUs16jGYLyakZZOXkMWrKLPqmasHXwc6V/+Dnv3uV4Lj7+fVDI/jHd39KaPZDPHbPNOIvqyrxOTvlKri9WINQeaqOfsWFV7S1V5VAECs1xd4B4hGbc9cgxCoIVzQmYheLIRBD4HNC4LMUCJGgl1X/+01+/sIaDimKGJvuweozkJeTguN0NS2+VG544im+bv8zU7+1hX7jR5Osi1YS5BGO0HV8D+2Tv82SH9+B9fnbmPXbKkaPH4ZFd341QJNWwm1zRrDp5T/zj+WbCfWaxM0LJ5Gh9bNn5SssKw9x7Y/+wh8enIAlJhI+dbTF1iB0P0da29BMfnZmrILwqUMqdoEYAjEEvmgIfJYCgUiYxgPL+e9HH+Ofcbfx3GIz77y0hGpXGEU4QHODl1kvvMavU/fys9+uYtuxSpo6HThtnaCPJ06jps/4+Yy8ZiGP3DKVlhfu5Nqn2pk7fyLJFwgEVUIOC6ak84s7vsUWe0huxiX2l5BPaCiVRFwtHK7T85O12/nO6IQvmhuuuvaICsLx6hpKS4quaNuvqgqCmGcRu9aJYBO7U8WmGK5oLMQuFkMghsDnjMBnKxCCHF35Vx785mMc8ujIGXM9M1IddPmBgJvjh2oY8ad/8NeZpeA4xSvPvoFryr2c+N4cbPMe4aszBpNR2JcMU3TIf+Kvt3HfMg8F2RbCwTBq+XGEgMdN6c3/xQ+vH4iybTM//5+3aBO7iZ45xIJFIwXTr+fL84Zjii1F+NRRJzYwE5s6iY2WruRxVQkEsQZBrNTMFWsQztkHITbFcCVDInatGAIxBD4vBD5LgRAOOPjrVxfyzPvV1JfewLcHBinbf4imtkZ8eRMp1sGMH/wXXxqah+/4e9x5+/fR/no1Wf89hhXeXIrSMrnh5y9y70C9mG/+KLbfAAAgAElEQVRgwyMz+HmFnrYTJ0m99bvcVaSFcBNL/vNxIg+tZMWjU1DXPcnI0f9L0e1fY3y+TsJqO7GbZ1a28Iuj67jdEFMHVyLWRAWhqqaePkUFV+JyZ65xVQkEMc/Ss61q7CmGKxoHsYvFEIgh8AVA4LMUCIRDNFZs57U//YbHQvP5Wv1fWFGbzPR5Bg6fKKG3/gSm237FHxf0ZvcrP+OOb/4R+5zHmNbwKql3/ZTvzh1OQnIaZq0CnDu5e9xdaCcvoHrDB5Q8s52nxhkgcIz/GDCBivvfZsX3JqM+/TRjp77I3f9cx5dHx8sNoRve/zvXPvwGj+xexW0xgXBFok5UEMTWzGK76St5XCGBIPYAF+89+eRq8HJ2UhR7dIuVmiWFefK9Cj1HrIJwJUMidq0YAjEEPi8EPlOBIIwKd7Lk0S/zvVoL41oqaAwpUfYuxlS+G2dibxh2K6/MaebObzxHzqwJdK5bwfZGP3kDh9E/N4mgx0fa5Nv5WuoeHniqhke+u5i//+gHHNFkkC06+4ifpooj9PveO7z1nUmo655m9LAfYc8rJsnQ/U4Cl5UTnTn8pXIdt+k/eZ/xefnoi3hf8Z6Hg0dPMGJQvyvavI8pECJYK/exv8GFiiA+jxun3Y61s4POuH48eNt0LNGJKHk4Th9g5fuV9Jk1h+EZZiLirVaXaP7lCARRQRAv5xDzLLEKwhWNg9jFYgjEEPgCIPCZC4SIhyPvreJdT2+uL4pwsraCA0fqUCTkMGn6TApzLBg6DrJsWweTrplOYuch1m0po77ditvrJxhWUzhpLovHFWFtsJMa52b16k106SwkaASAQWxNTVhGXseCETkorft56Z/biSSnYxKVB6FRfC5abHqmPngzA2Kb316RqBMvtBNvahVP+F3J42MKhCC7/ucubvzbHuLjTfItb1pjHIlJKWT2m8LDP/oqg+O7PW49xGN3P8Dr3uE8/T/Xs/25N8j98uPcNjRNvo74wuNyBIJ4C9ap+gYKc7NQn7Ot8qeuIIR8+CNatOqLyxf5hsTuN/JdFviRCF63C19EQ0JcdN7tQ0fER2e7E1WcmXiDFiIhwqEwzq4unGEdKSlmxF5k4g1zn/yI4HV5UJmMSO5+oiOMPyBeh31234lPdJmLnhTC1tyBKi2NuI961CkUIKDQoPkiPQ4VCeNxe1DoDOjPEcWXwiYUDIrX0smNZj7JIUqIYpGuEMYXi4iI30dQo0PzacLlkzTsX50TEfETRKnSoFZd2LgIHocd9GYMXyzn4u6yEjBaSNBeKujC+P3R1yqfrZxGCIrFeufs0fKv4Lnw75+5QPi4DYp9/6pAQKzPq6g6xYA+xVe0vR9bIGz/z0UsXJfDkuU/YcAFHWoENebEOGwHV/H9rz3CmvBQfv/k75if28Yvb7qZl9VTefbpXzO7z4ffWX05AkG8claUUtQqtXwdaM/xLwVC2En10TocChVKwgR8XtxuF06nE5vNRktrB2lDZ7FwbBHGC5JYyG1l56aNVIUzmDp5FDkGCItXxJ7bcXcn7572RHxOtq9dxhZfMY/cNOa8zvmM0PCf4B9PbSJx4ixmDbZwePVaThoy0bacotyby7xxcRw+6mLagkkku9vZsW0Hp50hpOHiHagKA7klWai9gfMCwpiWz6CCVFSKCEH7aVYve4/G+L7MmTKYjDgttj0reLMunnkzJ5JpDBDAgFEvXhcrFiD7ObF3KxuOuhm7eC4DzUrw1/PGM6sJDpjIvEmlF9nYJExT+S7e+uAIva69h7mZdjasfJdd9kzuvmsKmWd6RPEa2qB8BW30CNF6cCOvbD/N0NmLmFiUcFY4KlVozyTZCN7KLTyz3cqE6VMYxEmeWVdG/ojpzB6Sw6cZgAQaj/Hq+j3Y/OIV2RHCcUVc28/Dyt2N8nXGEpKIkswh47l2RBHn9hUiLja9s5zd7mxuXzyexJ5+RKFEb9BzHjUErhtWsd6azJwZY9Cc2MKyg82MmH0DY3LFgq8zkYOjpZ4Gm1hWDmpzImZ3K60BaD16gB01AUZNH0uOLoIqMYc+6aYoktaTLF+xGXXpFGYMsbDn1SXstAoxgRSd6aWTuX7GAIQ7L3YcrzrJ2vUfMP+amRQV5ouXhbN16Rs0Z4xi/shi9JcQzuJanQ3H2LGvGvc5j8sHValMnTeaDCVEanfx27f303vytSwYln3e4CAS6GDNP17nhLkfi6cNJ1EfDRaFUo3RoL1ktfHjZsBI80FeWFlO2tCxTB/eiwunvSM+O3s3b6cuvjczhxVi8rfw7tI1HPGlMmf+JHK7S+Oo1PI1vVqVgrCrnQ3r3qVMUcKds/tjVCjRKNpY9dJagn3HMW14IeI0YUttfT3r3tvAnBlTKSnu9ZHNjwmEj+vd2Pd7EBBT8OdOvV8JZD62QNj148VMffIoQ4cUYDivBRGCkUK++st72fCde1hSZiezdAhFSTr53GvY08yRsjo04+5l2Ss/o/SCuafLEQhCHJyqb/z4FYRQC+88v4JDrggJFhNaZfRtaWqNRr7P3mA0kpCSyYC+RSQZzo7xgs52DuzYzLZKG+n9hjNjVCGNZftp1eUwfmgRxp6E6zjNzrJ6fD3pL+SnobqCmlAy4/plyXe1R3ubMBklQymKD9FpPcE7b+zBPHwsIzO1VB/cSVmXEoPfQzsplCQ7qXHGM2nMcEpyjZS9v44dpyP0LUmj89RJPInFDDQ0saPWT3pqEjoV2Fqb0fSZyJ2T++Fvr2HHjt0cbA7Rf9hgVA1H6UgqZZyynDcqQvTNT8fZdIpg9miundyfhIiT5jYrlYd2s71Gxcxrx5EfbybOXsEzr28neehUpg/JlmJHZ4onTqskHPDjC4VoO76PZZuP0WvebfKxqa2r32OXI5M7bxtPqkqFTqdB6XdxeN9uyhvtZ1+86bVT09SFPjGFNIsxil4EjLmlzBlRLBMxATu7V6/gg9MKpl67kJGRY/zuzd0UTFjAdaPyUEXChCNK2Rl+3CPUWM7flm0mnF5CZqiZ4+4Mbh3gZMmuLnr3LiTRoODUkXK0g6Zx09iSswIh5KV6/xbe2VaBW6XHpNOInhivz0dIlcLcO65nUM82s0LU2upYufRdqslm8Q0z0Rx5l5e21zLx+vuZlK8lEg4RUQrxGqJ2+1rerezEZrWhLRnNRE0DR6xBPF2dtDrDpKQl4LF2Yhi6iPvHZ6FRKoh4O9mzaRN723XMnD2Mhnfe5pi+iIG9jBzfdhBFv6ncNHPARas0breHpe+spa2jkwfvvg2DwYAi2MCbz60mNHgKi0YWowq6aG5qwyM20+8+wto4inJT6ajaxdtrDqPPSsWkVuHubKXBl8ntD8yhQAWR+j387s29lExZxLyhmWcEQthnp3Ln+6zce5qwVo9Bp0ERCeHzeglZ+nLPHdNJ/6TllgsCIdK0l78s2Uv6mGksGFPyIYEQ9Ng4un8328tbKRo3HktLGVsr21GFfdh9EeJMRpR+Jy59JvPmz2JQppHag1tZvf0ojpAanVaL1pRI38wI+w41oDToUKk1GLRq4rNKGDeilKWvvUpqcjLXzZ8tMb7U8e8iEETFS3D501VAPy6jP5vvy/HY512ZC4UIiX7rEu34wlQQdv34OuastPDQTbl4HZEzKl+AmDHpPu6blE7N5qUs2VROEAVKWZpXyH9hvxOnZQTf+94d5HXPR/W49HIEgnyKwekiPs708dYghFpZ8+JyjqvzmT1nBGlqpdxPXExTaDQatFrN+cBHwtibTrJt+26OtfjpPWoCkwYVYlZ6ObR5PRsqusgeNoX5owuQjwS3l/HPFYdwdq+xEOTwuOy4IzqSzPqzSTEUod/UhQylmqVbD9La7kKZlE6eysEpOyQlxqGKRBCoKpVhPHY7NmUBd9w/hcC+Tbx9yM3Ecb2o33eA8KCZjOvayNvNycybPp4MY4QD65ZSmTiCOyb3pfXAWl7bdAKfxkSSSYPH6cCNiZJMNVVNXtKysinIzSU/L4uctER07Yd4aeVBOjxu3CEVCWYzhYOGku86wYq9tejNFsyy0qCkdOoixufp6Di0iXeOteN3O2jvcmNISSdRE8TWYcUW1JKZkYA6IY/rZo4gXhGgsa6WppZmTjba5ItbPnREwlgy88nKyqI0L1U+V22vLeP1d7bjyxnD7XOHkNC4l99KgXAt1w1L4uSeHTQlDmZs39SPPY0SbjrKM0s3Yx4xh4H+ct6t0nHjACevH4aFU4cRcDSxZ8sBtEOmcsOYqECIeG0c2bODTYeqcQYVKBN7MXfaIHwnD7Ll4CkiuSO5fd5I0no2jokEqDu4jaWbK0ibuJgbhqXQsnMtfxcC4Yb7GZ/cxc6tZZiHTWRQqg6/y05D1V5WbWtiyOgiGo+exBaO4Hc56HKHibeY8DsdhONSGTd9HuML4yQHg14HLVYvSfFeVv99Ff6BM1g0Jo61T71FW/5IrhlXhFYdR7pFf97IvOJEFavWvc/g/qXMGFXKzt37qG3voKG+E3VSCqlmA6m9iuk6uI16d4/HIoRT+vG1myfiqNrN2+/VMnSYharGAOaIl4pWNeNGZIiCFApHI9uPNJBc2I+hQwczvCCZoKeLw7u2sflQHT4F6NKKmTGmD97qPWwsa8UyYDy3TB8U5dYVOCINe/jza/tIHTWFa8f3vehz95Ggm7ryMvbXdqI3J5GUmYB1zxb2tkXI6T+QAucJKhSFLJg9juxQHa+/vYVIfj8yOo6y15bImCGZVO0/iDtzGEPiWthRFWTG7JGkGkwkJyWwcdNmysqPMW/WdPqVXLoM/PkKhDB1W9+jvmQ649N61FmE+mO76NIXM6AwJRo7zka2HPcxblg2p6ur0STnk5VoPM9TnSf3sGRVGWNvvZ2hqedWyc5+zbPxb6xNuoVFg8wfqhYFbc2s27ifwVNmkJNwwYufzrlTZ/0xDjb6GTdqMHLMGXGxd9X7MHkefZ1VrH9/E83OEOn9pzBnYr9ucRjG3t5OMM6C+uQmyiKDGd8/7WwbIg7ee/otcu67m76KJt7+0xI01z7A/N4XtLN9J796sZ37/mM+qR83VkNemludpKRZqNiwBs2wefRJOv8inqOv89rxAhZfOwL7ksdZlfcAD0zMuug0pZh+7LKJ9xR9rk8x+Fn38Fxu3VbEuNAqDjriSRbz5yEfLQ1W+v/5MO/fmUrXuj8x/NYf0eQXb+/qHjyL0UHmBN5440UWDfnwG6cuRyD4AwEOV1QxsG8xWs3ZWfV/OcUQauPdvy9jT1cA/aVKl6Jj1mbwzbvn0HTwA1bsrMTmi5BYMIBBuWY5zyj+Rbx2jh09TpMjQN9JC5g3Mv/MiCQSDsvRccTnYte70SmGh28YHe24us8X//Xb2qg+XcmW9Ucwlg4grauKg1Yz6SY7dndEiqmIWks8ARr86dx+/zRC+zfx9rYK/BEFkYia3tMXSoGwtDWdxXOnkG2KsHvFqxyJH84dk/sRtDdwtLIFhd6A0ahHrwnRblOTYd/Nm7Vmrps7nbx4P1vWbEBbOoaR+hqeekuU7scyKDvI1hXbieQUEOioo8NYzKS+KXibq9h6tJERix5gVpGW9iNbWX+8k4DLRlO7g7j0bJJ1ITpb2+gM6MnLSURtzmbBtGGYu+fpww27+PNru/Fp9WjOnbsP+HD5woy74UGmFUQTgsB6x3ur2VTRRubEm7hrdDqKuj1SIGQPHkOmq4ptJ1oxZ/dj4fyp5Md9vCFnpPkYz7y9kTZPEIWYJkruz10DowJh0fS+HFi+nhMRM6NmzGRav6xoLAedlL23hh2BAiYVhtmwcR+++CToaEeVO5TbFo0j5ZySvM/WxLsrVnGoTc2E2+9kSrqS090CYcjEKfiP7+Roi5PMAWIaYBAJCidbXl/CEUMpN47Kovx4HX4idJ0+xfGWIEV9srHV1+BOLGbmhGFETu1m27Fmggo1eaWDyA/UsuZgM6Pm3sS0Ih+rnnmTMln/19J79s3cNMByJr0KIbt99142bNnB1750N4mqAFu27+JEbT0tHgWWOB02m4u80VNQHNlD4owFzCk0c2zbGlbWWXjo9snYugXC8IFqNh91kptkpq4tSJauhVprmEhYCF4R/moyR8zk3sm9wWtj18YNVOj7MyOzleXrDqO06LG3uUgoHsbimSNJM36ayaPzVUWkdju/f+MAiYPGsnjqUBIuWKgRCbipOrSTNduOEbTkMXl0H1zH97GtxkFqSiKO9nY02X2YMKI/fXNS5ZoTR3szfkMSxrYK9jmN6KzVbD8R4drbZpDYUceBGjt9Rw0hsztNdVi7ePK5l+RLmCaNG33eAOfc1n7WAqGuro5AIEBBQYGsop5/BNn8kx+x54HHuN5ejTG3H2kmJTvWPE2XeQ7XTCyQPInUv8vDL2v5zfeGsmbpcvIGXMPgPukoIlY2vPQCyw7UEImEcZyuo9mcSe8EHfpeE3j4vuvIilcjtsyXOuOlb/C3ov/l2+MNclCkPucNvYRdbHj2j6xOncf/Xjf4TDNDNcv4yc+XUZlcxAR/BwfbmmmxB4j3xTP/lb9xa6Ia/5F/cvdvrDx0bz8OKSx8daySJ/5Swc3fuo0U2QeHqV/7Io83DeCx5JWsVD/IV+bmdguECOFgB088+DMG/er7pNTV4uw4wJK1LubfOJm8klJ6J/eIIQ/bv7+YZcP+yC9uir7I6rKPYCdv/+FpOq69j5Qlv8f85f9hRnfJzFZTxrpNu7C6vJTt2omlpIDdK44x9d7ZWBJ7cffCKZj0568qCwSD7Nx/mImjhl52Ey7nix9riiFsK+P7i25nafG3GFv5DwY8/jTfm9QXWvbz7bu+Qvmdq3j3jlQc6//CoDvf4HtHNvDVlChstvq3WHjT33n4yadZNCTzQ227HIEgd1J0uTGJkt/H2Ukx1M67/1jKQa+Z3sUZHyox9jQmrI5n1oQhtB/fxuqdNfgVonQdrX6I28mpgu7/43PSGUpg6txZDMuOx2tt5N3Va6lxyK5NrnPwRlSY9aKzU5LYbzS3T+p3tlIRqOafT32AftAIhvTOxaxwsmnNeqy6ROK0CtqtHgaOGUf/rFQSk/Wc3rORt8t8zJhcQs3unfj7z2ScdSNv1JuYMGowyfoIx3dupCl9tBQIoa4G3lm2gmq3BjG16/MGyBg7j4WGozy3uRZdXDwGlY8Om4JB02cyzdLA02+XM2D6XCYU+Vn+7AqadAlEVEZGz5rNsCwD9sOb+dv6Iwxb9CVm9upZfBmmuXwXb3xQTvGie5iTYWPDsrVst2dx/z1TybiANZGm/Ty7sgxtchoJ50znhN026tscDJ93FxPyNHI9RMW29by77yT2AORMuJEbSnXYqg/wz/ePEFSpMcZZyCkuZfzIAWTFffwOJSoQNqEqGEyWv47DXSnc0j3FUFyUg8LWgc+QSHpOISMG9cKsDONyOPF6PNg9XjpOV7H38ClcRAiFdfQbNoKBeSnotSpUGgMpBg/b1r7L9uoOApgZf9stDNM5qN67hdVlDag0WuIS0yjuP5TxgwsQ63ttZe/x3IYqQioVqsw+jFWf5lBnmIDbic0TwWyJg0CAxOELuHNEAnUV5VScbubU8ToS+g+nV6SRPR0Wpo0tIV4Vxt5YS3WLA1VcKv1HDiL/nI5XzFmu+2Ajh48e5/sPfy267iLi4eDbr7DZn8+MAQm8t3EfGaOnEjyw4yMFwoiBKjYddZGXbKamXcuimyeS5mnh/bWbOGb1UzruGmYOzsGsA4fNicvrxeN101pTxYFjNbiCYQIRPf1Hj2FATiIGjRq1Vk9CfNynXpzqO/oev1t9DGP+QG6ZO4F00/mx0nR0Gyu3nUARn8XgQQW0H9nN4WY/uf2GMLokmfYTR9h9tBY3WnJHTObmMb1RuNrZuGEjFW0euX7F53bhCqqwxBtkxVAIo/Sxi7m+f3RnO1H9/NUf/kq/PiXMnTlVVi0vdnzWAuHQoUP8/ve/x2KxMHHiREaPHk12dnb3mpsgW37yY/Z95b+YfuBV3mnK4MG7Z1O56mmceTcyY2gK1ood7N6/hee36bhnQR77d+0lJW8w+QPHMGtEnpwmO/Dcr9lhKCAxurAJt0PJ5LtvplinwN5ygL/+9mVMJX1R717ClpTrmV7o4r1NAV795w/wdzRS7Y8n01lJSygeh9bCkGwlTa0B0nPS0SoiVO1Yzc66TkIuP+1NNVS1edBXH8N/07f51sxSgs2NeBPysO9bS1fhWBYNCfOX/1nB4DvvZlxBGn57PRVl+3l/n4Nix3r259zPwv5KOhX5TOujZvP61/jd428y8KHvMiG+gdde2UfpNaNIN+cybOok+uk7aXIp6Gp1kluiofF0HHmWAI3qNPokX2JR+gXO7jx1mGP79rDJl0l44zLy7nmAviE7it6TGGSyUrZ1I+X2EOqwgvT8AtLNZroayrAaBjJ3Yj8054opuVYqIp/ws8SbL6ffv+zvXL5AiASoXPEnrvveSm5/8g9U/edtNJbOYGxeMribWb90PYbHtrP+jlTs6//C0Nv/TP+7b2GoMVpC8NmP8/oGO7978blPLBDEUww1pxvkO68/1lMMoTbW/n0ZlfpiJgxLJeASkx8XjDKUWrILCshONBLyOag/WUu91RVdNR5VB92iJCoWwj4fQUMi/UuLSdarCXqd1J0oZ/+hChq1+UzonyFXlHsbjrDhcAfZY6Zxy9jeUiD4HR2crDrI+xuP4dbGUzJ8EBkKL6fr6rEHwoSDIfwhMGcWM3v6CFLVIU4KgbCrhrh4I167m6yJ8xjr2MmyCidarVraEwoESOgzlhvHlxCyNfLOslU0x+WQZ1LQWFuPcfhcbszuYsORFnSmOPkUitGSTK+CHCxdB3liyV406VmkxoVpONVCct8h9EoM09bsoHDsZDKbd/GsEAjXPcC0NDenmjsJidJWfSXby+rIHDOVoRYPR3bt55g7hVnT+5NAhIghib45iRB2cPiDjWw+2UHkonNpCkqnLGRKbwvKiJdD767kYFuQjk4rScPnMzx8hM2H67B6gqQVDWLSyAH0ykrigtmqyw7+ngqCIncgmf56yh1pcg3CqzvaSEs04o7EYQ62cjqcyd23zSYLF3u2bqaswYrH40dtthCvjKAQT6JowjTWNuBEjV6jxpw/iBtHp7JhxXqawjqsVi9DFy1Ac3A9+2o6cAWgaPgkxg8sJCcpjuia1wjt5TvZVu8DbzPHPBnMTrVxtCuMp7OdZnuY9Lx0WSI395vE/AFJ0TgOtbHq+bdxlU5mjKGet3bWc+5CeiHyBkyYxOS+Wect6vR4vby5YjXWLhsPPXhvFDdnLUteWoWreBLTs+ws/aCC3tMmYd+27SMFwrD+SrYe90iBcKpNx833TkdRvoPlm8uwhVQMnrqIeUMyUUZcbF+1miPtHjxuP9oEC3FaFRqdGYvezalTLXgR8/oakvMHMHPSYJI+1aMZIU5vXsbfdzeAKYPZi65hRGb8eTHilxWwVmr27uGINUDQ78UTUmE29HTiEcIBFX3GTWBAYQYZ/ga2Hm3CarPjDYjRcBhHZxstXg2F2UlyJCkStsacQnZGOv369CJBq+BPT7+AJSGeGxfOw2C4eNn9sxYIwnCHw8HLL7/ME088wZe+9CW+/vWvd+dTIRAeY9/Xf8bDZiublm9EO+da/EufQjHlQSbl6/C01lJ39H1+tdbAd+7uzZYPNpJZPJ6+/fvRO8eCgiDbfvFt3tEUkNwjEJwGrnv0awzQK7C3lrN0bQXz77ge3T++xtNFv+GRsU38+Muv8fiz36fyrWd5wTKbOyt/z9YhP+XBsfH4uqp44ZkVDL31S4zKNrD2yf9kXWshcwabqKw6RWWbl/SAnmE//U8meps4sfyvPJPwAFMaXyVQMJycBDhZXk3O5OuY3j8Lv/0Uhw/VE1D72fjX50i45xsM73qXn24bx4rfzyJ06GWm3/4sUx66l2JHBWtq9YxOgf63fZNZxUm0L3+M10KjaN19kq//8iEyFRFcZUv55vOtPPqLr9Dn0ktMzsRde+U+ypvdqL07ef51P7feN4WuN59k23XP8PuJWnb/9ie8lFxCblMDRRNKadoepv/gJlym+cyfmPfhKRnxLoaqU/T/PJ9iCHVVs7FCyahi+OVX7uWgMpt08Rhf0E3NiXryHl3Oi4uSsW54jvkPP4Wpbx9Su8V60G+loiORX//pt8wekPGJKgg9SvzcPRDEZ/9yiiHQxIoXVlFnLiJP10B5je3sQrmelugSmXzNLMYVpcogr923maXbKvCGelbdXyAo4vpw573TyDmvTG5l67IVbO80Mfu6eQyy2Fn38luUq/K4dt4MeieLpBDBUb2PF9fsxuZXUjh0PPMHx7H9gwO0BwPY2q3Y0ZOeaESpNtBr7HQm52qkQHjrcIBrppZwascOvP1ncF3fBE7XN2JMz8YcsnKitouM3n1IN6lkReOdZcupsIZk5xMOq8ibuIAFir38vVLHgmsmYbGf5Gi7hgHD+pLQuocnXjtHIFQ3kz5iOnOKvLz86ma0pWOZlO7krQ1HGL74AcZzlBdW78TuC8lkGAqHUarEQrvoaEmkTbE4VU4L5ozhBzcOlwKhfNdh6j1BKZQC9jaawwnE+5o52dCJX2Nh/DVzmVCSIqdlAj4n3sYalqzbhnbIAqandHKqupod5afp1bNI8bLlwIe/GJFrEDbR7hGPsYYJJZZGpxj2d5FEiBZDCcMMJ6jWD+Lea4ZhVPo5XX2cYzU2jGnJJGhC1B8+yKFWGD5pFBkqP12trdgVRtKyCxhSnEHYaaexppxVm08wcPEN5LSWU1l1ggN1diZcfx+Tu7efjbYuQtvuVbx6xEdOuopabyqjIyfY3R4m5PPiCUTQxxkQcjB52HzuGNU9b3pGIExh7vBcWg9uYEuDjomTx5DSuJVntrQz7pprGFuUct5TBN5ugSDmLr/xwD3y/s7KXTy5agznkVUAACAASURBVC8Fk65lSKiCZTusjFs8gto1Wz5SIAzqE2bXyTD5yUaqW7QsvL4Ph5a9R7vWiKvDQd8egUCYxqP7Odzqx5JkwaQMUlNxmCOdcUyb1E8u0u1oa8ejTSA9I4t+xVmXrPhdluv9rax7dSUH7RrMBj+qwol8aXqfD5eDQza2LHmd/eEC5i4YTqi6ig6VhcL8TJyH3uetMifX3H4rQ5NVRKo28dQHpwiJ6mK33+SaPLGYjRAulw+NwYBOpcSUXsTsGePINCp54tm/kxAfz/XXzpFPQ3weFYTjx4/zgx/8gNqaWv7jkf9g0aJFmEzRp2HEHgZb/vsxDnzlxyzoPI4upR+p5iqe+eNW5v7HgxRqQvj9CrTN7/Hwa0Z++8ggVi9bIacYBhUnEAxr0USO89dv/4lj3e9eCFobYeCdPPbtRWRqwd50gJ8/+gvc6fmoj2/icMIEhma42Xksjc0rHmH5H5+h47p7Gb/+l2wb+jPuG6GHSICDS5/miboCnvnWDE6Xb+e19fsxNtaxr6VVTjHkZvdj3g9/wvxsNaFVv+Ae34M8yus8e0rD4pFJvL/uBDf/6LuUnllZDnSs5mvf2cyibz7EtOBb3LppBkseSePt3/2V5XuauOXH91GgT6T+hf9mefrNFPpqWHjPXTT97kEqr3uUxpW7+M7jX0aO2cN+jv/xTn4d/ArPfXfqZYWm4Jvt9e/xneOD+dZXrsf1xA/ZfNev+W4vBbt++UOeji8ir6WJ0im9WPeSiy/drsJqmMec8dkXfcJHTN2oLqgsXGZDLvm1y68gfNo7/YvzL2eKQcyzVNecpqggB83H2Ach2FrBS29uIFQ4mkLPEQ4o+vO1Of3PLh5sP8CLy6sZfM01jC9KQREJUrt/M29uOUmf6bMYeO77SENOyrbt5qArm/vvn07WBSX0UMcJli7fRLMuhWyVk4qOMCOmzmJyaYbc10B2A452jracYveaMtImzmRGYht//6BCFKpx2cViQj0pCSKBmBl5/VyGGYMc37mBlcdCTJtQQPWOHdR6dJROGodj51bMY2cxWXWMFze3MXLWbEYVJOITAmH5amzZgxmSrODYwYOEB1zDQsVentzegkGvIRhREJ+Wy+RJ4ykOHOGJt8oZOHM+k4p8LP3bSoKDprFgbCHNW95hdyCXQXFdLN9+glE33M/kJAfVTVZZQQj7XTS0ODCnpZGgCeNobaYxFEdBRgJ6JYT0yQzIMnCq6gSN9ugjfPjtHCuvpMWnRBv2ETYk069/MckaBQpzGiP75qERj5M1V/D8sk1ohi7iznPWIMhFiqNyUYU9WMXaErMJvUZFJBQgGFai0XQ/uvkRceevP8xzK7aSPGExA90HeOe4JrpIsSzMuDwdWw+eJKSNY/iMWczoWYMQ7mL7yvfY3+YiEvDjdHvFYx1yASdBHzanl5IpN3L9iJ4V+xFaju7k9Q8qGXjT7UxJO7sGQSxSnJSnJey2Yw2oMMcZ0FiP8eLrm+lEgzEjn15GBX4xQm0+zcmOEAV9C0kQTwdgZMDEMfQSK/m6BYI1byBFmiCRLBOVm4+QNKAfmuP7qU3oz8LZ48gynR+sYi567fubOFZZxXe++WWUijAd1WWs23aYFocPpTKCW9+bW+YXsOPtTRcVCK76w3ywo544dTOVziRKi9NxNHfidjTSpshm7mATqz44SskZgQC4O9mycSNlDQ5CIZ/sUFUGE0atirBYi+KG/ovv5drCs2X4YMBHRKmVMXG5h4iFxvKdvLWxnPgBkxiiq+G9A50MnTuPiQWJ5z22StjGlldf5wDFXH/dICqXr2S/N4PFt8xEvX81/9xnOyMQRMWgYucGKjqCH2pKKGintqYLS04mSQYNGSUjGFWcLFQzv3vib/QuKmSOmGI4Zw3VuRf5rCsIZWVlVFdXs3DhwousgxAC4UesGzOExJMqFi8cSdkTj7JUs4DHv3Mzufpa3nzqHeocHRw50kj2oBK89dX4EnLpnZXK6Lm3kq/uxOELyqmqw+veYsXJOO64dyF5Bi0puVnofc3sO9zKkHHD4aXuCsI4N+8vK2f6zAKef2UDU2+6Cf+bj50RCO5j2zmpyQGFlv6FFtb99tv8o7WAOQOz6Wo5xYk2L4MH9iW1dDrzhmcRWPozbmsaz0+mZXB8zSoa7OV4h/83352f353zI3g7a1jx5+dpnXk9+rJDjDOe4jHlwyyZ2cTrO2toXbaOob98CNvSN9lJP0YrdlBtWcjXFifx5LdfZtIvbmbFrzdHBULYwdEjDWSVGGmuVtK3f86/DtFIgI7jm/nVs8e4ZnEGVc1mDBvXEPnF77jLFGbnL7/Pn9TZ5LS1MWz2QPasDHDjPC+dlxAIorpeXlnN4NKSf33vj/GNq0ogfKJ3MYT91O7fyptbq+k3Yy7GyvfZqxrEwwuHnCm3hlp289SblRcRCLWMvPVOJqWfM2cZ6GTTirVs7kj/sECIhPDYOji8ayObjjTji4A+vS/zZo+ld6r5/Gfj5RqEjSSOGkV2sJWDNR1EIkHs1i4cGMhIMqFEQ3JBCcP7plD+/lr2Nbgxx8cR9rgxFA5kgK6Z/U16rpk3jeJ4H++/uZSalGHcNnUgCnsT7yxbSYMmjQyjgramVuJHzpUC4el9bgYOGURhZhKKgJ+U7GwSxRTDm0comTiN0fkB1r3yHgyZxoJxJej9TtwKPV1lG3hp0ynG3Xwvk3OiyTvosVK+dxebDrdQOHUB1xQo2PfBej6oCTBk9GhZQk8Qz2D6nBzev5fjbe6z60ciHhqqGgiIUmy6RU7JiGqEKimfOWP6oVMrP0IgRB9zVLbt5+U19fQaP5bRRWlYj+9mT4uWYcP7k276qO2hwnRU7Oaf7x6k1+xb6P3/2jsT8Kirc/9/kpnMlsxMMtkTEghJIBAChD2sslR2RBRprVtbW7VFa21rre219bb1tnqtt7e1xaVWLe6igOwa1gCy74GELfueySyZffs/5yRhcSteaS38f7/n4Qkz81vO+32X8/7OeRfrh6y6wEGYWpTE9q0HcOoSGDPlK0wqSOuOHwniaLfh8HRy+tBedp+ykzPpK4xN0yGyIl7ZeJTcyQtZMCz1nDH6VAdBpjnG0L57NctqtEycMJb+KTFUbFrBigOtpA4aTI4+mnBUCGvNGY43BelXPIBkkVUZ0ZI/YhjZYgvPX8+y59/ldDAGtSmTa+dPJbx/HR8crscT0jB89gKmFSR9rGaE0Kcdu/ayefuHfPv2m0lNFvVJIvjbTrN61UbK27xExaUyZGAWLcePYxw2jlFpBmqO7qLMmsL9X5+EJuSjo7aC1WvLsJt70yteQ3xiPP7WNhIKRzE0+gx/fGfvxQ5COIjdZsPtcXJ8z4fsqw9RfM14ChP12GpPUPphJX3m3cGc3t38i/g5UraNdnMeYwqz0V2CkxDxOzl59DA795/AYc5n3syxpPrq2bC2lPLOWEaOG8Oogl4YewqAhe2UvbGMQ2QzYWg8uzftJdh7OCN76fE2nuZIm4qJs2cyMEE4WWGqDu+lyhGSS+4nW0P07teXBE0UQV8bR461kJqfS7pRiyV7AIOyzLS2tfPcS68yYcwoxpeM/NKCFD97bvCx4cE7eZKRLJ6SS83BwwQKppJr20ZF7FjuXTCGiL2a9ctWcFJTwFdvmIBjzyqW76il37zbWZCv5sSRYzR3+iHsYPO6nWRPmEhfo052b8wfMZTexvMrJ50vdTsI47uD/oI+rA4Ppngzp55dzCsxNzC7AA6/soTA7c/w3dFim7KTtc89zvoz0WSkZZAcr8YT0TJ0QDaRmHSKh+fiX/kE39mpY97gNNzVJ6jyBDGm9qagaBRzxhbirdvH629+gLdwNnfPGICt/jQHX3ye9bN+zZNyxcLK03f+iryHb6W9dAetdjdho5mwT8uUhTNIR0Nicju/e2gpQ2+cRYLjFK+sb+AHv/o++bFdr4HhilLW+kcxu+iTYgLCnNy6jNe31jH8q9/k2kwVdVW7eeaprdzw518yQh3kwyeeYP937iF/w7t4exWSa0zHVb+KFuM8Zo39+AqCqKQotgoTLeeDkD+HH3CVrCAEghw/dZaCvBw0l9iLwWutZe3q9VSQzx3XDaXigxXstMZS1Dvh/DKNr41jVX5KZn50BaGS+L75pF1YsyHso6mmlgZyzzsItmq2HThDc2sLzR1O3L4AcanZ5MQFOH6ygbAuloSkZHqlWsjsPYABiWEqTh9m8+aTZI8YhtFrw+rxEwn5aKprxBoVT//seGnQI5gZNm4gzqqzYMkkUx9k18ZSmvUmvDUNWIZNY86YPPTREWoObWL5znYmLJrHANpZvWIdoeIZTDI52bplG96BM5gfvY8l+9wMLS4iw+DhwK5j6IomMDejjWfe3COzCzTqCF5PiD4jpzB3XD90nfUcLK/mVGUlJ1tVTL/jZkZYorDXlLOpbB+VrT6SB5Uwf/xA4jVR+Jwt7N2wju31IbKGjpHfi5U9UcdCrDiItVivy4HDVsfG93bgzxnOnGnDsPT4YVHRkr8yrqLxBH9bsQV18fyuLIbaPTz55ofoMvrSLyMOZ81JKhxaJk2fSUleEp0Nx1i+ajsOSyEL5o0l49MCFAKd7Nu0gffLfYydMRj7sUMcc6Zy86BOXi1rQBsTjdsfQ7wxhNuvIWPoRBaWZOPvsNLU3MTpiuOU19gwFZbw1Yn5+NrbqTm2jzUHqxk04xbmFvbIV5im8l28VVpB0U23nMtieHH7GTLyCultDFB94hRWXTqz5s0mL7qB9avf50iLj2iNnqSMLHJ7JYKthVo75BXmY44K4HF1okrOZUgfC9GuU7zy13U0GzMYWtgblb2J4yfrcEWrQVR7NCWSnZ1Fn36FDOuTcNE2w+mz1axc9z7DBhcxaVQRp08cYc+B49Ta/KTm5BBnq6UlIR9D7SEagjFooqMIBQP4LAN44NYp+GvLeX/TLiodBqbOHo/n0Fb2NoQYPGU6o5JDcjth1d5qmRorYxBEmEN7I/WNTVQeP05FUycZg8cxd2Q2bpuDqvJ9lB21MuzrtzC5Z3+SMGf3vM/KXfUkDp/MTSU551bjPmbZwj7qK45StucotTYPsVmFzJ06ikyTlqhIGHfjCd5dsYmagIakXrmMnzSBfsYAjY0NNDY009DURH1TG536PkwZpGb3rko6gxGi45IZXFzMiIG9sehi6MlY8lXt4K9rT1EweQbj8xLwtB/jrRWVFM+ZzvAM87nspa07dnHg8FHmzbyWnN5Zn2qQ/9krCJ89aYRp3bebkylZtKxfjm7EHCYP6U20rYnKjgj9+6RydMWfOWwYz3VTijAL5yocwFbzIW/tiuO2RcX0hOiVr3yCX60L85vffp++pk/eTnEue4S3+jzEN4dfnCIpxmiv2smK1XuwoiO7aALTSgowxUQRatrCm2UwaXIh/jN72LD1ALXWTrmlacqdxre/MQWzx05zx2k2r69gwOSpDMiMxVZ7hmPNMH5kIXXblrKfEcyaWEBs2M22t5awsjadxT+6md4iAynSwl/vf5rs783h1MZyxsycSUFGAh11tahS0kmN1csg6qqd77N6dyUhfSKDxl7DpEHZ3S8REVpXvsAHRbfytZxPStHsZMPLr2MYt4CxfS34286y9NlnaRuwiB8tEC+uIcpfe5Xj0ybiXbaewjmLyDv4J+79IMid9/+IcX16toTOc1Osru8/eoLRQwddDr/g3D2uqBUE8Xbp8niJ1evOVboTlHxmDELIR/XxCjpS8hls9LOjdD37Gjzy7fTcIVIwiWX01MmM7iNyfYPUHtzBql0nCYoSsRetakYIBgIEdbncdOs1ZIq3mbCdzW8t57AzGlNiOgOLiijKSUUE6fs7ati15wiV9W10etWMmX8jo81trHzzfU4FtBRPmMKEglRUAQ8HNq1m44l2NDnjuHPOILrjOy9ieMhtp+z99VSHtYT9cVwz5xr6dC8de9rr2LLnJFmjxpEbbWXDmlIixTMorN/A8go/+ROnMyO+ltfWHcEWFAWGIqj0FsZMnsyIuBbW7DwrA+/itBHsbQ7MfQcxamAv1P4mVr22ijNeNfH5JSyc0p84EUPQfJQ31xwkdsBIvjI8n9gLyuVGQp3sWruWQ/50rp8zlpQLyxBGQtQd/ZD3th6mEy39Rk7m2pE5n7jXHGyq5JW1O1AXzuBro9KItp/hrXe20OANyQZhop5FfGYB06eMJl3gEPRyfM8OjgQzmTO+/ydi2LXPE6D28G5Km+OZWeBi9ZojeHsVc1OvZl494iLLFI9lyGiGx1nZunk/FE9lVl89Z/dvZ83uU4S1seQMGs6koXnERnvY8s4b7GkOEhObzowbZzPA1CNfYZpP7GXFtpMUzF3ExDQVjlN7eG3jUTyhcNe+tUpN5oASZozLwb5vI++VuxlWUoy27TT7K+tx+YOEQl2lls9rbjQFk29k5gCzlNfTu3bgzcyl48BO9jV5Sc8dyIRRhZidZ9m8/RBnbNEMnjWLiRkXGxexzfDOe2tpbmvn7ttvpHrfTjZU2MgvHklJYR+MUV467HZOHK4gZEmRAbluRzvtoQQmjulPsPkMH+ysIG3EBMb0isPfdobV287Sf/J4UtqOsXzjXhwRPUOvmcXk/onS6avet4H3dtUQ0RnJGzKS8aLGCI2s+NsKKnwq9CkFLFo4kZQLVDTgbGXb1r1EF4xmUm53cOYnmsIQbSf28Na2Siz5Q5kyupDkC7JlxCWBjmpKS7dT4Ypn9sIZ5EbZKCvdyN5aO2qNnuTsfowfM4ReRjUeWyuVx8s5VFGFXWVhylemUJjWlZnQJUcejm7fA32H0NdTzvOrD+GPS+PaWVMYnNYVDOn3B3jmpVdISUrkhrkzLwqw/igJX66DcFnnFuVm/0IExNwoagSJPkWX87iiHASxz1Jd30jvzPSL6p3/wyDFHl0OiyV8Ky4RRGbWn19BCLppsXowJCRglvmlEbyODpptXuISE4m7yEMI0tlhxyEKAWUmdhXnAFwdbXhUsViM+u6I9AvZFOkuJhQgIS0RfZSfltomXCo9yckWGcUtqizaWuqps/owp2eRFf/J6TJiX9Xa2kpAb8YYo8Zg0J6nIxzCH4YYtYqw30tzYzMkpJMYaOGsDVIyUrHoVLjsVjo6vQRCETQGE8kWM2IIn3ZEIiFa6urwacykpcRfkDUQxtnhIMYsYg0+vjfscztxhdQkGC/Ausuq4rG3craujbDWRFZ2xqfWvI94O6lttsq4hF6WriI/AZeNNrtbjj9arcWcaMF4gQMS9PsJq9Ro/kHATsTvxR6KIU7lkUWrBK/1nlaqHJCWkoSxO9c44PUS1GjRR0cRcFqpaXdjSkwm0ajtrv4YoqX6DE1eNYkZmWSaLnxriOBz2mho78SY1oskKTAhXB0ddLh9hCNRqLSxJCWa0YoJMeTBag9jtsTKQLqQ343N5sTtDxDocShEqm20ivikNBJ6ygCL/PSoKHy2NqyRWFIT9OcC8cJBHx0OL8Z4k1wB+Ohxuqqa/QePMGncGBLjdNjRYdFfYtpoJIwvED6XSSO3KAIhuQIUdNuoamgHnZlMIffdeuRzddDU5saYnILF0LMNFKC+shIrsaRmpJPysR4mYby+oEwP/IddY0MemtsDJCSbPjXDJeC20+KKIiPZJGOO7G1tWH1gNsdjjtN9rGJdWBSisnmJT0o6R8fHgPTbqDzVTJQxgV5pSef6SzS3tiFWEIYPKaJvn+zPtN9XvoMQJhiMQv0Z5bkvdQL73D1wLvXG/6LzxKQt/n00qP7zP17cpyt77tMOUUnx5NkaBuTlfP7bf8YVV5SDIMD2en3odNpLX0G4rHApN1MQuPoQEIZYlInWaDSoP1Y85+qj919NkTDefr9flnX/R5PFv4uDEKk7xIuHwtw+u/gTmutF6Nz5HI/tH8hPvzse44UTV+AIv/jJPu55eDLbly/nrC1IOEpFXskMZpcUoI0KU7VrEzsiWdxkaWCfqoik5nJaB5UwpqfRn3yH8LBz5bs05E/ihoGZH2dZ2Mr2946QOCaNKFcCeX1TzmemRGysfPJvZN/1fYYaGnjpN6sY85O76N9T3fTc3dyseuJ/SLzzJ5TI2JLzh2/XM7zQNJ475hWiE6XQhV6EwrJ0dNBTz86Ne7EGDORP6sXhv6+jISgKrQ3n27dfQ3w3Hk1H3mZVeQqLbpyI8dNewPy7WPpGkAW3jLtotTNSsZJH9/Tn7hI/Zzqb2LH0FJMXX0PIqWVYYd+PrGp3xW6J1fU4wyXkWH4OBbiiHISuLIZacvtkfa4shs+Bh3KqgoCCgILAl4bAl+sgRPB1OvGKIiWnynhir4affHWU3AbT6fRylUisdLrPbOEX/7uPGx+6lYbSDfSeOI/ibLMoxILHsZ277j3C738+mhfX7mNI8WC8beU0RHK57cYp6IN23nv9VQyDZjCs4kmeNz3M4BOvUf/1b3FrkhlNVCtr//Qc2xraqThxmoTMXFLMOnS9BnPbVxfQx6Ih6PcBVTxy95uM+14e/uZC5kzrR0SlRRMdwt2wivt/4+CXj9+IpXoZ1//RyNLHp6LTaDHoNHJly+ERb/ZeXnng5/T57X8zLiZEIDqOFJObLa+8zLuHqmiraiSucALTPZt51pqKhgQeffQh+kR/yAsvVmKx1dD4neFo3ovlrm9n8asH1nPfkh+RSRiv/Th/+N6DHIjLpZfex8nyFub/13PcMbxrC9vt9HSVm/es5r/+FMMPf3wtGiJEa2LRq0K4dy9h8c6pPDjsCG/vPEL5TjsDCvxoR32L++ePRPeR7qfCCT1WoWQxyOIkCWbT5+vF8KWpu/JgBQEFAQWBS0fgS3UQInbeeuTXnCgYRl5rBStOq5k/LpfG+hqGj5zJxImDaT20nuffKiNxzBSGJKqp3lfK2wcDfPW++7g23cuH217nv54+y713TmLvob2oYxPxuztIHDKbexZdg//4an6+ZCdfmTaRzg//zCbdArLryrCPm8iia64jlzqOn20h7GmntOwwReOnkG5SEQ6F0GcOZETfBPZveItAVl9WPLmBiYvz8TX1If5sGR3zFjM/4RRP/epVAll5RDvO4mjy4xtQxMBgO00pg1m8YBI1q/6Dpzdpye0dYfu728iZP4vMtr2s1f+Q9Y8MxX9mM4+9r2fRaBflrSb67n2dd0fcQJ7Vyezrp6NqL+X5vx7D1FGPdfFIol8Wk7eHrU0D+M/vT0Pvb2bNkpeoyhlM8PB2Gpo7MU75Dg9c190LItRA6bLNtISjifLv5921auZeNxi16EVTeC1jE62UvfV7njo8jIW5J9hy2oZeFU3Q5yNh1EIe/cZMTB/J0BKrgK3tHaQmJ166sF3CmVfUCoKIgj9TU09OdqaygnAJzFVOURBQELiyEPhyHQQHrz/6NMkPP8Tkqq38epeGR24dw9Fdq/EFshg+fggNe1bywUk/6ekpxMXFYtCq8VrPcMSez23XDULj3clts/9AyTduIqb1NLZQtOzLoEsv5Pp5ozj1l0d42dWf7956Kxm7fs7LpgcpPPEGDYtu45a0JHxtdTR0uGg59QHbT8Yzc8aI7iZMYaLN2QzMNnN88zLKHC4ql9cy9d58vAfa2XAoih/+7m5yQwf5z8f3M/+GoRzavBqvqYi0YZOZoD7FaxUObp07maatT3NEfQPzh53kO3P/m0n/+ze+rlrOHStG8tydRtavXU7p7hbM8R4CMbnk2o9yfFgxOaqB3HHTBAItG3n5tSqS2s9Q+60h1P1sI/G5iYRi+nLLT7/JgEgH+zeXsn3PIRpCBlJjwrS5vJgzchlcMpkZw/rQfGorK1buJxRTy/bdURQP78+IhTcxKbOr2VLkwBK+9kKYRWPNHNi/H1coiNUZxXWLfyLTNz8ahyNWEI6fPCv7FF3O44pyEESup9vjIdagV2IQLqcUKPdSEFAQ+LdA4Mt2EF574F6WB82kOZs40KqiOC+ZDqePRTffw+xpQ6GjhqXPPs3OOg9qGfAaxBrO5ZGnfkBOy2F+++jDPFNzDduem8HhPWfofP8N9k25i/lZFgoG9yc54mTNmy9R5U4iUvE6O7QzyGzcg3PkGGYVTWLuZJGmF2bzI/P57Yk0+qfrQGNm+jd+zMyBpq7OpWd389g7G2k94Gf2AzmUPV6G+t6H+eW43uA6wCMPLSNtYJp8c5+zcAZrfvxLUu/+IVFhP7fNnULTlqc5oprHwCO/49HIdPq3VXLjVAOPbx/PSz8twnF8O29sK5f7+nF5oxiw8+9smvcAKVvfJmvm1xms3c7P7n8Nmx2Knr2B2seOcfPdJaz680Hu/st3Obv0T/z9hI5vLb6J2rVvYByzkBkDLBzcsIbajBHMH9ZXhFpT/vaLrMi6jh/07mDJ61uYd+tt9E3UYSvfxG9+8XM2Jy3mmbuzObFzI0vfqGDhQ3czvriI3BTzx+JCRIaTyGKI//85iyEUClHf1EJGWspFwVSXmsXwb2EBlEEoCCgIKAh8CgJfroPgYf+67cRdO5W80z0rCCW01VcSDMeTlpVCpOUUS0tPMHXOLDKM0RBu4tnH3mLMQ4sZHB2g076L+x44zmMPFrJk3SkmtZfyQuwEFkwo4dqSQcT62ln9zjto+o4nvn0zxwKFZFPHaU0fpg0bQE5Ggig1S3nZHrzp/Ui1buWJZZ0sfvRO8kRZVnH4rezeu4XXlxzh2nsz2bFWw/ceuKmr7L/rAL9+upYf3T+V7e+8gWn01xmpKeP1NXbaU8zcMWcqjZufYtVuFXWhJL7/k+tpWv8utY5jrKheJB2Eutef5jex47nPXMe7JwJMrN/KjuvuJ3/rMuqvmc/NcdtYvreQIS2bKJ3bB98fKlFxnKODH2HpN/sRHbaxc9kK9tfVsWvfKfoPH42xah3tE3/PL27oe35y91bz4kO/ZkeUnqKp3+Q7s4ci4ihFITz7ob/yJrNmVwAADRpJREFU4w/Hc6NhNWsPn2R3WRUDJ46iaOp87ppdgv7CNH2R7RQKcba2gbw+n15j4/+idFfYCkIYu6NTdni7MBpYcRD+L6xXrlEQUBD4d0PgS3UQLgAjXLmle4uh5CKIIi0nWfLX1wgn52AWKbsRB1u2tHDvkl8wONpD9YG3uecpF/dN93KwLoTnQCkVBV9hTEoSo268jrGmIKuXryGjXw5rnn+bQfc9zJioYzyzZB2Fd/2UGwbGy7oyB0s3se9EOds+OEjefU/y4NQsWRwr0nSULcfbIFzP3/5nK0XzMwlYsxk9sg/a2AwGF3Ty+M9XklucRVV1C9Nv/QElfUU33FLerYdvzZtKw6Y/sKVtHLNmF5Eep6HT2kLLjud48Oh83n6okPrXn+K+6gSuj21lry+bGx27+GDCHLLPtjPm+hlElj/K5vQ7SN66lOp7hlP/yFZic+MJuKMonn07X5uYR8hexXt/f5XT8SNZOG0AJ/74U04vWMI9w2Mh4OTUob3s2neUpoCBzGQdrXV1uNQWBo2ezJTiNNo2PMXDVfP56WgHLdYK/vLHA9z2H7eQHJdMcUEfNB9xEMTqumgpnpyYcFlF+opyEEQMgvCScrIu7ub4v8+8wKTxY+jd6xPSYS4rXMrNFAQUBBQE/nkIvLNqHf1y+zJ+zMh/3kMu4c7hs7v5y2E137tu2MUOQnsV72wpZ8SEiSSLPiDhDta/uYOi2xaSF+3iyMZNnE0ZSKbTSu/hRRgCfnyi14grTFKvdEyhTraWrqPueCOO6d/i20UmVFFh/M072FSeyvTJ+V3Pi4QJ+Lx01h9g6fOr6HfPr5ierZYOwrYKK0RFCPhDqNRRskaAaFKkNqRRVBjLju0tjC3Jx+N0oE9Iw7DvD3zjhUZu+v79zCrKoGHvu5zRTGDC4K6MghOlr/DUK3sY9+MnuW2AhtaytaxJGsvCJBeVrR7C7z3L9nn/yd15MaijnZQt3YB2WA4HP6xh2kIDy5ZYueEbc8nQ26htNZCrO8kvHl9NwdfuYsGgIMuefIZD5gk88L3ZpIvyIoEqXn12LVnT5jGsTyoGTTR+r5u28i1ssfVjUYmOlUvXoZ9+BzOyvex49QXeDU/isVuHyiZ2n3SIGITKM9UMzBfbF5fvuKIcBNExsLXNSnKi5aKuVS+/sQyfr7sJ0OXDRrmTgoCCgILAvxyBkcWDGVpU+C9/rvLAKxcBkcVQ19RCdsbHOyV/EaquLAdBxiC0kpGWfFEMgsvtlrm6yqEgoCCgIHClI6DVxBDzKd0er3TalPH/cxAQMQhVdY3k9r6ETpKfYwhXlIMgvCSrzYEl/uI6CJ+DXuVUBQEFAQUBBQEFgasKATE3NrdZSU8RHVkv3/GZDoLdbuedd96hurr68j3xU+506NAhysrKaG1t/dRniS2G+sZmmcXgcLrQaWPodHuI1enxBwPotBq8vgAqVRTBUFjWgxfBG1FEEY6E5P9FKdkIEVQqlWyiolar8PkCMnVSlJsV5VCdLrdsCOXx+mRApN3ZKZ/R4RDOiRmXyy3bagqGmGINWO0OUhItODo7iTcZaW63kmA0Yu90kZKYQIfdiTHWQIu1A4vZhMvjkX9tjk70uq7nid+9Pj8GvU7eX6vV4A8E5F/Rg0IVHU0gEJTBmaLcpzhELqyoLil+CwbD6HQaWdJV9JoXZTfFvcQ9jXGxOJ2d6PVa7A6XdLAEbglmI21WG3Gxevm9CHCxO52YjHGy6Ea82Yiz0y1paLfZ5RjF+eJ6cf8Ek1EWrjIY9DidbkymWDwen3yus1PQpsPnD2DQayXWKrUKv09grpY8kIGmkQhCuEWhcZGqo1GrZddHwR+f4IdOiz8QJFavx+kSPNfQ6fJIvng8XjnW9g67pEGMNTHBLPklaBZjFUW1BL7Jlnh5XqzgV4dN8q/T5Zb8Em1SYw0GnJ0uEgQ2kv96bA6nPF9sX4n7uz0+KVOi3HeMRiM7+om+F/5QSKZfibSoqKgoKWPCoxc0icZeooSx+KzRaiQ+oiKd2+OVYxT3EvjZ7U7iYg10ut1YzIIGpxyDkC3JL5ebJEuC5IsYi9XmlDQJTMwmI+1WG8Y4QYPAIB57Z6csuypoM8bFdcmyMRany4NOEyOfL/gj9Ear0Ug+qUSnRkGTqos/YlFO0CSK1KhjYiSfYtRqKVMxMSr5V4y5p/y50+mSn8W9Ba42SYOODpsTS8J5vWlps8rzhF6kJCXgEIHHZiMt3Xoj0rWELIrfBa1tHTYSTCaZ4izua3e6LtIbn98vP7vdXmJi1ASCIcRbuMBcNPMS8hQVFS3pEzSd0xuVimAgiF7qiU/iIPAXuHm8fkxxsVKWhDwLWUiMN5/TG8EHgfd5venEZIzt0huTUcqc0Btrt8yJALIevZHY2J0YDEJP3PI6gaHgh5BBQYvQfSH7QueFfovPQieEnEn9j0AwHEYVJXgWkfSKc2JUKjy+rnv5AgHizumNtku+u+1Pj94Yz+lNvJQ5qTftNhLijVLPBB/arELmDLR3OEi0mC/Wm9gumRO2QqzkGnR6HMJeGgSmAYml29utNz6fXBkRMiV0ROybn1v67dYb8Z3QIdFETKfRSN0yaLUSd2EL3W6BlxGP1yv1RuAo7NJFeiPGarVjSTBJW3qh3ghZTEqMl1hcrDceaTuE3TLo9dKu9ein0Rjb9fyYGPlcnVYnZUr0BfmY3kRFiIS7dEfIn6A3HApLuRQyJj57vV26L3RS8Pi83niIl/NCt+7bHCRZzFKWkhLi6dEbQXOy0BunCNg3SpkTsij+5mRd3ji8z3QQbDYby5Yto6am5p/uIAjADQYDP/vZzz7TQWhqaSct2UKrtUMy0u5wYoqLw+v3S2Pkcnu6jEQgKA2yMOIQJZklJiBh0IWACkaJCUb+9XplFyxh2ISjYLXZ5QTk7BQKEi8nGmEshEMgmvgIYy62OWrqm+SE0tzaLvd+hCETjkJNQyPJlq5JVXwvfheMr2tsJi05URodUfGqi7Gx8nldjoNXPkcIiDASwgALmvzSCVDhD/jlpBodFS2VKDo6SgqooEn8FUosaBKTqDCy4t6CJjFGYajE7+KZwssU2SCpyRbqGluko9DS3kFWRqqkNckST21DMylJFjnBZGWk0djSSrzJJNNM5fWChiSLpM1ojKNDCrOYsNySBulQSEPrk793Ya2Wn4UTIBRIOGfCaZOGXDgI4bAcuzBswtDJzp0GvZyghUGzCWdETDjdCiKUXBjtxhaBbxzWDofki3QM4k00NLXKMYrze6Wn0NAsaDDS2NJGRmpS9wRloamlTX4vVqfE+QJ/8TwxYYnvJYYmE063q2sScbmlAZaTviZGypo4BC3COVWp1ARDQTkRef0B9FotgWCgy8npFE6OVvJHGiSXW8paz8Qi5FnIhqAh3hQnaRMyI4xCZnqK5IvgV1NrO5lpKdKQCSPe0NQinVdBg6CtrcMuZbqptU0aF2HsxfM6HE4Muq7nC3kQk4qcXD1e1N3j1qhF0VfpHkjjJpwG4XSKv1ptDC63V36WuJiN3ZOqmEDs3ZNj1wQv9cYYi9DZ9NRkqasZqRfrjZCtnuhrQZtwegQNQhZFh8kemRN8EWMWMikmMOE4CL6KiUnIlqBFOOharXBG/Rh0Ouk8C30R/BHyJSZYMSFFq6PxeYWTo0Y4F8bYLj0RxlqMURhdYUeEbAk7I/Sotd16jobUpERqG5ulzgq9ETouzjunN4kWrPYu3W9sbpNjFLLXo/uCBmHsxX0F/7r44+52mhzdLytdzpeQfTGZev0+yR/RsEfQJLZUhc0U/w+HQ+iEQyAdN7XktZgwhK4JGRJ4iglb6IeQLTGxCCdS6LRwGISuZqamSBqEEyO2cbv0RvAhTer8hXojXmyEfROyJbAS56UmWqRDKGyxcCiE/ghn2GyKleMReiIx1mqknghHU/BHypnoaBoVde47Ydd6XpaEfMYZDNLeCDntGbtwjOONXXZL4Cv4lpacdO7FRuIt7ZxT6smFeiNsgcBE0NDQ3EJCvFnSkJ6SjNUmbH2clD35Muj2SEzOvcwJvTEY5NgFLcL5UauiCQknQK0WU42kT8wx4sVO6Iv4TTg3PS9+wtkQsiN5HtflzHS9jIkXSou0OwJXYZeEvgjdT09LpvYT5htBQ21jk3SCBDa90lMv61z9b7PFcFmpUm6mIKAgoCCgIKAgoCDwhRBQHIQvBJ9ysYKAgoCCgIKAgsDViYDiIFydfFWoUhBQEFAQUBBQEPhCCCgOwheCT7lYQUBBQEFAQUBB4OpEQHEQrk6+KlQpCCgIKAgoCCgIfCEEFAfhC8GnXKwgoCCgIKAgoCBwdSKgOAhXJ18VqhQEFAQUBBQEFAS+EAKKg/CF4FMuVhBQEFAQUBBQELg6EVAchKuTrwpVCgIKAgoCCgIKAl8IAcVB+ELwKRcrCCgIKAgoCCgIXJ0IKA7C1clXhSoFAQUBBQEFAQWBL4TA/wPLx54SYRw52AAAAABJRU5ErkJggg==;" vertex="1" parent="ibMRgNt4sKEfAej5PDVp-1">
          <mxGeometry x="320" y="-50" width="584.27" height="300" as="geometry" />
        </mxCell>
        <mxCell id="ibMRgNt4sKEfAej5PDVp-4" value="&lt;font style=&quot;font-size: 13px&quot;&gt;业务中台：企业核心竞争能力的固化与赋能&lt;/font&gt;" style="rounded=0;whiteSpace=wrap;html=1;strokeWidth=2;strokeColor=#FFB570;" vertex="1" parent="ibMRgNt4sKEfAej5PDVp-1">
          <mxGeometry x="335" y="540" width="300" height="70" as="geometry" />
        </mxCell>
        <mxCell id="ibMRgNt4sKEfAej5PDVp-5" value="&lt;font style=&quot;font-size: 13px&quot;&gt;数据中台：企业核心数据资产的整合与共享&lt;/font&gt;" style="rounded=0;whiteSpace=wrap;html=1;strokeWidth=2;strokeColor=#67AB9F;" vertex="1" parent="ibMRgNt4sKEfAej5PDVp-1">
          <mxGeometry x="335" y="630" width="300" height="70" as="geometry" />
        </mxCell>
        <mxCell id="ibMRgNt4sKEfAej5PDVp-6" value="&lt;b&gt;&lt;font style=&quot;font-size: 13px&quot;&gt;业务中台：能力固化与赋能&lt;/font&gt;&lt;/b&gt;&lt;br&gt;&amp;gt; 固化通用业务，赋能前台业务&lt;br&gt;&amp;gt; 产品化业务化，开辟全新生态" style="text;html=1;strokeColor=none;fillColor=none;align=left;verticalAlign=middle;whiteSpace=wrap;rounded=0;dashed=1;labelBorderColor=none;" vertex="1" parent="ibMRgNt4sKEfAej5PDVp-1">
          <mxGeometry x="655" y="545" width="180" height="60" as="geometry" />
        </mxCell>
        <mxCell id="ibMRgNt4sKEfAej5PDVp-7" value="&lt;b&gt;&lt;font style=&quot;font-size: 13px&quot;&gt;数据中台：资产整合与共享&lt;/font&gt;&lt;/b&gt;&lt;br&gt;&lt;div&gt;&amp;gt; 整合多维数据，统一资产管理&lt;/div&gt;&lt;div&gt;&amp;gt; 连通数据孤岛，共享数据资源&lt;/div&gt;&lt;div&gt;&amp;gt; 深入挖掘数据，盘活资产价值&lt;/div&gt;" style="text;html=1;strokeColor=none;fillColor=none;align=left;verticalAlign=middle;whiteSpace=wrap;rounded=0;dashed=1;labelBorderColor=none;" vertex="1" parent="ibMRgNt4sKEfAej5PDVp-1">
          <mxGeometry x="655" y="635" width="180" height="60" as="geometry" />
        </mxCell>
        <mxCell id="ibMRgNt4sKEfAej5PDVp-8" value="" style="endArrow=none;html=1;strokeWidth=2;" edge="1" parent="ibMRgNt4sKEfAej5PDVp-1">
          <mxGeometry width="50" height="50" relative="1" as="geometry">
            <mxPoint x="310" y="720" as="sourcePoint" />
            <mxPoint x="310" y="520" as="targetPoint" />
          </mxGeometry>
        </mxCell>
        <mxCell id="ibMRgNt4sKEfAej5PDVp-9" value="&lt;b&gt;&lt;font style=&quot;font-size: 13px&quot;&gt;中台&lt;/font&gt;&lt;/b&gt;" style="text;html=1;strokeColor=none;fillColor=none;align=center;verticalAlign=middle;whiteSpace=wrap;rounded=0;dashed=1;" vertex="1" parent="ibMRgNt4sKEfAej5PDVp-1">
          <mxGeometry x="260" y="610" width="40" height="20" as="geometry" />
        </mxCell>
        <mxCell id="ibMRgNt4sKEfAej5PDVp-10" value="" style="endArrow=none;html=1;strokeWidth=2;" edge="1" parent="ibMRgNt4sKEfAej5PDVp-1">
          <mxGeometry width="50" height="50" relative="1" as="geometry">
            <mxPoint x="310" y="800" as="sourcePoint" />
            <mxPoint x="310" y="740" as="targetPoint" />
          </mxGeometry>
        </mxCell>
        <mxCell id="ibMRgNt4sKEfAej5PDVp-11" value="&lt;span style=&quot;font-size: 13px&quot;&gt;&lt;b&gt;后台&lt;/b&gt;&lt;/span&gt;" style="text;html=1;strokeColor=none;fillColor=none;align=center;verticalAlign=middle;whiteSpace=wrap;rounded=0;dashed=1;" vertex="1" parent="ibMRgNt4sKEfAej5PDVp-1">
          <mxGeometry x="260" y="760" width="40" height="20" as="geometry" />
        </mxCell>
        <mxCell id="ibMRgNt4sKEfAej5PDVp-13" value="" style="rounded=0;whiteSpace=wrap;html=1;strokeColor=#7EA6E0;strokeWidth=1;dashed=1;" vertex="1" parent="ibMRgNt4sKEfAej5PDVp-1">
          <mxGeometry x="325" y="730" width="520" height="80" as="geometry" />
        </mxCell>
        <mxCell id="ibMRgNt4sKEfAej5PDVp-14" value="子龙 | OA |&amp;nbsp; 阿闻 |&amp;nbsp; EHR&amp;nbsp; |&amp;nbsp; A8" style="rounded=0;whiteSpace=wrap;html=1;strokeWidth=2;strokeColor=#D4E1F5;" vertex="1" parent="ibMRgNt4sKEfAej5PDVp-1">
          <mxGeometry x="336" y="735" width="300" height="70" as="geometry" />
        </mxCell>
        <mxCell id="ibMRgNt4sKEfAej5PDVp-15" value="&lt;b&gt;&lt;font style=&quot;font-size: 13px&quot;&gt;稳定后台&lt;/font&gt;&lt;/b&gt;&lt;br&gt;&lt;div&gt;&amp;gt; 以共享中心为核心，为前台、中台提供专业的内部服务支撑&lt;br&gt;&lt;/div&gt;" style="text;html=1;strokeColor=none;fillColor=none;align=left;verticalAlign=middle;whiteSpace=wrap;rounded=0;dashed=1;labelBorderColor=none;" vertex="1" parent="ibMRgNt4sKEfAej5PDVp-1">
          <mxGeometry x="657" y="740" width="180" height="60" as="geometry" />
        </mxCell>
        <mxCell id="ibMRgNt4sKEfAej5PDVp-16" value="" style="endArrow=none;html=1;strokeWidth=2;" edge="1" parent="ibMRgNt4sKEfAej5PDVp-1">
          <mxGeometry width="50" height="50" relative="1" as="geometry">
            <mxPoint x="310" y="500" as="sourcePoint" />
            <mxPoint x="310" y="440" as="targetPoint" />
          </mxGeometry>
        </mxCell>
        <mxCell id="ibMRgNt4sKEfAej5PDVp-17" value="&lt;span style=&quot;font-size: 13px&quot;&gt;&lt;b&gt;前台&lt;/b&gt;&lt;/span&gt;" style="text;html=1;strokeColor=none;fillColor=none;align=center;verticalAlign=middle;whiteSpace=wrap;rounded=0;dashed=1;" vertex="1" parent="ibMRgNt4sKEfAej5PDVp-1">
          <mxGeometry x="260" y="460" width="40" height="20" as="geometry" />
        </mxCell>
        <mxCell id="ibMRgNt4sKEfAej5PDVp-18" value="" style="rounded=0;whiteSpace=wrap;html=1;strokeColor=#7EA6E0;strokeWidth=1;dashed=1;" vertex="1" parent="ibMRgNt4sKEfAej5PDVp-1">
          <mxGeometry x="325" y="430" width="520" height="80" as="geometry" />
        </mxCell>
        <mxCell id="ibMRgNt4sKEfAej5PDVp-19" value="医疗" style="rounded=0;whiteSpace=wrap;html=1;strokeWidth=2;strokeColor=#D4E1F5;" vertex="1" parent="ibMRgNt4sKEfAej5PDVp-1">
          <mxGeometry x="336" y="435" width="64" height="70" as="geometry" />
        </mxCell>
        <mxCell id="ibMRgNt4sKEfAej5PDVp-20" value="&lt;b&gt;&lt;font style=&quot;font-size: 13px&quot;&gt;敏捷前台&lt;/font&gt;&lt;/b&gt;&lt;br&gt;&lt;div&gt;&amp;gt; 一线作战单元，敏捷交互，稳定作业&lt;br&gt;&lt;/div&gt;" style="text;html=1;strokeColor=none;fillColor=none;align=left;verticalAlign=middle;whiteSpace=wrap;rounded=0;dashed=1;labelBorderColor=none;" vertex="1" parent="ibMRgNt4sKEfAej5PDVp-1">
          <mxGeometry x="657" y="440" width="180" height="60" as="geometry" />
        </mxCell>
        <mxCell id="ibMRgNt4sKEfAej5PDVp-24" value="教育" style="rounded=0;whiteSpace=wrap;html=1;strokeWidth=2;strokeColor=#D4E1F5;" vertex="1" parent="ibMRgNt4sKEfAej5PDVp-1">
          <mxGeometry x="412" y="435" width="64" height="70" as="geometry" />
        </mxCell>
        <mxCell id="ibMRgNt4sKEfAej5PDVp-25" value="供应链" style="rounded=0;whiteSpace=wrap;html=1;strokeWidth=2;strokeColor=#D4E1F5;" vertex="1" parent="ibMRgNt4sKEfAej5PDVp-1">
          <mxGeometry x="489" y="435" width="64" height="70" as="geometry" />
        </mxCell>
        <mxCell id="ibMRgNt4sKEfAej5PDVp-26" value="........" style="rounded=0;whiteSpace=wrap;html=1;strokeWidth=2;strokeColor=#D4E1F5;" vertex="1" parent="ibMRgNt4sKEfAej5PDVp-1">
          <mxGeometry x="567" y="435" width="64" height="70" as="geometry" />
        </mxCell>
      </root>
    </mxGraphModel>
  </diagram>
  <diagram id="oRoUsp5k0we0bId8j5TL" name="数据汇聚与整合">
    <mxGraphModel dx="1378" dy="803" grid="0" gridSize="10" guides="1" tooltips="1" connect="1" arrows="1" fold="1" page="0" pageScale="1" pageWidth="1169" pageHeight="1654" math="0" shadow="0">
      <root>
        <mxCell id="qT0SQpxaj8kDD0RNuGWb-0" />
        <mxCell id="qT0SQpxaj8kDD0RNuGWb-1" parent="qT0SQpxaj8kDD0RNuGWb-0" />
        <mxCell id="qT0SQpxaj8kDD0RNuGWb-22" value="" style="rounded=0;whiteSpace=wrap;html=1;dashed=1;strokeColor=#666666;strokeWidth=1;align=left;fillColor=#f5f5f5;fontColor=#333333;" vertex="1" parent="qT0SQpxaj8kDD0RNuGWb-1">
          <mxGeometry x="315" y="130" width="525" height="310" as="geometry" />
        </mxCell>
        <mxCell id="qT0SQpxaj8kDD0RNuGWb-19" value="" style="rounded=1;whiteSpace=wrap;html=1;dashed=1;strokeWidth=2;align=left;strokeColor=#B0CAF5;" vertex="1" parent="qT0SQpxaj8kDD0RNuGWb-1">
          <mxGeometry x="630" y="510" width="210" height="90" as="geometry" />
        </mxCell>
        <mxCell id="qT0SQpxaj8kDD0RNuGWb-17" value="" style="rounded=1;whiteSpace=wrap;html=1;dashed=1;strokeWidth=2;align=left;strokeColor=#B0CAF5;" vertex="1" parent="qT0SQpxaj8kDD0RNuGWb-1">
          <mxGeometry x="315" y="510" width="300" height="90" as="geometry" />
        </mxCell>
        <mxCell id="qT0SQpxaj8kDD0RNuGWb-3" value="&lt;font style=&quot;font-size: 14px&quot;&gt;子龙&lt;/font&gt;" style="rounded=1;whiteSpace=wrap;html=1;fillColor=#f5f5f5;strokeColor=#666666;fontColor=#333333;" vertex="1" parent="qT0SQpxaj8kDD0RNuGWb-1">
          <mxGeometry x="320" y="520" width="90" height="30" as="geometry" />
        </mxCell>
        <mxCell id="qT0SQpxaj8kDD0RNuGWb-4" value="&lt;font style=&quot;font-size: 14px&quot;&gt;阿闻&lt;/font&gt;" style="rounded=1;whiteSpace=wrap;html=1;fillColor=#f5f5f5;strokeColor=#666666;fontColor=#333333;" vertex="1" parent="qT0SQpxaj8kDD0RNuGWb-1">
          <mxGeometry x="420" y="520" width="90" height="30" as="geometry" />
        </mxCell>
        <mxCell id="qT0SQpxaj8kDD0RNuGWb-5" value="&lt;font style=&quot;font-size: 14px&quot;&gt;供应链&lt;/font&gt;" style="rounded=1;whiteSpace=wrap;html=1;fillColor=#f5f5f5;strokeColor=#666666;fontColor=#333333;" vertex="1" parent="qT0SQpxaj8kDD0RNuGWb-1">
          <mxGeometry x="320" y="560" width="90" height="30" as="geometry" />
        </mxCell>
        <mxCell id="qT0SQpxaj8kDD0RNuGWb-6" value="&lt;font style=&quot;font-size: 14px&quot;&gt;教育&lt;/font&gt;" style="rounded=1;whiteSpace=wrap;html=1;fillColor=#f5f5f5;strokeColor=#666666;fontColor=#333333;" vertex="1" parent="qT0SQpxaj8kDD0RNuGWb-1">
          <mxGeometry x="420" y="560" width="90" height="30" as="geometry" />
        </mxCell>
        <mxCell id="qT0SQpxaj8kDD0RNuGWb-7" value="&lt;font style=&quot;font-size: 14px&quot;&gt;鼻纹照片&lt;/font&gt;" style="rounded=1;whiteSpace=wrap;html=1;fillColor=#f5f5f5;strokeColor=#666666;fontColor=#333333;" vertex="1" parent="qT0SQpxaj8kDD0RNuGWb-1">
          <mxGeometry x="640" y="520" width="90" height="30" as="geometry" />
        </mxCell>
        <mxCell id="qT0SQpxaj8kDD0RNuGWb-8" value="&lt;font style=&quot;font-size: 14px&quot;&gt;身份数据&lt;/font&gt;" style="rounded=1;whiteSpace=wrap;html=1;fillColor=#f5f5f5;strokeColor=#666666;fontColor=#333333;" vertex="1" parent="qT0SQpxaj8kDD0RNuGWb-1">
          <mxGeometry x="640" y="560" width="90" height="30" as="geometry" />
        </mxCell>
        <mxCell id="qT0SQpxaj8kDD0RNuGWb-9" value="&lt;font style=&quot;font-size: 14px&quot;&gt;公开数据&lt;/font&gt;" style="rounded=1;whiteSpace=wrap;html=1;fillColor=#f5f5f5;strokeColor=#666666;fontColor=#333333;" vertex="1" parent="qT0SQpxaj8kDD0RNuGWb-1">
          <mxGeometry x="520" y="520" width="90" height="30" as="geometry" />
        </mxCell>
        <mxCell id="qT0SQpxaj8kDD0RNuGWb-10" value="&lt;span style=&quot;font-size: 14px&quot;&gt;埋点数据&lt;/span&gt;" style="rounded=1;whiteSpace=wrap;html=1;fillColor=#f5f5f5;strokeColor=#666666;fontColor=#333333;" vertex="1" parent="qT0SQpxaj8kDD0RNuGWb-1">
          <mxGeometry x="520" y="560" width="90" height="30" as="geometry" />
        </mxCell>
        <mxCell id="qT0SQpxaj8kDD0RNuGWb-11" value="&lt;span style=&quot;font-size: 14px&quot;&gt;设备数据&lt;/span&gt;" style="rounded=1;whiteSpace=wrap;html=1;fillColor=#f5f5f5;strokeColor=#666666;fontColor=#333333;" vertex="1" parent="qT0SQpxaj8kDD0RNuGWb-1">
          <mxGeometry x="740" y="520" width="90" height="30" as="geometry" />
        </mxCell>
        <mxCell id="qT0SQpxaj8kDD0RNuGWb-16" value="&lt;span style=&quot;font-size: 14px&quot;&gt;............&lt;/span&gt;" style="rounded=1;whiteSpace=wrap;html=1;fillColor=#f5f5f5;strokeColor=#666666;fontColor=#333333;" vertex="1" parent="qT0SQpxaj8kDD0RNuGWb-1">
          <mxGeometry x="740" y="560" width="90" height="30" as="geometry" />
        </mxCell>
        <mxCell id="qT0SQpxaj8kDD0RNuGWb-18" value="&lt;b&gt;&lt;font style=&quot;font-size: 13px&quot;&gt;结构化数据&lt;/font&gt;&lt;/b&gt;" style="text;html=1;strokeColor=none;fillColor=none;align=center;verticalAlign=middle;whiteSpace=wrap;rounded=0;dashed=1;" vertex="1" parent="qT0SQpxaj8kDD0RNuGWb-1">
          <mxGeometry x="425" y="610" width="80" height="20" as="geometry" />
        </mxCell>
        <mxCell id="qT0SQpxaj8kDD0RNuGWb-20" value="&lt;b&gt;&lt;font style=&quot;font-size: 13px&quot;&gt;非结构化数据&lt;/font&gt;&lt;/b&gt;" style="text;html=1;strokeColor=none;fillColor=none;align=center;verticalAlign=middle;whiteSpace=wrap;rounded=0;dashed=1;" vertex="1" parent="qT0SQpxaj8kDD0RNuGWb-1">
          <mxGeometry x="695" y="610" width="80" height="20" as="geometry" />
        </mxCell>
        <mxCell id="qT0SQpxaj8kDD0RNuGWb-21" value="&lt;b&gt;&lt;font style=&quot;font-size: 16px&quot;&gt;数据交换中心&lt;/font&gt;&lt;/b&gt;" style="rounded=0;whiteSpace=wrap;html=1;strokeColor=#6c8ebf;strokeWidth=1;align=center;fillColor=#dae8fc;" vertex="1" parent="qT0SQpxaj8kDD0RNuGWb-1">
          <mxGeometry x="330" y="380" width="495" height="50" as="geometry" />
        </mxCell>
        <mxCell id="qT0SQpxaj8kDD0RNuGWb-23" value="" style="shape=flexArrow;endArrow=classic;html=1;strokeWidth=2;" edge="1" parent="qT0SQpxaj8kDD0RNuGWb-1">
          <mxGeometry width="50" height="50" relative="1" as="geometry">
            <mxPoint x="577" y="507" as="sourcePoint" />
            <mxPoint x="577" y="447" as="targetPoint" />
          </mxGeometry>
        </mxCell>
        <mxCell id="qT0SQpxaj8kDD0RNuGWb-25" value="&lt;b&gt;&lt;font style=&quot;font-size: 15px&quot;&gt;后台&lt;/font&gt;&lt;/b&gt;" style="text;html=1;strokeColor=none;fillColor=none;align=center;verticalAlign=middle;whiteSpace=wrap;rounded=0;" vertex="1" parent="qT0SQpxaj8kDD0RNuGWb-1">
          <mxGeometry x="235" y="530" width="80" height="50" as="geometry" />
        </mxCell>
        <mxCell id="qT0SQpxaj8kDD0RNuGWb-26" value="&lt;b&gt;&lt;font style=&quot;font-size: 15px&quot;&gt;中台&lt;/font&gt;&lt;/b&gt;" style="text;html=1;strokeColor=none;fillColor=none;align=center;verticalAlign=middle;whiteSpace=wrap;rounded=0;" vertex="1" parent="qT0SQpxaj8kDD0RNuGWb-1">
          <mxGeometry x="230" y="250" width="80" height="50" as="geometry" />
        </mxCell>
        <mxCell id="qT0SQpxaj8kDD0RNuGWb-29" value="" style="rounded=0;whiteSpace=wrap;html=1;strokeColor=#6c8ebf;strokeWidth=1;align=left;fillColor=#dae8fc;" vertex="1" parent="qT0SQpxaj8kDD0RNuGWb-1">
          <mxGeometry x="330" y="150" width="490" height="220" as="geometry" />
        </mxCell>
        <mxCell id="qT0SQpxaj8kDD0RNuGWb-31" value="统一数据服务" style="rounded=0;whiteSpace=wrap;html=1;strokeColor=#B0CAF5;strokeWidth=1;align=center;" vertex="1" parent="qT0SQpxaj8kDD0RNuGWb-1">
          <mxGeometry x="370" y="170" width="135" height="30" as="geometry" />
        </mxCell>
        <mxCell id="qT0SQpxaj8kDD0RNuGWb-32" value="数据可视化" style="rounded=0;whiteSpace=wrap;html=1;strokeColor=#B0CAF5;strokeWidth=1;align=center;" vertex="1" parent="qT0SQpxaj8kDD0RNuGWb-1">
          <mxGeometry x="517" y="170" width="135" height="30" as="geometry" />
        </mxCell>
        <mxCell id="qT0SQpxaj8kDD0RNuGWb-33" value="算法服务平台" style="rounded=0;whiteSpace=wrap;html=1;strokeColor=#B0CAF5;strokeWidth=1;align=center;" vertex="1" parent="qT0SQpxaj8kDD0RNuGWb-1">
          <mxGeometry x="667.5" y="170" width="135" height="30" as="geometry" />
        </mxCell>
        <mxCell id="qT0SQpxaj8kDD0RNuGWb-34" value="数据仓库" style="rounded=0;whiteSpace=wrap;html=1;strokeColor=#B0CAF5;strokeWidth=1;align=center;" vertex="1" parent="qT0SQpxaj8kDD0RNuGWb-1">
          <mxGeometry x="517" y="210" width="133" height="130" as="geometry" />
        </mxCell>
        <mxCell id="qT0SQpxaj8kDD0RNuGWb-35" value="数据开发平台" style="rounded=0;whiteSpace=wrap;html=1;strokeColor=#B0CAF5;strokeWidth=1;align=center;" vertex="1" parent="qT0SQpxaj8kDD0RNuGWb-1">
          <mxGeometry x="370" y="210" width="133" height="130" as="geometry" />
        </mxCell>
        <mxCell id="qT0SQpxaj8kDD0RNuGWb-36" value="数据治理" style="rounded=0;whiteSpace=wrap;html=1;strokeColor=#B0CAF5;strokeWidth=1;align=center;" vertex="1" parent="qT0SQpxaj8kDD0RNuGWb-1">
          <mxGeometry x="667.5" y="210" width="133" height="130" as="geometry" />
        </mxCell>
      </root>
    </mxGraphModel>
  </diagram>
  <diagram id="4amVJ0EDhjmXc1140mW7" name="数据体系建设">
    <mxGraphModel dx="2578" dy="803" grid="0" gridSize="10" guides="1" tooltips="1" connect="1" arrows="1" fold="1" page="0" pageScale="1" pageWidth="1169" pageHeight="1654" math="0" shadow="0">
      <root>
        <mxCell id="3DS51sNWliXNfaS7lL2H-0" />
        <mxCell id="3DS51sNWliXNfaS7lL2H-1" parent="3DS51sNWliXNfaS7lL2H-0" />
        <mxCell id="3DS51sNWliXNfaS7lL2H-2" value="&lt;div style=&quot;font-size: 13px&quot;&gt;&lt;span&gt;&lt;font color=&quot;#ffffff&quot; style=&quot;font-size: 13px&quot;&gt;应用数据层&lt;/font&gt;&lt;/span&gt;&lt;/div&gt;&lt;div style=&quot;font-size: 13px&quot;&gt;&lt;span&gt;&lt;font color=&quot;#ffffff&quot; style=&quot;font-size: 13px&quot;&gt;ADS&lt;/font&gt;&lt;/span&gt;&lt;/div&gt;" style="rounded=1;whiteSpace=wrap;html=1;strokeColor=#6c8ebf;strokeWidth=1;align=center;fillColor=#007FFF;" vertex="1" parent="3DS51sNWliXNfaS7lL2H-1">
          <mxGeometry x="-1030" y="300" width="120" height="60" as="geometry" />
        </mxCell>
        <mxCell id="3DS51sNWliXNfaS7lL2H-4" value="&lt;div style=&quot;font-size: 13px&quot;&gt;&lt;span&gt;&lt;font color=&quot;#ffffff&quot; style=&quot;font-size: 13px&quot;&gt;标签数据层&lt;/font&gt;&lt;/span&gt;&lt;/div&gt;&lt;div style=&quot;font-size: 13px&quot;&gt;&lt;font color=&quot;#ffffff&quot;&gt;TDM&lt;/font&gt;&lt;/div&gt;" style="rounded=1;whiteSpace=wrap;html=1;strokeColor=#6c8ebf;strokeWidth=1;align=center;fillColor=#007FFF;" vertex="1" parent="3DS51sNWliXNfaS7lL2H-1">
          <mxGeometry x="-1030" y="380" width="120" height="60" as="geometry" />
        </mxCell>
        <mxCell id="3DS51sNWliXNfaS7lL2H-5" value="&lt;div style=&quot;font-size: 13px&quot;&gt;&lt;font color=&quot;#ffffff&quot;&gt;统一数仓层&lt;/font&gt;&lt;/div&gt;&lt;div style=&quot;font-size: 13px&quot;&gt;&lt;font color=&quot;#ffffff&quot;&gt;DW&lt;/font&gt;&lt;/div&gt;" style="rounded=1;whiteSpace=wrap;html=1;strokeColor=#6c8ebf;strokeWidth=1;align=center;fillColor=#007FFF;" vertex="1" parent="3DS51sNWliXNfaS7lL2H-1">
          <mxGeometry x="-1030" y="460" width="120" height="60" as="geometry" />
        </mxCell>
        <mxCell id="3DS51sNWliXNfaS7lL2H-6" value="&lt;div style=&quot;font-size: 13px&quot;&gt;&lt;font color=&quot;#ffffff&quot;&gt;贴源数据层&lt;/font&gt;&lt;/div&gt;&lt;div style=&quot;font-size: 13px&quot;&gt;&lt;font color=&quot;#ffffff&quot;&gt;ODS&lt;/font&gt;&lt;/div&gt;" style="rounded=1;whiteSpace=wrap;html=1;strokeColor=#6c8ebf;strokeWidth=1;align=center;fillColor=#007FFF;" vertex="1" parent="3DS51sNWliXNfaS7lL2H-1">
          <mxGeometry x="-1030" y="540" width="120" height="60" as="geometry" />
        </mxCell>
        <mxCell id="3DS51sNWliXNfaS7lL2H-7" value="" style="rounded=1;whiteSpace=wrap;html=1;strokeColor=#6c8ebf;strokeWidth=1;fillColor=#dae8fc;align=left;" vertex="1" parent="3DS51sNWliXNfaS7lL2H-1">
          <mxGeometry x="-890" y="300" width="530" height="60" as="geometry" />
        </mxCell>
        <mxCell id="3DS51sNWliXNfaS7lL2H-8" value="智慧医疗" style="rounded=1;whiteSpace=wrap;html=1;strokeColor=#B0CAF5;strokeWidth=1;align=center;fillColor=#FFFFFF;" vertex="1" parent="3DS51sNWliXNfaS7lL2H-1">
          <mxGeometry x="-870" y="315" width="90" height="30" as="geometry" />
        </mxCell>
        <mxCell id="3DS51sNWliXNfaS7lL2H-9" value="智能教育" style="rounded=1;whiteSpace=wrap;html=1;strokeColor=#B0CAF5;strokeWidth=1;align=center;fillColor=#FFFFFF;" vertex="1" parent="3DS51sNWliXNfaS7lL2H-1">
          <mxGeometry x="-770" y="315" width="90" height="30" as="geometry" />
        </mxCell>
        <mxCell id="3DS51sNWliXNfaS7lL2H-10" value="智能推荐" style="rounded=1;whiteSpace=wrap;html=1;strokeColor=#B0CAF5;strokeWidth=1;align=center;fillColor=#FFFFFF;" vertex="1" parent="3DS51sNWliXNfaS7lL2H-1">
          <mxGeometry x="-670" y="315" width="90" height="30" as="geometry" />
        </mxCell>
        <mxCell id="3DS51sNWliXNfaS7lL2H-11" value="智能订货" style="rounded=1;whiteSpace=wrap;html=1;strokeColor=#B0CAF5;strokeWidth=1;align=center;fillColor=#FFFFFF;" vertex="1" parent="3DS51sNWliXNfaS7lL2H-1">
          <mxGeometry x="-570" y="315" width="90" height="30" as="geometry" />
        </mxCell>
        <mxCell id="3DS51sNWliXNfaS7lL2H-12" value="精准营销" style="rounded=1;whiteSpace=wrap;html=1;strokeColor=#B0CAF5;strokeWidth=1;align=center;fillColor=#FFFFFF;" vertex="1" parent="3DS51sNWliXNfaS7lL2H-1">
          <mxGeometry x="-470" y="315" width="90" height="30" as="geometry" />
        </mxCell>
        <mxCell id="3DS51sNWliXNfaS7lL2H-14" value="" style="rounded=1;whiteSpace=wrap;html=1;strokeColor=#6c8ebf;strokeWidth=1;fillColor=#dae8fc;align=left;" vertex="1" parent="3DS51sNWliXNfaS7lL2H-1">
          <mxGeometry x="-890" y="380" width="530" height="60" as="geometry" />
        </mxCell>
        <mxCell id="3DS51sNWliXNfaS7lL2H-15" value="门店" style="rounded=1;whiteSpace=wrap;html=1;strokeColor=#B0CAF5;strokeWidth=1;align=center;fillColor=#FFFFFF;" vertex="1" parent="3DS51sNWliXNfaS7lL2H-1">
          <mxGeometry x="-800" y="395" width="60" height="30" as="geometry" />
        </mxCell>
        <mxCell id="3DS51sNWliXNfaS7lL2H-20" value="宠主" style="rounded=1;whiteSpace=wrap;html=1;strokeColor=#B0CAF5;strokeWidth=1;align=center;fillColor=#FFFFFF;" vertex="1" parent="3DS51sNWliXNfaS7lL2H-1">
          <mxGeometry x="-730" y="395" width="60" height="30" as="geometry" />
        </mxCell>
        <mxCell id="3DS51sNWliXNfaS7lL2H-21" value="宠物" style="rounded=1;whiteSpace=wrap;html=1;strokeColor=#B0CAF5;strokeWidth=1;align=center;fillColor=#FFFFFF;" vertex="1" parent="3DS51sNWliXNfaS7lL2H-1">
          <mxGeometry x="-660" y="395" width="60" height="30" as="geometry" />
        </mxCell>
        <mxCell id="3DS51sNWliXNfaS7lL2H-22" value="商品" style="rounded=1;whiteSpace=wrap;html=1;strokeColor=#B0CAF5;strokeWidth=1;align=center;fillColor=#FFFFFF;" vertex="1" parent="3DS51sNWliXNfaS7lL2H-1">
          <mxGeometry x="-585" y="395" width="60" height="30" as="geometry" />
        </mxCell>
        <mxCell id="3DS51sNWliXNfaS7lL2H-23" value="员工" style="rounded=1;whiteSpace=wrap;html=1;strokeColor=#B0CAF5;strokeWidth=1;align=center;fillColor=#FFFFFF;" vertex="1" parent="3DS51sNWliXNfaS7lL2H-1">
          <mxGeometry x="-514" y="395" width="60" height="30" as="geometry" />
        </mxCell>
        <mxCell id="3DS51sNWliXNfaS7lL2H-24" value="病历" style="rounded=1;whiteSpace=wrap;html=1;strokeColor=#B0CAF5;strokeWidth=1;align=center;fillColor=#FFFFFF;" vertex="1" parent="3DS51sNWliXNfaS7lL2H-1">
          <mxGeometry x="-440" y="395" width="60" height="30" as="geometry" />
        </mxCell>
        <mxCell id="3DS51sNWliXNfaS7lL2H-26" value="区域" style="rounded=1;whiteSpace=wrap;html=1;strokeColor=#B0CAF5;strokeWidth=1;align=center;fillColor=#FFFFFF;" vertex="1" parent="3DS51sNWliXNfaS7lL2H-1">
          <mxGeometry x="-870" y="395" width="60" height="30" as="geometry" />
        </mxCell>
        <mxCell id="3DS51sNWliXNfaS7lL2H-28" value="" style="rounded=1;whiteSpace=wrap;html=1;strokeColor=#6c8ebf;strokeWidth=1;fillColor=#dae8fc;align=left;" vertex="1" parent="3DS51sNWliXNfaS7lL2H-1">
          <mxGeometry x="-890" y="460" width="530" height="60" as="geometry" />
        </mxCell>
        <mxCell id="3DS51sNWliXNfaS7lL2H-29" value="宠主域" style="rounded=1;whiteSpace=wrap;html=1;strokeColor=#B0CAF5;strokeWidth=1;align=center;fillColor=#FFFFFF;" vertex="1" parent="3DS51sNWliXNfaS7lL2H-1">
          <mxGeometry x="-800" y="475" width="60" height="30" as="geometry" />
        </mxCell>
        <mxCell id="3DS51sNWliXNfaS7lL2H-30" value="订单域" style="rounded=1;whiteSpace=wrap;html=1;strokeColor=#B0CAF5;strokeWidth=1;align=center;fillColor=#FFFFFF;" vertex="1" parent="3DS51sNWliXNfaS7lL2H-1">
          <mxGeometry x="-730" y="475" width="60" height="30" as="geometry" />
        </mxCell>
        <mxCell id="3DS51sNWliXNfaS7lL2H-31" value="库存域" style="rounded=1;whiteSpace=wrap;html=1;strokeColor=#B0CAF5;strokeWidth=1;align=center;fillColor=#FFFFFF;" vertex="1" parent="3DS51sNWliXNfaS7lL2H-1">
          <mxGeometry x="-660" y="475" width="60" height="30" as="geometry" />
        </mxCell>
        <mxCell id="3DS51sNWliXNfaS7lL2H-32" value="成本域" style="rounded=1;whiteSpace=wrap;html=1;strokeColor=#B0CAF5;strokeWidth=1;align=center;fillColor=#FFFFFF;" vertex="1" parent="3DS51sNWliXNfaS7lL2H-1">
          <mxGeometry x="-585" y="475" width="60" height="30" as="geometry" />
        </mxCell>
        <mxCell id="3DS51sNWliXNfaS7lL2H-33" value="设备域" style="rounded=1;whiteSpace=wrap;html=1;strokeColor=#B0CAF5;strokeWidth=1;align=center;fillColor=#FFFFFF;" vertex="1" parent="3DS51sNWliXNfaS7lL2H-1">
          <mxGeometry x="-514" y="475" width="60" height="30" as="geometry" />
        </mxCell>
        <mxCell id="3DS51sNWliXNfaS7lL2H-34" value="资金域" style="rounded=1;whiteSpace=wrap;html=1;strokeColor=#B0CAF5;strokeWidth=1;align=center;fillColor=#FFFFFF;" vertex="1" parent="3DS51sNWliXNfaS7lL2H-1">
          <mxGeometry x="-440" y="475" width="60" height="30" as="geometry" />
        </mxCell>
        <mxCell id="3DS51sNWliXNfaS7lL2H-35" value="产品域" style="rounded=1;whiteSpace=wrap;html=1;strokeColor=#B0CAF5;strokeWidth=1;align=center;fillColor=#FFFFFF;" vertex="1" parent="3DS51sNWliXNfaS7lL2H-1">
          <mxGeometry x="-870" y="475" width="60" height="30" as="geometry" />
        </mxCell>
        <mxCell id="3DS51sNWliXNfaS7lL2H-36" value="" style="rounded=1;whiteSpace=wrap;html=1;strokeColor=#6c8ebf;strokeWidth=1;fillColor=#dae8fc;align=left;" vertex="1" parent="3DS51sNWliXNfaS7lL2H-1">
          <mxGeometry x="-890" y="540" width="530" height="60" as="geometry" />
        </mxCell>
        <mxCell id="3DS51sNWliXNfaS7lL2H-37" value="阿闻数据" style="rounded=1;whiteSpace=wrap;html=1;strokeColor=#B0CAF5;strokeWidth=1;align=center;fillColor=#FFFFFF;" vertex="1" parent="3DS51sNWliXNfaS7lL2H-1">
          <mxGeometry x="-765" y="555" width="80" height="30" as="geometry" />
        </mxCell>
        <mxCell id="3DS51sNWliXNfaS7lL2H-38" value="供应链数据" style="rounded=1;whiteSpace=wrap;html=1;strokeColor=#B0CAF5;strokeWidth=1;align=center;fillColor=#FFFFFF;" vertex="1" parent="3DS51sNWliXNfaS7lL2H-1">
          <mxGeometry x="-670" y="555" width="110" height="30" as="geometry" />
        </mxCell>
        <mxCell id="3DS51sNWliXNfaS7lL2H-39" value="教育数据" style="rounded=1;whiteSpace=wrap;html=1;strokeColor=#B0CAF5;strokeWidth=1;align=center;fillColor=#FFFFFF;" vertex="1" parent="3DS51sNWliXNfaS7lL2H-1">
          <mxGeometry x="-545" y="555" width="70" height="30" as="geometry" />
        </mxCell>
        <mxCell id="3DS51sNWliXNfaS7lL2H-40" value="公开数据" style="rounded=1;whiteSpace=wrap;html=1;strokeColor=#B0CAF5;strokeWidth=1;align=center;fillColor=#FFFFFF;" vertex="1" parent="3DS51sNWliXNfaS7lL2H-1">
          <mxGeometry x="-460" y="555" width="66" height="30" as="geometry" />
        </mxCell>
        <mxCell id="3DS51sNWliXNfaS7lL2H-43" value="子龙数据" style="rounded=1;whiteSpace=wrap;html=1;strokeColor=#B0CAF5;strokeWidth=1;align=center;fillColor=#FFFFFF;" vertex="1" parent="3DS51sNWliXNfaS7lL2H-1">
          <mxGeometry x="-870" y="555" width="90" height="30" as="geometry" />
        </mxCell>
      </root>
    </mxGraphModel>
  </diagram>
</mxfile>
